<svg width="44" height="44" viewBox="0 0 44 44" fill="none" xmlns="http://www.w3.org/2000/svg">
<rect x="3" y="3" width="38" height="38" rx="8" fill="white"/>
<rect x="6" y="6" width="32" height="32" rx="5" fill="#004C26"/>
<path d="M10 33.2164V10.8761C10 10.438 10.4384 10 10.8767 10H33.1233C33.6712 10 34 10.438 34 10.8761V33.1069C34 33.6544 33.5616 33.983 33.1233 33.983H10.9997C10.918 33.983 10.8367 33.9974 10.755 33.9998C10.3608 34.0112 10 33.6138 10 33.2164Z" fill="#157846"/>
<path d="M10.8767 10C10.4384 10 10 10.4465 10 10.893V31L15.8447 25.0465L19.863 29.1395L27.169 21.6977L34 28.6558V10.893C34 10.4465 33.6712 10 33.1233 10H10.8767Z" fill="white" fill-opacity="0.3"/>
<rect x="10" y="10" width="3" height="3" fill="white"/>
<rect x="17" y="10" width="3" height="3" fill="white"/>
<rect x="24" y="10" width="3" height="3" fill="white"/>
<rect x="31" y="10" width="3" height="3" fill="white"/>
<rect x="31" y="17" width="3" height="3" fill="white"/>
<rect x="31" y="24" width="3" height="3" fill="white"/>
<rect x="10" y="17" width="3" height="3" fill="white"/>
<rect x="10" y="24" width="3" height="3" fill="white"/>
<rect x="10" y="31" width="3" height="3" fill="white"/>
<rect x="17" y="31" width="3" height="3" fill="white"/>
<rect x="24" y="31" width="3" height="3" fill="white"/>
<rect x="31" y="31" width="3" height="3" fill="white"/>
</svg>
