<svg width="44" height="44" viewBox="0 0 44 44" fill="none" xmlns="http://www.w3.org/2000/svg">
<rect x="3" y="3" width="38" height="38" rx="8" fill="white"/>
<rect x="6" y="6" width="32" height="32" rx="5" fill="#004C26"/>
<path d="M10 33.2164V10.8761C10 10.438 10.4384 10 10.8767 10H33.1233C33.6712 10 34 10.438 34 10.8761V33.1069C34 33.6544 33.5616 33.983 33.1233 33.983H10.9997C10.918 33.983 10.8367 33.9974 10.755 33.9998C10.3608 34.0112 10 33.6138 10 33.2164Z" fill="#157846"/>
<path d="M16.8673 17.4251L15.3737 17.5639L15.9984 24.2849L17.4919 24.1461L16.8673 17.4251Z" fill="white"/>
<path d="M28.5902 17.7225L27.102 17.5351L25.9771 26.4645L27.4653 26.652L28.5902 17.7225Z" fill="white"/>
<path d="M13.75 13.75V18.25H18.25V13.75H13.75ZM16.75 16.75H15.25V15.25H16.75V16.75Z" fill="white"/>
<path d="M25.75 13.75V18.25H30.25V13.75H25.75ZM28.75 16.75H27.25V15.25H28.75V16.75Z" fill="white"/>
<path d="M14.5 23.5V28H19V23.5H14.5ZM17.5 26.5H16V25H17.5V26.5Z" fill="white"/>
<path d="M24.25 25.75V30.25H28.75V25.75H24.25ZM27.25 28.75H25.75V27.25H27.25V28.75Z" fill="white"/>
<path d="M17.8827 25.1062L17.4659 26.5471L24.6707 28.6308L25.0874 27.1898L17.8827 25.1062Z" fill="white"/>
<path d="M17.5 15.25V16.75H26.5V15.25H17.5Z" fill="white"/>
</svg>
