<svg width="44" height="44" viewBox="0 0 44 44" fill="none" xmlns="http://www.w3.org/2000/svg">
<rect x="3" y="3" width="38" height="38" rx="8" fill="white"/>
<rect x="6" y="6" width="32" height="32" rx="5" fill="#004C26"/>
<path d="M10 33.2164V10.8761C10 10.438 10.4384 10 10.8767 10H33.1233C33.6712 10 34 10.438 34 10.8761V33.1069C34 33.6544 33.5616 33.983 33.1233 33.983H10.9997C10.918 33.983 10.8367 33.9974 10.755 33.9998C10.3608 34.0112 10 33.6138 10 33.2164Z" fill="#157846"/>
<g opacity="0.5">
<path d="M27.2135 15.1972L27.0705 13.6653L20.1458 14.306L20.2888 15.8379L27.2135 15.1972Z" fill="white"/>
<path d="M26.9071 30.2976L27.1003 28.7712L17.9003 27.6175L17.7071 29.1439L26.9071 30.2976Z" fill="white"/>
<path d="M31 12H26.3636V16.6154H31V12ZM27.9091 15.0769V13.5385H29.4545V15.0769H27.9091Z" fill="white"/>
<path d="M31 27.3846H26.3636V32H31V27.3846ZM27.9091 30.4615V28.9231H29.4545V30.4615H27.9091Z" fill="white"/>
<path d="M20.9545 12.7692H16.3182V17.3846H20.9545V12.7692ZM17.8636 15.8462V14.3077H19.4091V15.8462H17.8636Z" fill="white"/>
<path d="M18.6364 25.8462H14V30.4615H18.6364V25.8462ZM15.5455 28.9231V27.3846H17.0909V28.9231H15.5455Z" fill="white"/>
<path d="M17.4773 25.0769H15.9318L15.6683 26.2776L17.1529 26.705L17.4773 25.0769Z" fill="white"/>
<path d="M29.4545 25.0769H27.9091V28.1538H29.4545V25.0769Z" fill="white"/>
</g>
<path d="M28.05 23H25.9286L26.5179 19H29.4643L28.05 23Z" fill="white"/>
<path d="M31.5857 23H29.4643L30.0536 19H33L31.5857 23Z" fill="white"/>
<path d="M15.95 23H18.0714L17.4821 19H14.5357L15.95 23Z" fill="white"/>
<path d="M12.4143 23H14.5357L13.9464 19H11L12.4143 23Z" fill="white"/>
</svg>
