<svg width="44" height="44" viewBox="0 0 44 44" fill="none" xmlns="http://www.w3.org/2000/svg">
<path d="M39.5 8.02667V6.70468L38.1885 6.53856L22.1885 4.51189L22 4.48801L21.8115 4.51189L5.81151 6.53856L4.5 6.70468V8.02667V32.9867V34.0886L5.5515 34.4181L21.5515 39.4314L22 39.5719L22.4485 39.4314L38.4485 34.4181L39.5 34.0886V32.9867V8.02667Z" fill="#48246E" stroke="white" stroke-width="3"/>
<path d="M22 9L35 10.6318V30.8661L22 35V9Z" fill="#7C5C9D"/>
<path d="M29.4642 24.0506L29.4642 23.6032L29.4642 21.5447L27.4057 21.5447L15.2645 21.5447L15.2645 16.5331L12.7587 16.5331L12.7587 24.0506L15.2645 24.0506L27.4057 24.0506L29.4642 24.0506Z" fill="white"/>
<path d="M23.9336 18.0726L25.7055 16.3007L32.2024 22.7976L30.4305 24.5695L29.4642 23.6032L29.4642 21.5447L27.4057 21.5447L23.9336 18.0726Z" fill="white"/>
<path d="M23.9336 27.5227L27.4057 24.0506L29.4642 24.0506L29.4642 23.6032L30.4305 24.5695L25.7055 29.2945L23.9336 27.5227Z" fill="white"/>
</svg>
