<svg width="44" height="44" viewBox="0 0 44 44" fill="none" xmlns="http://www.w3.org/2000/svg">
<path d="M39.5 8.02667V6.70468L38.1885 6.53856L22.1885 4.51189L22 4.48801L21.8115 4.51189L5.81151 6.53856L4.5 6.70468V8.02667V32.9867V34.0886L5.5515 34.4181L21.5515 39.4314L22 39.5719L22.4485 39.4314L38.4485 34.4181L39.5 34.0886V32.9867V8.02667Z" fill="#48246E" stroke="white" stroke-width="3"/>
<path d="M22 9L35 10.6318V30.8661L22 35V9Z" fill="#7C5C9D"/>
<path d="M15.3151 21.1357H18.8835V22.6738H15.3151V26.7168H13.6804V22.6738H10.112V21.1357H13.6804V17.4004H15.3151V21.1357ZM19.935 29.0986H18.5375L23.8813 15.2031H25.27L19.935 29.0986ZM25.1773 22.864V21.696H33.0493V22.864H25.1773Z" fill="white"/>
</svg>
