<svg width="44" height="44" viewBox="0 0 44 44" fill="none" xmlns="http://www.w3.org/2000/svg">
<path d="M39.5 8.02667V6.70468L38.1885 6.53856L22.1885 4.51189L22 4.48801L21.8115 4.51189L5.81151 6.53856L4.5 6.70468V8.02667V32.9867V34.0886L5.5515 34.4181L21.5515 39.4314L22 39.5719L22.4485 39.4314L38.4485 34.4181L39.5 34.0886V32.9867V8.02667Z" fill="#48246E" stroke="white" stroke-width="3"/>
<path d="M22 9L35 10.6318V30.8661L22 35V9Z" fill="#7C5C9D"/>
<path d="M27.5799 12.1874C27.3942 12.1874 27.2122 12.3048 27.0389 12.536C27.0201 12.5609 25.0986 15.0509 20.297 16.5314C19.9457 16.6396 19.532 16.7785 19.0646 16.8355C18.8062 16.867 18.7451 16.8128 18.7246 16.7754C18.5808 16.5141 18.3034 16.3364 17.9845 16.3364H13.242C12.7758 16.3364 12.3966 16.7156 12.3966 17.1818V17.4963C12.3966 17.6866 12.2625 17.6949 12.2157 17.6986C12.1475 17.7039 12.1089 17.7067 12.1045 17.7071C11.4955 17.7514 11 18.2843 11 18.8949V22.0647C11 22.6754 11.4955 23.2082 12.1046 23.2525C12.1099 23.2529 12.1653 23.2569 12.2627 23.2646C12.301 23.2676 12.3966 23.3016 12.3966 23.4707V23.7779C12.3966 24.2441 12.7759 24.6234 13.2421 24.6234C13.2421 24.6234 13.5174 24.6234 13.6093 24.6234C13.7713 24.6234 13.8029 24.7874 13.8029 24.7874L15.1152 30.7655C15.244 31.3526 15.8159 31.8126 16.4171 31.8126H17.9317C18.2391 31.8126 18.5174 31.6859 18.6951 31.4649C18.8729 31.2439 18.937 30.9449 18.8712 30.6446L17.589 24.8039C17.589 24.8039 17.5405 24.6233 17.7236 24.6233C17.7888 24.6233 17.9846 24.6233 17.9846 24.6233C18.3016 24.6233 18.5542 24.433 18.7222 24.1886C18.7945 24.0835 18.944 24.0992 19.0252 24.1157C19.5019 24.2124 19.9357 24.3167 20.2969 24.4283C25.0987 25.9117 27.0199 28.3991 27.0384 28.4236C27.212 28.655 27.3941 28.7724 27.5797 28.7724C27.5797 28.7724 27.5797 28.7724 27.5798 28.7724C27.7481 28.7724 27.8911 28.6774 27.9722 28.5118C28.0258 28.4024 28.0529 28.259 28.0529 28.0855V12.8742C28.0529 12.2205 27.6589 12.1874 27.5799 12.1874Z" fill="white"/>
<path d="M31.6554 16.2349C31.4786 15.9786 31.1276 15.9141 30.8715 16.0908C30.6152 16.2675 30.5506 16.6184 30.7273 16.8747C31.4767 17.9616 31.8727 19.2725 31.8727 20.6658C31.8727 22.0539 31.4585 23.4112 30.7064 24.4877C30.5281 24.7429 30.5904 25.0943 30.8456 25.2726C30.9439 25.3413 31.0564 25.3742 31.1679 25.3742C31.3457 25.3742 31.5209 25.2903 31.6304 25.1334C32.5264 23.8511 33 22.3062 33 20.6659C33 19.043 32.535 17.5108 31.6554 16.2349Z" fill="white"/>
<path d="M29.8031 17.8273C29.6263 17.571 29.2753 17.5065 29.0191 17.6832C28.7629 17.8599 28.6983 18.2109 28.875 18.4671C29.3101 19.0983 29.5401 19.8609 29.5401 20.6722C29.5401 21.4807 29.2996 22.2702 28.8628 22.8952C28.6846 23.1504 28.7468 23.5017 29.0021 23.6801C29.1003 23.7488 29.2129 23.7817 29.3244 23.7817C29.5023 23.7817 29.6773 23.6978 29.7869 23.5409C30.3629 22.7166 30.6674 21.7246 30.6674 20.6723C30.6674 19.6312 30.3685 18.6475 29.8031 17.8273Z" fill="white"/>
</svg>
