<svg width="44" height="44" viewBox="0 0 44 44" fill="none" xmlns="http://www.w3.org/2000/svg">
<path d="M39.5 8.02667V6.70468L38.1885 6.53856L22.1885 4.51189L22 4.48801L21.8115 4.51189L5.81151 6.53856L4.5 6.70468V8.02667V32.9867V34.0886L5.5515 34.4181L21.5515 39.4314L22 39.5719L22.4485 39.4314L38.4485 34.4181L39.5 34.0886V32.9867V8.02667Z" fill="#48246E" stroke="white" stroke-width="3"/>
<path d="M22 9L35 10.6318V30.8661L22 35V9Z" fill="#7C5C9D"/>
<path d="M26.5855 31.75H21.046C20.305 31.75 19.6105 31.387 19.189 30.7772L15.577 25.636C15.3618 25.3232 15.25 24.964 15.25 24.5912C15.25 23.893 15.6377 23.266 16.2625 22.9532C16.7762 22.6952 17.395 22.7673 17.836 23.14L19.7043 24.5552C19.7268 24.61 19.75 24.541 19.75 24.484L19.762 17.8615C19.762 16.8355 20.5975 16 21.625 16C22.6525 16 23.488 16.8355 23.488 17.863L23.4977 21.4262L23.4992 21.427L27.3093 22.4732C28.1223 22.6345 28.75 23.4003 28.75 24.2823L28.7395 24.5508L28.0825 30.385C28.0285 31.1373 27.37 31.75 26.5855 31.75ZM16.8992 24.3115C16.8205 24.352 16.75 24.4652 16.75 24.5912C16.75 24.6587 16.7703 24.7232 16.8085 24.7787L20.4197 29.9193C20.5637 30.1278 20.797 30.25 21.0468 30.25H26.5862L27.247 24.4135L27.25 24.2823C27.25 24.1128 27.13 23.9657 26.9635 23.9327L23.1025 22.8745C22.4545 22.6968 22.0008 22.1035 21.9985 21.4315L21.9887 17.8652C21.988 17.6627 21.8252 17.5 21.625 17.5C21.4248 17.5 21.262 17.6628 21.262 17.863L21.25 24.4855C21.25 25.0015 20.9987 25.6503 20.4362 25.9315C19.8842 26.2075 19.2257 26.125 18.7592 25.7192L16.8992 24.3115Z" fill="white"/>
<path d="M27.625 19.75H25.75C25.3353 19.75 25 19.414 25 19C25 18.586 25.3353 18.25 25.75 18.25H27.625C28.6592 18.25 29.5 17.4085 29.5 16.375C29.5 15.3415 28.6592 14.5 27.625 14.5H16.375C15.3415 14.5 14.5 15.3415 14.5 16.375C14.5 17.4085 15.3415 18.25 16.375 18.25H17.5C17.914 18.25 18.25 18.586 18.25 19C18.25 19.414 17.914 19.75 17.5 19.75H16.375C14.5143 19.75 13 18.2357 13 16.375C13 14.5143 14.5143 13 16.375 13H27.625C29.4857 13 31 14.5143 31 16.375C31 18.2357 29.4857 19.75 27.625 19.75Z" fill="white"/>
</svg>
