<svg width="44" height="44" viewBox="0 0 44 44" fill="none" xmlns="http://www.w3.org/2000/svg">
<path d="M39.5 8.02667V6.70468L38.1885 6.53856L22.1885 4.51189L22 4.48801L21.8115 4.51189L5.81151 6.53856L4.5 6.70468V8.02667V32.9867V34.0886L5.5515 34.4181L21.5515 39.4314L22 39.5719L22.4485 39.4314L38.4485 34.4181L39.5 34.0886V32.9867V8.02667Z" fill="#48246E" stroke="white" stroke-width="3"/>
<path d="M22 9L35 10.6318V30.8661L22 35V9Z" fill="#7C5C9D"/>
<rect x="15.8333" y="10.5" width="17.6667" height="13" rx="2.5" stroke="white"/>
<path d="M31.44 16L30 14.56L28.56 16L28 15.44L29.44 14L28 12.56L28.56 12L30 13.44L31.44 12L32 12.56L30.56 14L32 15.44L31.44 16Z" fill="white"/>
<path d="M9.89474 20V22.5263H15.7053L8 30.2316L9.76842 32L17.4737 24.2947V30.1053H20V20H9.89474Z" fill="white"/>
</svg>
