<svg width="44" height="44" viewBox="0 0 44 44" fill="none" xmlns="http://www.w3.org/2000/svg">
<path d="M39.5 8.02667V6.70468L38.1885 6.53856L22.1885 4.51189L22 4.48801L21.8115 4.51189L5.81151 6.53856L4.5 6.70468V8.02667V32.9867V34.0886L5.5515 34.4181L21.5515 39.4314L22 39.5719L22.4485 39.4314L38.4485 34.4181L39.5 34.0886V32.9867V8.02667Z" fill="#48246E" stroke="white" stroke-width="3"/>
<path d="M22 9L35 10.6318V30.8661L22 35V9Z" fill="#7C5C9D"/>
<path d="M14.9531 26C14.8698 25.8333 14.8021 25.5365 14.75 25.1094C14.0781 25.8073 13.276 26.1562 12.3438 26.1562C11.5104 26.1562 10.8255 25.9219 10.2891 25.4531C9.75781 24.9792 9.49219 24.3802 9.49219 23.6562C9.49219 22.776 9.82552 22.0938 10.4922 21.6094C11.1641 21.1198 12.1068 20.875 13.3203 20.875H14.7266V20.2109C14.7266 19.7057 14.5755 19.3047 14.2734 19.0078C13.9714 18.7057 13.526 18.5547 12.9375 18.5547C12.4219 18.5547 11.9896 18.6849 11.6406 18.9453C11.2917 19.2057 11.1172 19.5208 11.1172 19.8906H9.66406C9.66406 19.4688 9.8125 19.0625 10.1094 18.6719C10.4115 18.276 10.8177 17.9635 11.3281 17.7344C11.8438 17.5052 12.4089 17.3906 13.0234 17.3906C13.9974 17.3906 14.7604 17.6354 15.3125 18.125C15.8646 18.6094 16.151 19.2786 16.1719 20.1328V24.0234C16.1719 24.7995 16.2708 25.4167 16.4688 25.875V26H14.9531ZM12.5547 24.8984C13.0078 24.8984 13.4375 24.7812 13.8438 24.5469C14.25 24.3125 14.5443 24.0078 14.7266 23.6328V21.8984H13.5938C11.8229 21.8984 10.9375 22.4167 10.9375 23.4531C10.9375 23.9062 11.0885 24.2604 11.3906 24.5156C11.6927 24.7708 12.0807 24.8984 12.5547 24.8984ZM22.5234 18.8438C22.3047 18.8073 22.0677 18.7891 21.8125 18.7891C20.8646 18.7891 20.2214 19.1927 19.8828 20V26H18.4375V17.5469H19.8438L19.8672 18.5234C20.3411 17.7682 21.013 17.3906 21.8828 17.3906C22.1641 17.3906 22.3776 17.4271 22.5234 17.5V18.8438ZM25.4297 26H23.9844V17.5469H25.4297V26ZM23.8672 15.3047C23.8672 15.0703 23.9375 14.8724 24.0781 14.7109C24.224 14.5495 24.4375 14.4688 24.7188 14.4688C25 14.4688 25.2135 14.5495 25.3594 14.7109C25.5052 14.8724 25.5781 15.0703 25.5781 15.3047C25.5781 15.5391 25.5052 15.7344 25.3594 15.8906C25.2135 16.0469 25 16.125 24.7188 16.125C24.4375 16.125 24.224 16.0469 24.0781 15.8906C23.9375 15.7344 23.8672 15.5391 23.8672 15.3047ZM32.9688 26C32.8854 25.8333 32.8177 25.5365 32.7656 25.1094C32.0938 25.8073 31.2917 26.1562 30.3594 26.1562C29.526 26.1562 28.8411 25.9219 28.3047 25.4531C27.7734 24.9792 27.5078 24.3802 27.5078 23.6562C27.5078 22.776 27.8411 22.0938 28.5078 21.6094C29.1797 21.1198 30.1224 20.875 31.3359 20.875H32.7422V20.2109C32.7422 19.7057 32.5911 19.3047 32.2891 19.0078C31.987 18.7057 31.5417 18.5547 30.9531 18.5547C30.4375 18.5547 30.0052 18.6849 29.6562 18.9453C29.3073 19.2057 29.1328 19.5208 29.1328 19.8906H27.6797C27.6797 19.4688 27.8281 19.0625 28.125 18.6719C28.4271 18.276 28.8333 17.9635 29.3438 17.7344C29.8594 17.5052 30.4245 17.3906 31.0391 17.3906C32.013 17.3906 32.776 17.6354 33.3281 18.125C33.8802 18.6094 34.1667 19.2786 34.1875 20.1328V24.0234C34.1875 24.7995 34.2865 25.4167 34.4844 25.875V26H32.9688ZM30.5703 24.8984C31.0234 24.8984 31.4531 24.7812 31.8594 24.5469C32.2656 24.3125 32.5599 24.0078 32.7422 23.6328V21.8984H31.6094C29.8385 21.8984 28.9531 22.4167 28.9531 23.4531C28.9531 23.9062 29.1042 24.2604 29.4062 24.5156C29.7083 24.7708 30.0964 24.8984 30.5703 24.8984Z" fill="white"/>
</svg>
