<svg width="44" height="44" viewBox="0 0 44 44" fill="none" xmlns="http://www.w3.org/2000/svg">
<path d="M39.5 8.02667V6.70468L38.1885 6.53856L22.1885 4.51189L22 4.48801L21.8115 4.51189L5.81151 6.53856L4.5 6.70468V8.02667V32.9867V34.0886L5.5515 34.4181L21.5515 39.4314L22 39.5719L22.4485 39.4314L38.4485 34.4181L39.5 34.0886V32.9867V8.02667Z" fill="#48246E" stroke="white" stroke-width="3"/>
<path d="M22 9L35 10.6318V30.8661L22 35V9Z" fill="#7C5C9D"/>
<ellipse cx="22" cy="20.5" rx="11" ry="9.5" fill="white"/>
<path d="M13.5 26L19.5 29C19.5 29 19.5 29.5 18.5 29C17.5 28.5 9.5 31 9.5 31C9.5 31 13.75 26.5 13.5 26Z" fill="white"/>
<path d="M25.6 25L22 21.4L18.4 25L17 23.6L20.6 20L17 16.4L18.4 15L22 18.6L25.6 15L27 16.4L23.4 20L27 23.6L25.6 25Z" fill="black"/>
</svg>
