<svg width="44" height="44" viewBox="0 0 44 44" fill="none" xmlns="http://www.w3.org/2000/svg">
<path d="M39.5 8.02667V6.70468L38.1885 6.53856L22.1885 4.51189L22 4.48801L21.8115 4.51189L5.81151 6.53856L4.5 6.70468V8.02667V32.9867V34.0886L5.5515 34.4181L21.5515 39.4314L22 39.5719L22.4485 39.4314L38.4485 34.4181L39.5 34.0886V32.9867V8.02667Z" fill="#48246E" stroke="white" stroke-width="3"/>
<path d="M22 9L35 10.6318V30.8661L22 35V9Z" fill="#7C5C9D"/>
<path d="M14.573 12.0039L21.0278 12C21.6555 12.0204 22.2864 12.2695 22.7617 12.7463L31.2497 21.2336C32.249 22.232 32.2506 23.8857 31.2513 24.8857L24.8853 31.2504C23.8844 32.2512 22.2306 32.2488 21.2328 31.2496L12.7456 22.7623C12.2671 22.2855 12.0212 21.6594 12 21.0301V14.5751C12.0016 13.1619 13.1604 12.0039 14.573 12.0039ZM16.7138 19.0701C18.0148 19.0701 19.0707 18.0151 19.0707 16.7134C19.0707 15.4117 18.0148 14.3567 16.7138 14.3567C15.4112 14.3567 14.3569 15.4117 14.3569 16.7134C14.3569 18.0151 15.4112 19.0701 16.7138 19.0701Z" fill="white"/>
</svg>
