<svg width="44" height="44" viewBox="0 0 44 44" fill="none" xmlns="http://www.w3.org/2000/svg">
<path d="M39.5 8.02667V6.70468L38.1885 6.53856L22.1885 4.51189L22 4.48801L21.8115 4.51189L5.81151 6.53856L4.5 6.70468V8.02667V32.9867V34.0886L5.5515 34.4181L21.5515 39.4314L22 39.5719L22.4485 39.4314L38.4485 34.4181L39.5 34.0886V32.9867V8.02667Z" fill="#48246E" stroke="white" stroke-width="3"/>
<path d="M22 9L35 10.6318V30.8661L22 35V9Z" fill="#7C5C9D"/>
<circle cx="18" cy="20" r="1" fill="white"/>
<circle cx="22" cy="20" r="1" fill="white"/>
<circle cx="26" cy="20" r="1" fill="white"/>
<path d="M28.6667 14.5C29.1263 14.5 29.5 14.8738 29.5 15.3333V24.5C29.5 24.9596 29.1263 25.3333 28.6667 25.3333H22H21.466L21.0315 25.6438L17.8333 27.9279V27V25.3333H16.1667H15.3333C14.8738 25.3333 14.5 24.9596 14.5 24.5V15.3333C14.5 14.8738 14.8738 14.5 15.3333 14.5H28.6667ZM28.6667 12.8333H15.3333C13.9527 12.8333 12.8333 13.9527 12.8333 15.3333V24.5C12.8333 25.8806 13.9527 27 15.3333 27H16.1667V31.1667L22 27H28.6667C30.0473 27 31.1667 25.8806 31.1667 24.5V15.3333C31.1667 13.9527 30.0473 12.8333 28.6667 12.8333Z" fill="white"/>
</svg>
