<svg width="44" height="44" viewBox="0 0 44 44" fill="none" xmlns="http://www.w3.org/2000/svg">
<circle cx="22" cy="22" r="19" fill="white"/>
<circle cx="22" cy="22" r="16" fill="#002659"/>
<circle cx="22" cy="22" r="12" fill="#1F6ACA"/>
<path d="M15.5664 24.166C15.5664 22.707 15.9121 21.5352 16.6035 20.6504C17.2949 19.7598 18.2002 19.3145 19.3193 19.3145C20.4326 19.3145 21.3145 19.6953 21.9648 20.457V15.5H23.5908V29H22.0967L22.0176 27.9805C21.3672 28.7773 20.4619 29.1758 19.3018 29.1758C18.2002 29.1758 17.3008 28.7246 16.6035 27.8223C15.9121 26.9199 15.5664 25.7422 15.5664 24.2891V24.166ZM17.1924 24.3506C17.1924 25.4287 17.415 26.2725 17.8604 26.8818C18.3057 27.4912 18.9209 27.7959 19.7061 27.7959C20.7373 27.7959 21.4902 27.333 21.9648 26.4072V22.0391C21.4785 21.1426 20.7314 20.6943 19.7236 20.6943C18.9268 20.6943 18.3057 21.002 17.8604 21.6172C17.415 22.2324 17.1924 23.1436 17.1924 24.3506ZM27.8887 29H26.2627V15.5H27.8887V29Z" fill="white"/>
</svg>
