<svg width="44" height="44" viewBox="0 0 44 44" fill="none" xmlns="http://www.w3.org/2000/svg">
<circle cx="22" cy="22" r="19" fill="white"/>
<circle cx="22" cy="22" r="16" fill="#002659"/>
<circle cx="22" cy="22" r="12" fill="#1F6ACA"/>
<path d="M15.7457 20.6416C16.4664 19.7568 17.4039 19.3145 18.5582 19.3145C20.568 19.3145 21.5816 20.4482 21.5992 22.7158V29H19.9732V22.707C19.9674 22.0215 19.8092 21.5146 19.4986 21.1865C19.1939 20.8584 18.7164 20.6943 18.066 20.6943C17.5387 20.6943 17.0758 20.835 16.6773 21.1162C16.2789 21.3975 15.9684 21.7666 15.7457 22.2236V29H14.1197V15.5H15.7457V20.6416ZM28.3105 29H26.6758V18.1631L23.3975 19.3672V17.8906L28.0557 16.1416H28.3105V29Z" fill="white"/>
</svg>
