<svg width="44" height="44" viewBox="0 0 44 44" fill="none" xmlns="http://www.w3.org/2000/svg">
<circle cx="22" cy="22" r="19" fill="white"/>
<circle cx="22" cy="22" r="16" fill="#002659"/>
<circle cx="22" cy="22" r="12" fill="#1F6ACA"/>
<path d="M15.7457 20.6416C16.4664 19.7568 17.4039 19.3145 18.5582 19.3145C20.568 19.3145 21.5816 20.4482 21.5992 22.7158V29H19.9732V22.707C19.9674 22.0215 19.8092 21.5146 19.4986 21.1865C19.1939 20.8584 18.7164 20.6943 18.066 20.6943C17.5387 20.6943 17.0758 20.835 16.6773 21.1162C16.2789 21.3975 15.9684 21.7666 15.7457 22.2236V29H14.1197V15.5H15.7457V20.6416ZM31.3516 29H22.9668V27.8311L27.3965 22.9092C28.0527 22.165 28.5039 21.5615 28.75 21.0986C29.002 20.6299 29.1279 20.1465 29.1279 19.6484C29.1279 18.9805 28.9258 18.4326 28.5215 18.0049C28.1172 17.5771 27.5781 17.3633 26.9043 17.3633C26.0957 17.3633 25.4658 17.5947 25.0146 18.0576C24.5693 18.5146 24.3467 19.1533 24.3467 19.9736H22.7207C22.7207 18.7959 23.0986 17.8438 23.8545 17.1172C24.6162 16.3906 25.6328 16.0273 26.9043 16.0273C28.0938 16.0273 29.0342 16.3408 29.7256 16.9678C30.417 17.5889 30.7627 18.418 30.7627 19.4551C30.7627 20.7148 29.96 22.2148 28.3545 23.9551L24.9268 27.6729H31.3516V29Z" fill="white"/>
</svg>
