<svg width="44" height="44" viewBox="0 0 44 44" fill="none" xmlns="http://www.w3.org/2000/svg">
<circle cx="22" cy="22" r="19" fill="white"/>
<circle cx="22" cy="22" r="16" fill="#002659"/>
<circle cx="22" cy="22" r="12" fill="#1F6ACA"/>
<path d="M15.7457 20.6416C16.4664 19.7568 17.4039 19.3145 18.5582 19.3145C20.568 19.3145 21.5816 20.4482 21.5992 22.7158V29H19.9732V22.707C19.9674 22.0215 19.8092 21.5146 19.4986 21.1865C19.1939 20.8584 18.7164 20.6943 18.066 20.6943C17.5387 20.6943 17.0758 20.835 16.6773 21.1162C16.2789 21.3975 15.9684 21.7666 15.7457 22.2236V29H14.1197V15.5H15.7457V20.6416ZM25.3311 21.8105H26.5527C27.3203 21.7988 27.9238 21.5967 28.3633 21.2041C28.8027 20.8115 29.0225 20.2812 29.0225 19.6133C29.0225 18.1133 28.2754 17.3633 26.7812 17.3633C26.0781 17.3633 25.5156 17.5654 25.0938 17.9697C24.6777 18.3682 24.4697 18.8984 24.4697 19.5605H22.8438C22.8438 18.5469 23.2129 17.7061 23.9512 17.0381C24.6953 16.3643 25.6387 16.0273 26.7812 16.0273C27.9883 16.0273 28.9346 16.3467 29.6201 16.9854C30.3057 17.624 30.6484 18.5117 30.6484 19.6484C30.6484 20.2051 30.4668 20.7441 30.1035 21.2656C29.7461 21.7871 29.2568 22.1768 28.6357 22.4346C29.3389 22.6572 29.8809 23.0264 30.2617 23.542C30.6484 24.0576 30.8418 24.6875 30.8418 25.4316C30.8418 26.5801 30.4668 27.4912 29.7168 28.165C28.9668 28.8389 27.9912 29.1758 26.79 29.1758C25.5889 29.1758 24.6104 28.8506 23.8545 28.2002C23.1045 27.5498 22.7295 26.6914 22.7295 25.625H24.3643C24.3643 26.2988 24.584 26.8379 25.0234 27.2422C25.4629 27.6465 26.0518 27.8486 26.79 27.8486C27.5752 27.8486 28.1758 27.6436 28.5918 27.2334C29.0078 26.8232 29.2158 26.2344 29.2158 25.4668C29.2158 24.7227 28.9873 24.1514 28.5303 23.7529C28.0732 23.3545 27.4141 23.1494 26.5527 23.1377H25.3311V21.8105Z" fill="white"/>
</svg>
