<svg width="44" height="44" viewBox="0 0 44 44" fill="none" xmlns="http://www.w3.org/2000/svg">
<circle cx="22" cy="22" r="19" fill="white"/>
<circle cx="22" cy="22" r="16" fill="#002659"/>
<circle cx="22" cy="22" r="12" fill="#1F6ACA"/>
<path d="M15.7457 20.6416C16.4664 19.7568 17.4039 19.3145 18.5582 19.3145C20.568 19.3145 21.5816 20.4482 21.5992 22.7158V29H19.9732V22.707C19.9674 22.0215 19.8092 21.5146 19.4986 21.1865C19.1939 20.8584 18.7164 20.6943 18.066 20.6943C17.5387 20.6943 17.0758 20.835 16.6773 21.1162C16.2789 21.3975 15.9684 21.7666 15.7457 22.2236V29H14.1197V15.5H15.7457V20.6416ZM23.7139 22.584L24.3643 16.2031H30.9209V17.7061H25.7441L25.3574 21.1953C25.9844 20.8262 26.6963 20.6416 27.4932 20.6416C28.6592 20.6416 29.585 21.0283 30.2705 21.8018C30.9561 22.5693 31.2988 23.6094 31.2988 24.9219C31.2988 26.2402 30.9414 27.2803 30.2266 28.042C29.5176 28.7979 28.5244 29.1758 27.2471 29.1758C26.1162 29.1758 25.1934 28.8623 24.4785 28.2354C23.7637 27.6084 23.3564 26.7412 23.2568 25.6338H24.7949C24.8945 26.3662 25.1553 26.9199 25.5771 27.2949C25.999 27.6641 26.5557 27.8486 27.2471 27.8486C28.0029 27.8486 28.5947 27.5908 29.0225 27.0752C29.4561 26.5596 29.6729 25.8477 29.6729 24.9395C29.6729 24.084 29.4385 23.3984 28.9697 22.8828C28.5068 22.3613 27.8887 22.1006 27.1152 22.1006C26.4062 22.1006 25.8496 22.2559 25.4453 22.5664L25.0146 22.918L23.7139 22.584Z" fill="white"/>
</svg>
