<svg width="44" height="44" viewBox="0 0 44 44" fill="none" xmlns="http://www.w3.org/2000/svg">
<circle cx="22" cy="22" r="19" fill="white"/>
<circle cx="22" cy="22" r="16" fill="#002659"/>
<circle cx="22" cy="22" r="12" fill="#1F6ACA"/>
<path d="M15.7457 20.6416C16.4664 19.7568 17.4039 19.3145 18.5582 19.3145C20.568 19.3145 21.5816 20.4482 21.5992 22.7158V29H19.9732V22.707C19.9674 22.0215 19.8092 21.5146 19.4986 21.1865C19.1939 20.8584 18.7164 20.6943 18.066 20.6943C17.5387 20.6943 17.0758 20.835 16.6773 21.1162C16.2789 21.3975 15.9684 21.7666 15.7457 22.2236V29H14.1197V15.5H15.7457V20.6416ZM29.3477 16.1943V17.5742H29.0488C27.7832 17.5977 26.7754 17.9727 26.0254 18.6992C25.2754 19.4258 24.8418 20.4482 24.7246 21.7666C25.3984 20.9932 26.3184 20.6064 27.4844 20.6064C28.5977 20.6064 29.4854 20.999 30.1475 21.7842C30.8154 22.5693 31.1494 23.583 31.1494 24.8252C31.1494 26.1436 30.7891 27.1982 30.0684 27.9893C29.3535 28.7803 28.3926 29.1758 27.1855 29.1758C25.9609 29.1758 24.9678 28.707 24.2061 27.7695C23.4443 26.8262 23.0635 25.6133 23.0635 24.1309V23.5068C23.0635 21.1514 23.5645 19.3525 24.5664 18.1104C25.5742 16.8623 27.0713 16.2236 29.0576 16.1943H29.3477ZM27.2119 21.96C26.6553 21.96 26.1426 22.127 25.6738 22.4609C25.2051 22.7949 24.8799 23.2139 24.6982 23.7178V24.3154C24.6982 25.3701 24.9355 26.2197 25.4102 26.8643C25.8848 27.5088 26.4766 27.8311 27.1855 27.8311C27.918 27.8311 28.4922 27.5615 28.9082 27.0225C29.3301 26.4834 29.541 25.7773 29.541 24.9043C29.541 24.0254 29.3271 23.3164 28.8994 22.7773C28.4775 22.2324 27.915 21.96 27.2119 21.96Z" fill="white"/>
</svg>
