<svg width="44" height="44" viewBox="0 0 44 44" fill="none" xmlns="http://www.w3.org/2000/svg">
<rect x="3" y="3" width="38" height="38" rx="8" fill="white"/>
<rect x="6" y="6" width="32" height="32" rx="5" fill="#004C26"/>
<path d="M10 33.2164V10.8761C10 10.438 10.4384 10 10.8767 10H33.1233C33.6712 10 34 10.438 34 10.8761V33.1069C34 33.6544 33.5616 33.983 33.1233 33.983H10.9997C10.918 33.983 10.8367 33.9974 10.755 33.9998C10.3608 34.0112 10 33.6138 10 33.2164Z" fill="#157846"/>
<path d="M14.573 12.0039L21.0278 12C21.6555 12.0204 22.2864 12.2695 22.7617 12.7463L31.2497 21.2336C32.249 22.232 32.2506 23.8857 31.2513 24.8857L24.8853 31.2504C23.8844 32.2512 22.2306 32.2488 21.2328 31.2496L12.7456 22.7623C12.2671 22.2855 12.0212 21.6594 12 21.0301V14.5751C12.0016 13.1619 13.1604 12.0039 14.573 12.0039ZM16.7138 19.0701C18.0148 19.0701 19.0707 18.0151 19.0707 16.7134C19.0707 15.4117 18.0148 14.3567 16.7138 14.3567C15.4112 14.3567 14.3569 15.4117 14.3569 16.7134C14.3569 18.0151 15.4112 19.0701 16.7138 19.0701Z" fill="white"/>
</svg>
