<svg width="44" height="44" viewBox="0 0 44 44" fill="none" xmlns="http://www.w3.org/2000/svg">
<rect x="3" y="3" width="38" height="38" rx="8" fill="white"/>
<rect x="6" y="6" width="32" height="32" rx="5" fill="#004C26"/>
<path d="M10 33.2164V10.8761C10 10.438 10.4384 10 10.8767 10H33.1233C33.6712 10 34 10.438 34 10.8761V33.1069C34 33.6544 33.5616 33.983 33.1233 33.983H10.9997C10.918 33.983 10.8367 33.9974 10.755 33.9998C10.3608 34.0112 10 33.6138 10 33.2164Z" fill="#157846"/>
<path d="M26.905 24.25C26.995 23.5075 27.0625 22.765 27.0625 22C27.0625 21.235 26.995 20.4925 26.905 19.75H30.7075C30.8875 20.47 31 21.2238 31 22C31 22.7762 30.8875 23.53 30.7075 24.25H26.905ZM24.9138 30.505C25.5888 29.2562 26.1063 27.9062 26.4663 26.5H29.785C28.705 28.3562 26.9838 29.7962 24.9138 30.505ZM24.6325 24.25H19.3675C19.255 23.5075 19.1875 22.765 19.1875 22C19.1875 21.235 19.255 20.4812 19.3675 19.75H24.6325C24.7338 20.4812 24.8125 21.235 24.8125 22C24.8125 22.765 24.7338 23.5075 24.6325 24.25ZM22 30.955C21.0663 29.605 20.3125 28.1087 19.8513 26.5H24.1487C23.6875 28.1087 22.9337 29.605 22 30.955ZM17.5 17.5H14.215C15.2837 15.6325 17.0162 14.1925 19.075 13.495C18.4 14.7438 17.8937 16.0938 17.5 17.5ZM14.215 26.5H17.5C17.8937 27.9062 18.4 29.2562 19.075 30.505C17.0162 29.7962 15.2837 28.3562 14.215 26.5ZM13.2925 24.25C13.1125 23.53 13 22.7762 13 22C13 21.2238 13.1125 20.47 13.2925 19.75H17.095C17.005 20.4925 16.9375 21.235 16.9375 22C16.9375 22.765 17.005 23.5075 17.095 24.25H13.2925ZM22 13.0338C22.9337 14.3838 23.6875 15.8913 24.1487 17.5H19.8513C20.3125 15.8913 21.0663 14.3838 22 13.0338ZM29.785 17.5H26.4663C26.1063 16.0938 25.5888 14.7438 24.9138 13.495C26.9838 14.2038 28.705 15.6325 29.785 17.5ZM22 10.75C15.7787 10.75 10.75 15.8125 10.75 22C10.75 24.9837 11.9353 27.8452 14.045 29.955C15.0897 30.9996 16.3299 31.8283 17.6948 32.3936C19.0597 32.959 20.5226 33.25 22 33.25C24.9837 33.25 27.8452 32.0647 29.955 29.955C32.0647 27.8452 33.25 24.9837 33.25 22C33.25 20.5226 32.959 19.0597 32.3936 17.6948C31.8283 16.3299 30.9996 15.0897 29.955 14.045C28.9103 13.0004 27.6701 12.1717 26.3052 11.6064C24.9403 11.041 23.4774 10.75 22 10.75V10.75Z" fill="white"/>
</svg>
