<svg width="44" height="44" viewBox="0 0 44 44" fill="none" xmlns="http://www.w3.org/2000/svg">
<rect x="3" y="3" width="38" height="38" rx="8" fill="white"/>
<rect x="6" y="6" width="32" height="32" rx="5" fill="#004C26"/>
<path d="M10 33.2164V10.8761C10 10.438 10.4384 10 10.8767 10H33.1233C33.6712 10 34 10.438 34 10.8761V33.1069C34 33.6544 33.5616 33.983 33.1233 33.983H10.9997C10.918 33.983 10.8367 33.9974 10.755 33.9998C10.3608 34.0112 10 33.6138 10 33.2164Z" fill="#157846"/>
<path d="M11.4757 16.7353C13.6988 14.8545 18.5972 12.0581 24.1427 17.6036L26.1509 15.5954C26.2249 15.5282 26.3154 15.4819 26.4131 15.4614C26.5109 15.4408 26.6124 15.4466 26.7072 15.4783C26.8021 15.5099 26.8868 15.5663 26.9527 15.6415C27.0186 15.7167 27.0632 15.8081 27.0821 15.9062L28.3582 24.8055C28.3785 24.9408 28.3668 25.079 28.324 25.2089C28.2813 25.3387 28.2086 25.4568 28.1119 25.5534C28.0153 25.6501 27.8973 25.7227 27.7674 25.7655C27.6375 25.8083 27.4993 25.82 27.364 25.7997L18.4687 24.5197C18.3706 24.5008 18.2792 24.4561 18.204 24.3902C18.1287 24.3243 18.0724 24.2396 18.0408 24.1448C18.0091 24.0499 18.0033 23.9484 18.0238 23.8506C18.0444 23.7529 18.0907 23.6624 18.1579 23.5884L20.1661 21.5802C20.1661 21.5802 17.2055 17.3074 11.8861 17.7183C11.769 17.7259 11.6524 17.6967 11.5526 17.6348C11.4529 17.5729 11.3749 17.4814 11.3297 17.3731C11.2845 17.2647 11.2743 17.145 11.3004 17.0307C11.3266 16.9163 11.3879 16.813 11.4757 16.7353V16.7353Z" fill="white"/>
<path d="M32.0421 32.5833L30.0702 30.6333L28.0983 32.5833L27.3314 31.825L29.3033 29.875L27.3314 27.925L28.0983 27.1666L30.0702 29.1166L32.0421 27.1666L32.8089 27.925L30.837 29.875L32.8089 31.825L32.0421 32.5833Z" fill="white"/>
</svg>
