<svg width="44" height="44" viewBox="0 0 44 44" fill="none" xmlns="http://www.w3.org/2000/svg">
<rect x="3" y="3" width="38" height="38" rx="8" fill="white"/>
<rect x="6" y="6" width="32" height="32" rx="5" fill="#004C26"/>
<path d="M10 33.2164V10.8761C10 10.438 10.4384 10 10.8767 10H33.1233C33.6712 10 34 10.438 34 10.8761V33.1069C34 33.6544 33.5616 33.983 33.1233 33.983H10.9997C10.918 33.983 10.8367 33.9974 10.755 33.9998C10.3608 34.0112 10 33.6138 10 33.2164Z" fill="#157846"/>
<path d="M13.4757 18.7353C15.6988 16.8545 20.5972 14.0581 26.1427 19.6036L28.1509 17.5954C28.2249 17.5282 28.3154 17.4819 28.4131 17.4614C28.5109 17.4408 28.6124 17.4466 28.7072 17.4783C28.8021 17.5099 28.8868 17.5663 28.9527 17.6415C29.0186 17.7167 29.0632 17.8081 29.0821 17.9062L30.3582 26.8055C30.3785 26.9408 30.3668 27.079 30.324 27.2089C30.2813 27.3387 30.2086 27.4568 30.1119 27.5534C30.0153 27.6501 29.8973 27.7227 29.7674 27.7655C29.6375 27.8083 29.4993 27.82 29.364 27.7997L20.4687 26.5197C20.3706 26.5008 20.2792 26.4561 20.204 26.3902C20.1287 26.3243 20.0724 26.2396 20.0408 26.1448C20.0091 26.0499 20.0033 25.9484 20.0238 25.8506C20.0444 25.7529 20.0907 25.6624 20.1579 25.5884L22.1661 23.5802C22.1661 23.5802 19.2055 19.3074 13.8861 19.7183C13.769 19.7259 13.6524 19.6967 13.5526 19.6348C13.4529 19.5729 13.3749 19.4814 13.3297 19.3731C13.2845 19.2647 13.2743 19.145 13.3004 19.0307C13.3266 18.9163 13.3879 18.813 13.4757 18.7353V18.7353Z" fill="white"/>
</svg>
