<svg width="44" height="44" viewBox="0 0 44 44" fill="none" xmlns="http://www.w3.org/2000/svg">
<circle cx="22" cy="22" r="19" fill="white"/>
<circle cx="22" cy="22" r="16" fill="#002659"/>
<circle cx="22" cy="22" r="12" fill="#1F6ACA"/>
<path d="M18.3636 23.1429H30V20.8571H18.3636V23.1429ZM18.3636 29.2381H30V26.9524H18.3636V29.2381ZM18.3636 17.0476H30V14.7619H18.3636V17.0476ZM14 20.8571H15.3091L14 23.219V23.9048H16.1818V23.1429H14.8727L16.1818 20.781V20.0952H14V20.8571ZM14.7273 17.8095H15.4545V14H14V14.7619H14.7273V17.8095ZM14 26.9524H15.4545V27.7143H14.7273V28.4762H15.4545V29.2381H14V30H16.1818V26.1905H14V26.9524Z" fill="white"/>
</svg>
