<svg width="44" height="44" viewBox="0 0 44 44" fill="none" xmlns="http://www.w3.org/2000/svg">
<circle cx="22" cy="22" r="19" fill="white"/>
<circle cx="22" cy="22" r="16" fill="#002659"/>
<circle cx="22" cy="22" r="12" fill="#1F6ACA"/>
<rect opacity="0.5" width="6" height="4" transform="matrix(-1 0 0 1 32 20)" fill="white"/>
<rect opacity="0.5" width="6" height="4" transform="matrix(-1 0 0 1 25 20)" fill="white"/>
<rect opacity="0.5" width="6" height="4" transform="matrix(-1 0 0 1 18 20)" fill="white"/>
<rect opacity="0.5" width="6" height="4" transform="matrix(-1 0 0 1 32 25)" fill="white"/>
<rect opacity="0.5" width="6" height="4" transform="matrix(-1 0 0 1 25 25)" fill="white"/>
<rect opacity="0.5" width="6" height="4" transform="matrix(-1 0 0 1 18 25)" fill="white"/>
<rect opacity="0.5" width="6" height="4" transform="matrix(-1 0 0 1 32 15)" fill="white"/>
<rect opacity="0.5" width="6" height="4" transform="matrix(-1 0 0 1 25 15)" fill="white"/>
<rect opacity="0.5" width="6" height="4" transform="matrix(-1 0 0 1 18 15)" fill="white"/>
</svg>
