<svg width="44" height="44" viewBox="0 0 44 44" fill="none" xmlns="http://www.w3.org/2000/svg">
<circle cx="22" cy="22" r="19" fill="white"/>
<circle cx="22" cy="22" r="16" fill="#002659"/>
<circle cx="22" cy="22" r="12" fill="#1F6ACA"/>
<rect opacity="0.5" width="5.30636" height="3.53757" transform="matrix(-1 0 0 1 31 21.578)" fill="white"/>
<rect opacity="0.8" width="5.30636" height="3.53757" transform="matrix(-1 0 0 1 18.3064 21.578)" fill="white"/>
<rect opacity="0.5" width="5.30636" height="3.53757" transform="matrix(-1 0 0 1 24.6532 21.578)" fill="white"/>
<rect opacity="0.5" width="5.30636" height="3.53757" transform="matrix(-1 0 0 1 31 26.1561)" fill="white"/>
<rect opacity="0.5" width="5.30636" height="3.53757" transform="matrix(-1 0 0 1 24.6532 26.1561)" fill="white"/>
<rect opacity="0.8" width="5.30636" height="3.53757" transform="matrix(-1 0 0 1 18.3064 26.1561)" fill="white"/>
<rect opacity="0.5" width="5.30636" height="3.53757" transform="matrix(-1 0 0 1 31 17)" fill="white"/>
<rect opacity="0.5" width="5.30636" height="3.53757" transform="matrix(-1 0 0 1 24.6532 17)" fill="white"/>
<rect width="5.30636" height="3.53757" transform="matrix(-1 0 0 1 18.3064 17)" fill="white"/>
<rect x="12" y="15" width="7" height="0.875" fill="white"/>
<rect x="12" y="15.875" width="0.875" height="0.875" fill="white"/>
<rect x="18.125" y="15.875" width="0.875" height="0.875" fill="white"/>
</svg>
