<svg width="44" height="44" viewBox="0 0 44 44" fill="none" xmlns="http://www.w3.org/2000/svg">
<circle cx="22" cy="22" r="19" fill="white"/>
<circle cx="22" cy="22" r="16" fill="#002659"/>
<circle cx="22" cy="22" r="12" fill="#1F6ACA"/>
<rect opacity="0.5" width="5.30636" height="3.53757" transform="matrix(-1 0 0 1 32 20.578)" fill="white"/>
<rect opacity="0.5" width="5.30636" height="3.53757" transform="matrix(-1 0 0 1 19.3064 20.578)" fill="white"/>
<rect opacity="0.5" width="5.30636" height="3.53757" transform="matrix(-1 0 0 1 25.6532 20.578)" fill="white"/>
<rect opacity="0.5" width="5.30636" height="3.53757" transform="matrix(-1 0 0 1 32 25.1561)" fill="white"/>
<rect opacity="0.5" width="5.30636" height="3.53757" transform="matrix(-1 0 0 1 25.6532 25.1561)" fill="white"/>
<rect opacity="0.5" width="5.30636" height="3.53757" transform="matrix(-1 0 0 1 19.3064 25.1561)" fill="white"/>
<rect opacity="0.8" width="5.30636" height="3.53757" transform="matrix(-1 0 0 1 32 16)" fill="white"/>
<rect opacity="0.8" width="5.30636" height="3.53757" transform="matrix(-1 0 0 1 25.6532 16)" fill="white"/>
<rect width="5.30636" height="3.53757" transform="matrix(-1 0 0 1 19.3064 16)" fill="white"/>
<rect x="11" y="15" width="1" height="5" fill="white"/>
<rect x="12" y="15" width="1" height="1" fill="white"/>
<rect x="12" y="19" width="1" height="1" fill="white"/>
</svg>
