<svg width="44" height="44" viewBox="0 0 44 44" fill="none" xmlns="http://www.w3.org/2000/svg">
<rect x="3" y="3" width="38" height="38" rx="8" fill="white"/>
<rect x="6" y="6" width="32" height="32" rx="5" fill="#800000"/>
<path opacity="0.6" d="M10 33.2164V10.8761C10 10.438 10.4384 10 10.8767 10H33.1233C33.6712 10 34 10.438 34 10.8761V33.1069C34 33.6544 33.5616 33.983 33.1233 33.983H10.9997C10.918 33.983 10.8367 33.9974 10.755 33.9998C10.3608 34.0112 10 33.6138 10 33.2164Z" fill="#FF3333"/>
<path d="M10.8767 10C10.4384 10 10 10.4465 10 10.893V31L15.8447 25.0465L19.863 29.1395L27.169 21.6977L34 28.6558V10.893C34 10.4465 33.6712 10 33.1233 10H10.8767Z" fill="white" fill-opacity="0.5"/>
<path d="M20.5577 16.8032C20.5683 17.2274 20.2289 17.5668 19.8046 17.5562C19.391 17.5562 19.0516 17.2168 19.0516 16.8032C19.0516 14.7349 20.7327 13.0537 22.801 13.0537L26.5557 13.0537C28.624 13.0537 30.3052 14.7349 30.3052 16.8032C30.3052 18.8714 28.624 20.5526 26.5557 20.5526H24.9753C25.4155 20.123 25.7814 19.6192 26.0466 19.0571L26.5504 19.0518C27.7967 19.0571 28.8043 18.0494 28.799 16.8032C28.8043 15.5569 27.7967 14.5492 26.5504 14.5546L22.8063 14.5546C21.56 14.5492 20.5524 15.5569 20.5577 16.8032ZM24.3018 16.0501C24.7155 16.0501 25.0549 16.3895 25.0549 16.8032C25.0549 18.8714 23.3737 20.5526 21.3055 20.5526L17.5507 20.5526C15.4824 20.5526 13.8013 18.8714 13.8013 16.8032C13.8013 14.7349 15.4824 13.0537 17.5507 13.0537L19.1311 13.0537C18.6909 13.4833 18.325 13.9871 18.0545 14.5546L17.556 14.5546C16.3097 14.5492 15.3021 15.5569 15.3074 16.8032C15.3021 18.0494 16.3097 19.0571 17.556 19.0518L21.3002 19.0518C22.5464 19.0571 23.5541 18.0494 23.5488 16.8032C23.5381 16.3789 23.8776 16.0395 24.3018 16.0501Z" fill="#A00D0D"/>
<rect x="28" y="28" width="13" height="13" rx="3" fill="black"/>
<path d="M37.0562 38.1111L34.427 35.5111L31.7978 38.1111L30.7753 37.1L33.4045 34.5L30.7753 31.9L31.7978 30.8889L34.427 33.4889L37.0562 30.8889L38.0787 31.9L35.4495 34.5L38.0787 37.1L37.0562 38.1111Z" fill="white"/>
</svg>
