<svg width="44" height="44" viewBox="0 0 44 44" fill="none" xmlns="http://www.w3.org/2000/svg">
<rect x="3" y="3" width="38" height="38" rx="8" fill="white"/>
<rect x="6" y="6" width="32" height="32" rx="5" fill="#800000"/>
<path opacity="0.6" d="M10 33.2164V10.8761C10 10.438 10.4384 10 10.8767 10H33.1233C33.6712 10 34 10.438 34 10.8761V33.1069C34 33.6544 33.5616 33.983 33.1233 33.983H10.9997C10.918 33.983 10.8367 33.9974 10.755 33.9998C10.3608 34.0112 10 33.6138 10 33.2164Z" fill="#FF3333"/>
<path d="M17.4251 27.8827L17.5639 29.3763L24.2849 28.7516L24.1461 27.2581L17.4251 27.8827Z" fill="white"/>
<path d="M17.7225 13.1598L17.535 14.648L26.4645 15.7729L26.6519 14.2847L17.7225 13.1598Z" fill="white"/>
<path d="M13.75 31H18.25V26.5H13.75V31ZM16.75 28V29.5H15.25V28H16.75Z" fill="white"/>
<path d="M13.75 16H18.25V11.5H13.75L13.75 16ZM16.75 13V14.5H15.25V13H16.75Z" fill="white"/>
<path d="M23.5 30.25L28 30.25V25.75L23.5 25.75V30.25ZM26.5 27.25V28.75H25V27.25H26.5Z" fill="white"/>
<path d="M25.75 17.5L30.25 17.5V13H25.75L25.75 17.5ZM28.75 14.5V16L27.25 16V14.5H28.75Z" fill="white"/>
<path d="M26.875 18.25L28.375 18.25L28.6308 17.0793L27.1898 16.6626L26.875 18.25Z" fill="white"/>
<path d="M15.25 18.25H16.75V15.25H15.25L15.25 18.25Z" fill="white"/>
<path d="M27.775 24.25H25.75L26.3125 19.75H29.125L27.775 24.25Z" fill="white"/>
<path d="M31.15 24.25H29.125L29.6875 19.75H32.5L31.15 24.25Z" fill="white"/>
<path d="M16.225 24.25H18.25L17.6875 19.75H14.875L16.225 24.25Z" fill="white"/>
<path d="M12.85 24.25H14.875L14.3125 19.75H11.5L12.85 24.25Z" fill="white"/>
<rect x="28" y="28" width="13" height="13" rx="3" fill="black"/>
<path d="M37.0562 38.1111L34.427 35.5111L31.7978 38.1111L30.7753 37.1L33.4045 34.5L30.7753 31.9L31.7978 30.8889L34.427 33.4889L37.0562 30.8889L38.0787 31.9L35.4495 34.5L38.0787 37.1L37.0562 38.1111Z" fill="white"/>
</svg>
