<svg width="44" height="44" viewBox="0 0 44 44" fill="none" xmlns="http://www.w3.org/2000/svg">
<rect x="3" y="3" width="38" height="38" rx="8" fill="white"/>
<rect x="6" y="6" width="32" height="32" rx="5" fill="#800000"/>
<path opacity="0.6" d="M10 33.2164V10.8761C10 10.438 10.4384 10 10.8767 10H33.1233C33.6712 10 34 10.438 34 10.8761V33.1069C34 33.6544 33.5616 33.983 33.1233 33.983H10.9997C10.918 33.983 10.8367 33.9974 10.755 33.9998C10.3608 34.0112 10 33.6138 10 33.2164Z" fill="#FF3333"/>
<path d="M26.5855 31.75H21.046C20.305 31.75 19.6105 31.387 19.189 30.7772L15.577 25.636C15.3618 25.3232 15.25 24.964 15.25 24.5912C15.25 23.893 15.6377 23.266 16.2625 22.9532C16.7762 22.6953 17.395 22.7673 17.836 23.14L19.7043 24.5553C19.7267 24.61 19.75 24.541 19.75 24.484L19.762 17.8615C19.762 16.8355 20.5975 16 21.625 16C22.6525 16 23.488 16.8355 23.488 17.863L23.4977 21.4262L23.4992 21.427L27.3092 22.4732C28.1223 22.6345 28.75 23.4002 28.75 24.2823L28.7395 24.5507L28.0825 30.385C28.0285 31.1372 27.37 31.75 26.5855 31.75ZM16.8992 24.3115C16.8205 24.352 16.75 24.4653 16.75 24.5912C16.75 24.6587 16.7703 24.7233 16.8085 24.7787L20.4197 29.9193C20.5637 30.1278 20.797 30.25 21.0468 30.25H26.5863L27.247 24.4135L27.25 24.2823C27.25 24.1128 27.13 23.9657 26.9635 23.9327L23.1025 22.8745C22.4545 22.6968 22.0008 22.1035 21.9985 21.4315L21.9887 17.8652C21.988 17.6628 21.8253 17.5 21.625 17.5C21.4247 17.5 21.262 17.6628 21.262 17.863L21.25 24.4855C21.25 25.0015 20.9987 25.6503 20.4362 25.9315C19.8843 26.2075 19.2257 26.125 18.7592 25.7192L16.8992 24.3115Z" fill="white"/>
<path d="M27.625 19.75H25.75C25.3353 19.75 25 19.414 25 19C25 18.586 25.3353 18.25 25.75 18.25H27.625C28.6592 18.25 29.5 17.4085 29.5 16.375C29.5 15.3415 28.6592 14.5 27.625 14.5H16.375C15.3415 14.5 14.5 15.3415 14.5 16.375C14.5 17.4085 15.3415 18.25 16.375 18.25H17.5C17.914 18.25 18.25 18.586 18.25 19C18.25 19.414 17.914 19.75 17.5 19.75H16.375C14.5143 19.75 13 18.2357 13 16.375C13 14.5143 14.5143 13 16.375 13H27.625C29.4857 13 31 14.5143 31 16.375C31 18.2357 29.4857 19.75 27.625 19.75Z" fill="white"/>
<rect x="28" y="28" width="13" height="13" rx="3" fill="black"/>
<path d="M37.0562 38.1111L34.427 35.5111L31.7978 38.1111L30.7753 37.1L33.4045 34.5L30.7753 31.9L31.7978 30.8889L34.427 33.4889L37.0562 30.8889L38.0787 31.9L35.4495 34.5L38.0787 37.1L37.0562 38.1111Z" fill="white"/>
<path d="M10.8767 10C10.4384 10 10 10.4465 10 10.893V31L15.8447 25.0465L19.863 29.1395L27.169 21.6977L34 28.6558V10.893C34 10.4465 33.6712 10 33.1233 10H10.8767Z" fill="white" fill-opacity="0.5"/>
</svg>
