<svg width="44" height="44" viewBox="0 0 44 44" fill="none" xmlns="http://www.w3.org/2000/svg">
<mask id="mask0" mask-type="alpha" maskUnits="userSpaceOnUse" x="3" y="3" width="38" height="38">
<path d="M3 35V6L20 3.5L19 11H21.5L20.5 15.5L24.5 9H22L24 3.5L41 6V35.5L22 41L3 35Z" fill="#CCCCCC"/>
</mask>
<g mask="url(#mask0)">
<path d="M39.5 8.02667V6.70468L38.1885 6.53856L22.1885 4.51189L22 4.48801L21.8115 4.51189L5.81151 6.53856L4.5 6.70468V8.02667V32.9867V34.0886L5.5515 34.4181L21.5515 39.4314L22 39.5719L22.4485 39.4314L38.4485 34.4181L39.5 34.0886V32.9867V8.02667Z" fill="#800000" stroke="white" stroke-width="3"/>
<path opacity="0.6" d="M22 9L35 10.6318V30.8661L22 35V9Z" fill="#FF3333"/>
</g>
<path d="M16.5129 23.2699H13.5344L12.8655 25.1253H11.8987L14.6135 18.016H15.4338L18.1536 25.1253H17.1917L16.5129 23.2699ZM13.8176 22.4984H16.2346L15.0237 19.1732L13.8176 22.4984ZM21.718 22.2494H20.0481V25.1253H19.1057V18.016H21.4592C22.26 18.016 22.8752 18.1983 23.3049 18.5628C23.7379 18.9274 23.9543 19.458 23.9543 20.1546C23.9543 20.5973 23.8339 20.9831 23.593 21.3119C23.3554 21.6406 23.0234 21.8864 22.5969 22.0492L24.2668 25.0667V25.1253H23.261L21.718 22.2494ZM20.0481 21.4828H21.4885C21.954 21.4828 22.3235 21.3623 22.5969 21.1214C22.8736 20.8805 23.012 20.5583 23.012 20.1546C23.012 19.7152 22.8801 19.3783 22.6165 19.1439C22.356 18.9095 21.9784 18.7907 21.4836 18.7874H20.0481V21.4828ZM26.2786 25.1253H25.3411V18.016H26.2786V25.1253ZM32.011 23.2699H29.0325L28.3635 25.1253H27.3967L30.1116 18.016H30.9319L33.6516 25.1253H32.6897L32.011 23.2699ZM29.3157 22.4984H31.7327L30.5217 19.1732L29.3157 22.4984Z" fill="white"/>
<rect x="28" y="28" width="13" height="13" rx="3" fill="black"/>
<path d="M37.0562 38.1111L34.427 35.5111L31.7978 38.1111L30.7753 37.1L33.4045 34.5L30.7753 31.9L31.7978 30.8889L34.427 33.4889L37.0562 30.8889L38.0787 31.9L35.4495 34.5L38.0787 37.1L37.0562 38.1111Z" fill="white"/>
</svg>
