<svg width="44" height="44" viewBox="0 0 44 44" fill="none" xmlns="http://www.w3.org/2000/svg">
<rect x="3" y="3" width="38" height="38" rx="8" fill="white"/>
<rect x="6" y="6" width="32" height="32" rx="5" fill="#800000"/>
<path opacity="0.6" d="M10 33.2164V10.8761C10 10.438 10.4384 10 10.8767 10H33.1233C33.6712 10 34 10.438 34 10.8761V33.1069C34 33.6544 33.5616 33.983 33.1233 33.983H10.9997C10.918 33.983 10.8367 33.9974 10.755 33.9998C10.3608 34.0112 10 33.6138 10 33.2164Z" fill="#FF3333"/>
<path d="M25 22.75V21.25H28.75V22.75H25ZM24.1225 18.82L26.245 16.6975L27.3025 17.755L25.18 19.8775L24.1225 18.82ZM21.25 25H22.75V28.75H21.25V25ZM21.25 15.25H22.75V19H21.25V15.25ZM16.6975 26.245L18.82 24.1225L19.8775 25.18L17.755 27.3025L16.6975 26.245ZM16.6975 17.755L17.755 16.6975L19.8775 18.82L18.82 19.8775L16.6975 17.755ZM19 22.75H15.25V21.25H19V22.75ZM27.3025 26.245L26.245 27.3025L24.1225 25.18L25.18 24.1225L27.3025 26.245Z" fill="white"/>
<rect x="28" y="28" width="13" height="13" rx="3" fill="black"/>
<path d="M37.0562 38.1111L34.427 35.5111L31.7978 38.1111L30.7753 37.1L33.4045 34.5L30.7753 31.9L31.7978 30.8889L34.427 33.4889L37.0562 30.8889L38.0787 31.9L35.4495 34.5L38.0787 37.1L37.0562 38.1111Z" fill="white"/>
</svg>
