<svg width="49" height="49" viewBox="0 0 49 49" fill="none" xmlns="http://www.w3.org/2000/svg">
<rect x="3" y="3" width="38" height="38" rx="8" fill="white"/>
<rect x="6" y="6" width="32" height="32" rx="5" fill="#800000"/>
<path opacity="0.6" d="M10 33.2164V10.8761C10 10.438 10.4384 10 10.8767 10H33.1233C33.6712 10 34 10.438 34 10.8761V33.1069C34 33.6544 33.5616 33.983 33.1233 33.983H10.9997C10.918 33.983 10.8367 33.9974 10.755 33.9998C10.3608 34.0112 10 33.6138 10 33.2164Z" fill="#FF3333"/>
<path opacity="0.7" d="M27.625 19.75H25.75C25.3352 19.75 25 19.414 25 19C25 18.586 25.3352 18.25 25.75 18.25H27.625C28.6593 18.25 29.5 17.4085 29.5 16.375C29.5 15.3415 28.6593 14.5 27.625 14.5H16.375C15.3415 14.5 14.5 15.3415 14.5 16.375C14.5 17.4085 15.3415 18.25 16.375 18.25H17.5C17.914 18.25 18.25 18.586 18.25 19C18.25 19.414 17.914 19.75 17.5 19.75H16.375C14.5143 19.75 13 18.2358 13 16.375C13 14.5143 14.5143 13 16.375 13H27.625C29.4858 13 31 14.5143 31 16.375C31 18.2358 29.4858 19.75 27.625 19.75Z" fill="white"/>
<path d="M26.5855 31H21.046C20.305 31 19.6105 30.637 19.189 30.0272L15.577 24.886C15.3618 24.5732 15.25 24.214 15.25 23.8412C15.25 23.143 15.6377 22.516 16.2625 22.2032C16.7762 21.9453 17.395 22.0173 17.836 22.39L19.7043 23.8053C19.7267 23.86 19.75 23.791 19.75 23.734L19.762 17.1115C19.762 16.0855 20.5975 15.25 21.625 15.25C22.6525 15.25 23.488 16.0855 23.488 17.113L23.4977 20.6762L23.4992 20.677L27.3092 21.7232C28.1223 21.8845 28.75 22.6502 28.75 23.5323L28.7395 23.8007L28.0825 29.635C28.0285 30.3872 27.37 31 26.5855 31ZM16.8992 23.5615C16.8205 23.602 16.75 23.7153 16.75 23.8412C16.75 23.9087 16.7703 23.9733 16.8085 24.0287L20.4197 29.1693C20.5637 29.3778 20.797 29.5 21.0468 29.5H26.5863L27.247 23.6635L27.25 23.5323C27.25 23.3628 27.13 23.2157 26.9635 23.1827L23.1025 22.1245C22.4545 21.9468 22.0008 21.3535 21.9985 20.6815L21.9887 17.1152C21.988 16.9128 21.8253 16.75 21.625 16.75C21.4247 16.75 21.262 16.9128 21.262 17.113L21.25 23.7355C21.25 24.2515 20.9987 24.9003 20.4362 25.1815C19.8843 25.4575 19.2257 25.375 18.7592 24.9692L16.8992 23.5615Z" fill="white"/>
<rect x="36" y="36" width="13" height="13" rx="3" fill="black"/>
<path d="M45.0562 46.1111L42.427 43.5111L39.7978 46.1111L38.7753 45.1L41.4045 42.5L38.7753 39.9L39.7978 38.8889L42.427 41.4889L45.0562 38.8889L46.0787 39.9L43.4495 42.5L46.0787 45.1L45.0562 46.1111Z" fill="white"/>
</svg>
