<svg width="44" height="44" viewBox="0 0 44 44" fill="none" xmlns="http://www.w3.org/2000/svg">
<circle cx="22" cy="22" r="19" fill="white"/>
<circle cx="22" cy="22" r="16" fill="#800000"/>
<circle opacity="0.6" cx="22" cy="22" r="12" fill="#FF3333"/>
<path d="M15.8453 19.4453C16.4859 18.6589 17.3193 18.2656 18.3453 18.2656C20.1318 18.2656 21.0328 19.2734 21.0484 21.2891V26.875H19.6031V21.2812C19.5979 20.6719 19.4573 20.2214 19.1813 19.9297C18.9104 19.638 18.4859 19.4922 17.9078 19.4922C17.4391 19.4922 17.0276 19.6172 16.6734 19.8672C16.3193 20.1172 16.0432 20.4453 15.8453 20.8516V26.875H14.4V14.875H15.8453V19.4453Z" fill="white"/>
<rect x="23.5" y="21.75" width="9" height="1.5" fill="white"/>
<rect x="28" y="28" width="13" height="13" rx="3" fill="black"/>
<path d="M37.0562 38.1111L34.427 35.5111L31.7978 38.1111L30.7753 37.1L33.4045 34.5L30.7753 31.9L31.7978 30.8889L34.427 33.4889L37.0562 30.8889L38.0787 31.9L35.4495 34.5L38.0787 37.1L37.0562 38.1111Z" fill="white"/>
</svg>
