<svg width="44" height="44" viewBox="0 0 44 44" fill="none" xmlns="http://www.w3.org/2000/svg">
<rect x="3" y="3" width="38" height="38" rx="8" fill="white"/>
<rect x="6" y="6" width="32" height="32" rx="5" fill="#800000"/>
<path opacity="0.6" d="M10 33.2164V10.8761C10 10.438 10.4384 10 10.8767 10H33.1233C33.6712 10 34 10.438 34 10.8761V33.1069C34 33.6544 33.5616 33.983 33.1233 33.983H10.9997C10.918 33.983 10.8367 33.9974 10.755 33.9998C10.3608 34.0112 10 33.6138 10 33.2164Z" fill="#FF3333"/>
<path d="M21.4629 12L21.4795 12L21.4961 12.0005C22.3221 12.0274 23.1602 12.3548 23.7967 12.9931C23.7969 12.9934 23.7971 12.9936 23.7973 12.9938L31.7534 20.9499C33.0807 22.2761 33.083 24.4597 31.7555 25.7882L31.7551 25.7886L25.787 31.7559C25.787 31.7559 25.787 31.756 25.787 31.756C24.4576 33.0853 22.2737 33.0823 20.9481 31.7546L12.993 23.7988C12.9927 23.7985 12.9924 23.7981 12.992 23.7978C12.3517 23.1591 12.0284 22.3256 12.0006 21.5002L12 21.4833V21.4665V15.4144V15.4133C12.0021 13.537 13.5352 12.004 15.4115 12.0037C15.4116 12.0037 15.4117 12.0037 15.4118 12.0037C15.4119 12.0037 15.412 12.0037 15.4122 12.0037L21.4629 12Z" stroke="white" stroke-width="2"/>
<circle cx="17.5" cy="17.5" r="2.25" fill="white"/>
<rect x="28" y="28" width="13" height="13" rx="3" fill="black"/>
<path d="M37.0562 38.1111L34.427 35.5111L31.7978 38.1111L30.7753 37.1L33.4045 34.5L30.7753 31.9L31.7978 30.8889L34.427 33.4889L37.0562 30.8889L38.0787 31.9L35.4495 34.5L38.0787 37.1L37.0562 38.1111Z" fill="white"/>
</svg>
