<svg width="44" height="44" viewBox="0 0 44 44" fill="none" xmlns="http://www.w3.org/2000/svg">
<rect x="3" y="3" width="38" height="38" rx="8" fill="white"/>
<rect x="6" y="6" width="32" height="32" rx="5" fill="#800000"/>
<path opacity="0.6" d="M10 33.2164V10.8761C10 10.438 10.4384 10 10.8767 10H33.1233C33.6712 10 34 10.438 34 10.8761V33.1069C34 33.6544 33.5616 33.983 33.1233 33.983H10.9997C10.918 33.983 10.8367 33.9974 10.755 33.9998C10.3608 34.0112 10 33.6138 10 33.2164Z" fill="#FF3333"/>
<path d="M25.5891 12.4497L33.5466 20.4073C34.4835 21.3434 34.485 22.8938 33.5481 23.8314L26.8299 29.7988" stroke="white" stroke-width="2"/>
<path d="M13.4122 11.0037L19.4635 11C20.052 11.0191 20.6435 11.2526 21.0891 11.6997L29.0466 19.6572C29.9835 20.5934 29.985 22.1438 29.0481 23.0814L23.0799 29.0488C22.1416 29.9872 20.5912 29.985 19.6558 29.0481L11.699 21.0905C11.2504 20.6435 11.0199 20.0564 11 19.4665V13.4144C11.0015 12.0893 12.0879 11.0037 13.4122 11.0037ZM15.4192 17.6288C16.6389 17.6288 17.6288 16.6397 17.6288 15.4192C17.6288 14.1988 16.6389 13.2096 15.4192 13.2096C14.198 13.2096 13.2096 14.1988 13.2096 15.4192C13.2096 16.6397 14.198 17.6288 15.4192 17.6288Z" fill="white"/>
<rect x="28" y="28" width="13" height="13" rx="3" fill="black"/>
<path d="M37.0562 38.1111L34.427 35.5111L31.7978 38.1111L30.7753 37.1L33.4045 34.5L30.7753 31.9L31.7978 30.8889L34.427 33.4889L37.0562 30.8889L38.0787 31.9L35.4495 34.5L38.0787 37.1L37.0562 38.1111Z" fill="white"/>
</svg>
