<svg width="44" height="44" viewBox="0 0 44 44" fill="none" xmlns="http://www.w3.org/2000/svg">
<rect x="3" y="3" width="38" height="38" rx="8" fill="white"/>
<rect x="6" y="6" width="32" height="32" rx="5" fill="#800000"/>
<path opacity="0.6" d="M10 33.2164V10.8761C10 10.438 10.4384 10 10.8767 10H33.1233C33.6712 10 34 10.438 34 10.8761V33.1069C34 33.6544 33.5616 33.983 33.1233 33.983H10.9997C10.918 33.983 10.8367 33.9974 10.755 33.9998C10.3608 34.0112 10 33.6138 10 33.2164Z" fill="#FF3333"/>
<path d="M32.5 22C32.5 20.4087 31.8679 18.8826 30.7426 17.7574C29.6174 16.6321 28.0913 16 26.5 16H22.75C21.9599 15.9994 21.1774 16.1549 20.4475 16.4575C20.0549 16.1596 19.5753 15.9989 19.0825 16H17.5C15.9087 16 14.3826 16.6321 13.2574 17.7574C12.1321 18.8826 11.5 20.4087 11.5 22C11.5 23.5913 12.1321 25.1174 13.2574 26.2426C14.3826 27.3679 15.9087 28 17.5 28H21.25C22.0403 28.0018 22.823 27.8463 23.5525 27.5425C23.9472 27.8419 24.4296 28.0028 24.925 28H26.5C28.0913 28 29.6174 27.3679 30.7426 26.2426C31.8679 25.1174 32.5 23.5913 32.5 22ZM17.5 26.125C16.406 26.125 15.3568 25.6904 14.5832 24.9168C13.8096 24.1432 13.375 23.094 13.375 22C13.375 20.906 13.8096 19.8568 14.5832 19.0832C15.3568 18.3096 16.406 17.875 17.5 17.875H19.0825C19.1574 17.8746 19.2308 17.8966 19.2931 17.9382C19.3554 17.9799 19.4039 18.0392 19.4321 18.1086C19.4604 18.1781 19.4672 18.2544 19.4516 18.3277C19.4361 18.401 19.399 18.468 19.345 18.52C18.9301 18.9219 18.5898 19.3942 18.34 19.915C18.3091 19.9781 18.261 20.0313 18.2014 20.0684C18.1417 20.1055 18.0728 20.1251 18.0025 20.125H17.5C17.0027 20.125 16.5258 20.3225 16.1742 20.6742C15.8225 21.0258 15.625 21.5027 15.625 22C15.625 22.4973 15.8225 22.9742 16.1742 23.3258C16.5258 23.6775 17.0027 23.875 17.5 23.875H21.25C21.4968 23.877 21.7415 23.8299 21.9699 23.7364C22.1983 23.6428 22.4058 23.5048 22.5803 23.3303C22.7548 23.1558 22.8928 22.9483 22.9863 22.7199C23.0799 22.4915 23.127 22.2468 23.125 22C23.1209 21.8508 23.1472 21.7023 23.2021 21.5636C23.2571 21.4248 23.3397 21.2987 23.4449 21.1928C23.5501 21.0869 23.6757 21.0035 23.8141 20.9475C23.9525 20.8916 24.1008 20.8644 24.25 20.8675C24.5491 20.8695 24.8352 20.9897 25.046 21.2018C25.2567 21.414 25.375 21.7009 25.375 22C25.373 23.0934 24.9378 24.1415 24.1646 24.9146C23.3915 25.6878 22.3434 26.123 21.25 26.125H17.5ZM24.925 26.125C24.8501 26.1255 24.7767 26.1034 24.7144 26.0618C24.6521 26.0202 24.6036 25.9608 24.5754 25.8914C24.5471 25.8219 24.5403 25.7457 24.5559 25.6723C24.5714 25.599 24.6085 25.532 24.6625 25.48C25.0756 25.0811 25.4134 24.6111 25.66 24.0925C25.6899 24.028 25.7374 23.9733 25.7972 23.9348C25.8569 23.8963 25.9264 23.8755 25.9975 23.875H26.5C26.9973 23.875 27.4742 23.6775 27.8258 23.3258C28.1775 22.9742 28.375 22.4973 28.375 22C28.375 21.5027 28.1775 21.0258 27.8258 20.6742C27.4742 20.3225 26.9973 20.125 26.5 20.125H22.75C22.5038 20.124 22.2599 20.1719 22.0324 20.2658C21.8049 20.3598 21.5983 20.498 21.4246 20.6724C21.2509 20.8468 21.1135 21.054 21.0205 21.2819C20.9274 21.5098 20.8805 21.7539 20.8825 22C20.8856 22.1492 20.8584 22.2975 20.8025 22.4359C20.7465 22.5743 20.6631 22.6999 20.5572 22.8051C20.4513 22.9103 20.3252 22.9929 20.1864 23.0479C20.0477 23.1029 19.8992 23.1291 19.75 23.125C19.4522 23.123 19.1672 23.0039 18.9567 22.7933C18.7461 22.5828 18.627 22.2978 18.625 22C18.627 20.9066 19.0622 19.8585 19.8354 19.0854C20.6085 18.3122 21.6566 17.877 22.75 17.875H26.5C27.594 17.875 28.6432 18.3096 29.4168 19.0832C30.1904 19.8568 30.625 20.906 30.625 22C30.625 23.094 30.1904 24.1432 29.4168 24.9168C28.6432 25.6904 27.594 26.125 26.5 26.125H24.925Z" fill="white"/>
<rect x="28" y="28" width="13" height="13" rx="3" fill="black"/>
<path d="M37.0562 38.1111L34.427 35.5111L31.7978 38.1111L30.7753 37.1L33.4045 34.5L30.7753 31.9L31.7978 30.8889L34.427 33.4889L37.0562 30.8889L38.0787 31.9L35.4495 34.5L38.0787 37.1L37.0562 38.1111Z" fill="white"/>
</svg>
