<svg width="44" height="44" viewBox="0 0 44 44" fill="none" xmlns="http://www.w3.org/2000/svg">
<rect x="3" y="3" width="38" height="38" rx="8" fill="white"/>
<mask id="mask0" mask-type="alpha" maskUnits="userSpaceOnUse" x="6" y="6" width="32" height="32">
<path d="M34.9524 6H24.5905L22.9143 9.80952H24.819L19.4857 18.0381L21.4667 12.0952H19.181L19.7905 6H9.04762C7.37143 6 6 7.37143 6 9.04762V34.9524C6 36.6286 7.37143 38 9.04762 38H34.9524C36.6286 38 38 36.6286 38 34.9524V9.04762C38 7.37143 36.6286 6 34.9524 6Z" fill="#CC7000"/>
</mask>
<g mask="url(#mask0)">
<rect x="6" y="6" width="32" height="32" rx="5" fill="#800000"/>
<path opacity="0.5" d="M10 33.2164V10.8761C10 10.438 10.4384 10 10.8767 10H33.1233C33.6712 10 34 10.438 34 10.8761V33.1069C34 33.6544 33.5616 33.983 33.1233 33.983H10.9997C10.918 33.983 10.8367 33.9974 10.755 33.9998C10.3608 34.0112 10 33.6138 10 33.2164Z" fill="#FF3333"/>
</g>
<path d="M11.4757 19.7353C13.6988 17.8545 18.5972 15.0581 24.1427 20.6036L26.1509 18.5954C26.2249 18.5282 26.3153 18.4819 26.4131 18.4614C26.5109 18.4408 26.6124 18.4466 26.7072 18.4783C26.8021 18.5099 26.8868 18.5663 26.9527 18.6415C27.0186 18.7167 27.0632 18.8081 27.0821 18.9062L28.3582 27.8055C28.3785 27.9408 28.3668 28.079 28.324 28.2089C28.2813 28.3387 28.2086 28.4568 28.1119 28.5534C28.0153 28.6501 27.8972 28.7227 27.7674 28.7655C27.6375 28.8083 27.4993 28.82 27.364 28.7997L18.4687 27.5197C18.3706 27.5008 18.2792 27.4561 18.204 27.3902C18.1287 27.3243 18.0724 27.2396 18.0408 27.1448C18.0091 27.0499 18.0033 26.9484 18.0238 26.8506C18.0444 26.7529 18.0907 26.6624 18.1579 26.5884L20.1661 24.5802C20.1661 24.5802 17.2055 20.3074 11.8861 20.7183C11.769 20.7259 11.6524 20.6967 11.5526 20.6348C11.4529 20.5729 11.3749 20.4814 11.3297 20.3731C11.2845 20.2647 11.2743 20.145 11.3004 20.0307C11.3266 19.9163 11.3879 19.813 11.4757 19.7353Z" fill="white"/>
<rect x="28" y="28" width="13" height="13" rx="3" fill="black"/>
<path d="M37.0562 38.1111L34.427 35.5111L31.7978 38.1111L30.7753 37.1L33.4045 34.5L30.7753 31.9L31.7978 30.8889L34.427 33.4889L37.0562 30.8889L38.0787 31.9L35.4495 34.5L38.0787 37.1L37.0562 38.1111Z" fill="white"/>
</svg>
