<svg width="44" height="44" viewBox="0 0 44 44" fill="none" xmlns="http://www.w3.org/2000/svg">
<rect x="3" y="3" width="38" height="38" rx="8" fill="white"/>
<rect x="6" y="6" width="32" height="32" rx="5" fill="#800000"/>
<path opacity="0.6" d="M10 33.2164V10.8761C10 10.438 10.4384 10 10.8767 10H33.1233C33.6712 10 34 10.438 34 10.8761V33.1069C34 33.6544 33.5616 33.983 33.1233 33.983H10.9997C10.918 33.983 10.8367 33.9974 10.755 33.9998C10.3608 34.0112 10 33.6138 10 33.2164Z" fill="#FF3333"/>
<rect x="3" y="15.25" width="35" height="12" fill="black"/>
<path d="M22 19H22.75V22.75H22V20.5H21.25V22.75H20.5V20.5H19.75V22.75H19V19H19.75V19.75H20.5V19H21.25V19.75H22V19ZM24.25 19V19.75H26.5V19H24.25ZM26.5 20.5H24.25V21.25H26.5V22H24.25V22.75H27.25V19.75H26.5V20.5ZM23.5 21.25V22H24.25V21.25H23.5ZM29.5 19H28V19.75H28.75V22H28V22.75H31V22H29.5V20.5H30.25V19.75H29.5V19ZM30.25 19.75H31.75V19H30.25V19.75ZM32.5 19.75V22H33.25V19.75H32.5ZM33.25 19V19.75H35.5V21.25H34.75V22H35.5V24.25H36.25V19H33.25ZM33.25 22.75H34.75V22H33.25V22.75Z" fill="white"/>
<path d="M15.25 22H16V22.75H15.25V22Z" fill="white"/>
<path d="M11.5 22H12.25V22.75H11.5V22Z" fill="white"/>
<path d="M7.75 22H8.5V22.75H7.75V22Z" fill="white"/>
<rect x="28" y="28" width="13" height="13" rx="3" fill="black"/>
<path d="M37.0562 38.1111L34.427 35.5111L31.7978 38.1111L30.7753 37.1L33.4045 34.5L30.7753 31.9L31.7978 30.8889L34.427 33.4889L37.0562 30.8889L38.0787 31.9L35.4495 34.5L38.0787 37.1L37.0562 38.1111Z" fill="white"/>
</svg>
