<svg width="44" height="44" viewBox="0 0 44 44" fill="none" xmlns="http://www.w3.org/2000/svg">
<rect x="3" y="3" width="38" height="38" rx="8" fill="white"/>
<rect x="6" y="6" width="32" height="32" rx="5" fill="#800000"/>
<path opacity="0.6" d="M10 33.2164V10.8761C10 10.438 10.4384 10 10.8767 10H33.1233C33.6712 10 34 10.438 34 10.8761V33.1069C34 33.6544 33.5616 33.983 33.1233 33.983H10.9997C10.918 33.983 10.8367 33.9974 10.755 33.9998C10.3608 34.0112 10 33.6138 10 33.2164Z" fill="#FF3333"/>
<rect x="4" y="4" width="36" height="36" rx="5" fill="white"/>
<rect x="6.25" y="6.25" width="31.5" height="31.5" rx="4" fill="#800000"/>
<path opacity="0.6" d="M9.625 33.5669V10.5285C9.625 10.0767 10.0771 9.625 10.5291 9.625H33.4709C34.036 9.625 34.375 10.0767 34.375 10.5285V33.454C34.375 34.0186 33.9229 34.3575 33.4709 34.3575H10.5291C10.0771 34.4704 9.625 34.0186 9.625 33.5669Z" fill="#FF3333"/>
<path d="M22 23.2966C23.1872 23.2966 24.1493 22.3344 24.1493 21.1475C24.1493 19.9603 23.1872 18.9981 22 18.9981C20.8133 18.9981 19.8507 19.9603 19.8507 21.1475C19.8507 22.3344 20.8133 23.2966 22 23.2966ZM13 21.25C13 26.2125 17.0375 30.25 22 30.25C24.422 30.25 26.6943 29.3017 28.3982 27.5797L27.1711 26.3655C25.794 27.7575 23.9573 28.5239 21.9998 28.5239C17.9891 28.5239 14.7261 25.2609 14.7261 21.25C14.7261 17.2391 17.9891 13.9761 22 13.9761C26.0109 13.9761 29.2739 17.2391 29.2739 21.25H26.5L29.875 25L33.25 21.25H31C31 16.2875 26.9625 12.25 22 12.25C17.0375 12.25 13 16.2875 13 21.25Z" fill="white"/>
<rect x="28" y="28" width="13" height="13" rx="3" fill="black"/>
<path d="M37.0562 38.1111L34.427 35.5111L31.7978 38.1111L30.7753 37.1L33.4045 34.5L30.7753 31.9L31.7978 30.8889L34.427 33.4889L37.0562 30.8889L38.0787 31.9L35.4495 34.5L38.0787 37.1L37.0562 38.1111Z" fill="white"/>
</svg>
