<svg width="44" height="44" viewBox="0 0 44 44" fill="none" xmlns="http://www.w3.org/2000/svg">
<rect x="3" y="3" width="38" height="38" rx="8" fill="white"/>
<rect x="6" y="6" width="32" height="32" rx="5" fill="#A65B00"/>
<path opacity="0.6" d="M10 33.2164V10.8761C10 10.438 10.4384 10 10.8767 10H33.1233C33.6712 10 34 10.438 34 10.8761V33.1069C34 33.6544 33.5616 33.983 33.1233 33.983H10.9997C10.918 33.983 10.8367 33.9974 10.755 33.9998C10.3608 34.0112 10 33.6138 10 33.2164Z" fill="#FF8C00"/>
<rect x="12" y="12" width="20" height="20" rx="4" fill="#DB9B4C"/>
<path d="M20.2637 21.0254H17.3574L15.9219 23.75H14.8145L19.4961 15.1836H20.5156L21.5938 23.75H20.5977L20.2637 21.0254ZM20.1582 20.1113L19.9531 18.3594C19.8594 17.6602 19.8027 16.9766 19.7832 16.3086C19.6387 16.6523 19.4805 16.9941 19.3086 17.334C19.1406 17.6738 18.6543 18.5996 17.8496 20.1113H20.1582Z" fill="black"/>
<path d="M24 41H41L32.5 26.55L24 41Z" fill="black"/>
<path d="M33.35 35.9H31.65V30.8H33.35V35.9ZM33.35 39.3H31.65V37.6H33.35V39.3Z" fill="white"/>
</svg>
