<svg width="44" height="44" viewBox="0 0 44 44" fill="none" xmlns="http://www.w3.org/2000/svg">
<rect x="3" y="3" width="38" height="38" rx="8" fill="white"/>
<rect x="6" y="6" width="32" height="32" rx="5" fill="#A65B00"/>
<path opacity="0.6" d="M10 33.2164V10.8761C10 10.438 10.4384 10 10.8767 10H33.1233C33.6712 10 34 10.438 34 10.8761V33.1069C34 33.6544 33.5616 33.983 33.1233 33.983H10.9997C10.918 33.983 10.8367 33.9974 10.755 33.9998C10.3608 34.0112 10 33.6138 10 33.2164Z" fill="#FF8C00"/>
<path d="M10.8767 10C10.4384 10 10 10.4465 10 10.893V31L15.8447 25.0465L19.863 29.1395L27.169 21.6977L34 28.6558V10.893C34 10.4465 33.6712 10 33.1233 10H10.8767Z" fill="white" fill-opacity="0.5"/>
<path d="M24 41H41L32.5 26.55L24 41Z" fill="black"/>
<path d="M33.35 35.9H31.65V30.8H33.35V35.9ZM33.35 39.3H31.65V37.6H33.35V39.3Z" fill="white"/>
<path d="M21.0498 21.0713C21.0498 20.251 21.1494 19.5977 21.3486 19.1113C21.5479 18.625 21.9111 18.1475 22.4385 17.6787C22.9717 17.2041 23.3262 16.8203 23.502 16.5273C23.6777 16.2285 23.7656 15.915 23.7656 15.5869C23.7656 14.5967 23.3086 14.1016 22.3945 14.1016C21.9609 14.1016 21.6123 14.2363 21.3486 14.5059C21.0908 14.7695 20.9561 15.1357 20.9443 15.6045H18.3955C18.4072 14.4854 18.7676 13.6094 19.4766 12.9766C20.1914 12.3438 21.1641 12.0273 22.3945 12.0273C23.6367 12.0273 24.6006 12.3291 25.2861 12.9326C25.9717 13.5303 26.3145 14.377 26.3145 15.4727C26.3145 15.9707 26.2031 16.4424 25.9805 16.8877C25.7578 17.3271 25.3682 17.8164 24.8115 18.3555L24.0996 19.0322C23.6543 19.46 23.3994 19.9609 23.335 20.5352L23.2998 21.0713H21.0498ZM20.7949 23.7695C20.7949 23.377 20.9268 23.0547 21.1904 22.8027C21.46 22.5449 21.8027 22.416 22.2188 22.416C22.6348 22.416 22.9746 22.5449 23.2383 22.8027C23.5078 23.0547 23.6426 23.377 23.6426 23.7695C23.6426 24.1562 23.5107 24.4756 23.2471 24.7275C22.9893 24.9795 22.6465 25.1055 22.2188 25.1055C21.791 25.1055 21.4453 24.9795 21.1816 24.7275C20.9238 24.4756 20.7949 24.1562 20.7949 23.7695Z" fill="black"/>
</svg>
