<svg width="44" height="44" viewBox="0 0 44 44" fill="none" xmlns="http://www.w3.org/2000/svg">
<rect x="3" y="3" width="38" height="38" rx="8" fill="white"/>
<rect x="6" y="6" width="32" height="32" rx="5" fill="#A65B00"/>
<path opacity="0.6" d="M10 33.2164V10.8761C10 10.438 10.4384 10 10.8767 10H33.1233C33.6712 10 34 10.438 34 10.8761V33.1069C34 33.6544 33.5616 33.983 33.1233 33.983H10.9997C10.918 33.983 10.8367 33.9974 10.755 33.9998C10.3608 34.0112 10 33.6138 10 33.2164Z" fill="#FF8C00"/>
<path d="M10.8767 10C10.4384 10 10 10.4465 10 10.893V31L15.8447 25.0465L19.863 29.1395L27.169 21.6977L34 28.6558V10.893C34 10.4465 33.6712 10 33.1233 10H10.8767Z" fill="white" fill-opacity="0.5"/>
<path d="M19 11H40V13.5714H19V11Z" fill="black"/>
<path d="M19 16.1429H40V18.7143H19V16.1429Z" fill="black"/>
<path d="M19 21.2857H40V23.8571H19V21.2857Z" fill="black"/>
<path d="M19 26.4286H29.5V29H19V26.4286Z" fill="black"/>
<path d="M24 41H41L32.5 26.55L24 41Z" fill="black"/>
<path d="M33.35 35.9H31.65V30.8H33.35V35.9ZM33.35 39.3H31.65V37.6H33.35V39.3Z" fill="white"/>
</svg>
