<svg width="44" height="44" viewBox="0 0 44 44" fill="none" xmlns="http://www.w3.org/2000/svg">
<rect x="3" y="3" width="38" height="38" rx="8" fill="white"/>
<rect x="6" y="6" width="32" height="32" rx="5" fill="#A65B00"/>
<path opacity="0.6" d="M10 33.2164V10.8761C10 10.438 10.4384 10 10.8767 10H33.1233C33.6712 10 34 10.438 34 10.8761V33.1069C34 33.6544 33.5616 33.983 33.1233 33.983H10.9997C10.918 33.983 10.8367 33.9974 10.755 33.9998C10.3608 34.0112 10 33.6138 10 33.2164Z" fill="#FF8C00"/>
<path d="M24 41H41L32.5 26.55L24 41Z" fill="black"/>
<path d="M33.35 35.9H31.65V30.8H33.35V35.9ZM33.35 39.3H31.65V37.6H33.35V39.3Z" fill="white"/>
<path d="M26.9791 20.2742H15.9341C15.6803 20.2742 15.4741 20.4806 15.4741 20.7343V23.2935C15.4741 28.2808 18.9187 29.3731 18.9533 29.3837C18.9676 29.3881 18.9824 29.39 18.9974 29.39H23.9163C23.9313 29.39 23.9464 29.3879 23.9605 29.3837C23.9952 29.3731 27.4394 28.281 27.4394 23.2935V20.7343C27.4392 20.4806 27.2328 20.2742 26.9791 20.2742Z" fill="white"/>
<path d="M29.9827 22.9823C29.8573 22.0325 29.122 21.4655 28.0158 21.4655C27.2952 21.4655 26.4469 21.6981 25.4946 22.1567C25.4427 22.1814 25.4093 22.2333 25.4077 22.2906L25.356 24.1967C25.3544 24.2698 25.4039 24.3341 25.4753 24.3503C25.5458 24.3668 25.6191 24.3304 25.6493 24.2637C26.2125 23.0123 27.2325 22.5677 27.9348 22.5677C28.4749 22.5677 28.858 22.8197 28.9099 23.2091C29.0604 24.3365 27.8857 25.9034 24.9506 26.6801C24.8999 26.6937 24.8598 26.7318 24.844 26.7816L24.4523 27.9986C24.4351 28.0524 24.4483 28.1109 24.487 28.1513C24.5164 28.1823 24.5568 28.199 24.5984 28.199C24.6115 28.199 24.6249 28.1971 24.638 28.1936C28.657 27.1125 30.1831 24.495 29.9827 22.9823Z" fill="white"/>
<path d="M28.8004 29.9637H14.1128C14.0475 29.9637 13.9942 30.0166 14.0005 30.0811C14.0881 30.9715 15.1572 31.6373 16.2265 31.6373H26.6871C27.756 31.6373 28.8253 30.9715 28.9129 30.0811C28.919 30.0166 28.8659 29.9637 28.8004 29.9637Z" fill="white"/>
<path d="M23.1693 14.774C22.6688 13.8808 22.1016 12.8683 23.1902 10.8041C23.2156 10.7551 23.2632 10.6637 23.2099 10.5768C23.1822 10.5308 23.127 10.5 23.0737 10.5C23.0009 10.5 22.9474 10.5467 22.9009 10.5958C20.7599 12.8235 21.4069 13.9799 22.0326 15.0988C22.5326 15.9931 23.0051 16.8381 22.1805 18.295C22.1503 18.3471 22.0995 18.435 22.1505 18.523C22.178 18.5707 22.2325 18.6017 22.2872 18.6017C22.3607 18.6017 22.4126 18.554 22.4603 18.5045C24.2262 16.6592 23.7128 15.7432 23.1693 14.774Z" fill="white"/>
<path d="M20.4505 13.1556C20.4679 13.1107 20.5003 13.0269 20.4479 12.9501C20.4193 12.9085 20.3683 12.8817 20.3176 12.8817C20.2293 12.8817 20.1771 12.9503 20.1494 12.9876C18.6595 14.96 19.284 15.8186 19.888 16.6496C20.3603 17.2989 20.8065 17.9124 20.2997 19.1229C20.2812 19.168 20.2471 19.252 20.2985 19.3284C20.327 19.3709 20.3777 19.3974 20.4287 19.3979C20.5156 19.3979 20.5658 19.3314 20.5961 19.2915C21.8265 17.6538 21.3296 16.9718 20.8035 16.2498C20.3075 15.5687 19.7943 14.8644 20.4505 13.1556Z" fill="white"/>
</svg>
