<svg width="44" height="44" viewBox="0 0 44 44" fill="none" xmlns="http://www.w3.org/2000/svg">
<rect x="3" y="3" width="38" height="38" rx="8" fill="white"/>
<rect x="6" y="6" width="32" height="32" rx="5" fill="#A65B00"/>
<path opacity="0.6" d="M10 33.2164V10.8761C10 10.438 10.4384 10 10.8767 10H33.1233C33.6712 10 34 10.438 34 10.8761V33.1069C34 33.6544 33.5616 33.983 33.1233 33.983H10.9997C10.918 33.983 10.8367 33.9974 10.755 33.9998C10.3608 34.0112 10 33.6138 10 33.2164Z" fill="#FF8C00"/>
<path d="M30.0167 14.9969C29.4217 14.811 25.7525 14.625 22.0833 14.625C18.4142 14.625 14.745 14.8017 14.15 14.9783C12.603 15.4617 12.1667 18.7157 12.1667 22.0625C12.1667 25.4001 12.603 28.6633 14.15 29.1374C14.745 29.3234 18.4142 29.5 22.0833 29.5C25.7525 29.5 29.4217 29.3234 30.0167 29.1374C31.5637 28.6633 32 25.4001 32 22.0625C32 18.7157 31.5637 15.471 30.0167 14.9969Z" fill="white" fill-opacity="0.3"/>
<path d="M20.1 26.2461V17.8789L26.05 22.0625L20.1 26.2461Z" fill="white"/>
<path d="M24 41H41L32.5 26.55L24 41Z" fill="black"/>
<path d="M33.35 35.9H31.65V30.8H33.35V35.9ZM33.35 39.3H31.65V37.6H33.35V39.3Z" fill="white"/>
</svg>
