<svg width="44" height="44" viewBox="0 0 44 44" fill="none" xmlns="http://www.w3.org/2000/svg">
<rect x="3" y="3" width="38" height="38" rx="8" fill="white"/>
<rect x="6" y="6" width="32" height="32" rx="5" fill="#A65B00"/>
<path opacity="0.6" d="M10 33.2164V10.8761C10 10.438 10.4384 10 10.8767 10H33.1233C33.6712 10 34 10.438 34 10.8761V33.1069C34 33.6544 33.5616 33.983 33.1233 33.983H10.9997C10.918 33.983 10.8367 33.9974 10.755 33.9998C10.3608 34.0112 10 33.6138 10 33.2164Z" fill="#FF8C00"/>
<path d="M24 41H41L32.5 26.55L24 41Z" fill="black"/>
<path d="M33.35 35.9H31.65V30.8H33.35V35.9ZM33.35 39.3H31.65V37.6H33.35V39.3Z" fill="white"/>
<path d="M21.125 12C17.6687 12.4245 15 15.3356 15 18.8705H21.125V12ZM15 24.0689C15 25.9071 15.7375 27.6701 17.0503 28.9699C18.363 30.2698 20.1435 31 22 31C23.8565 31 25.637 30.2698 26.9497 28.9699C28.2625 27.6701 29 25.9071 29 24.0689V20.6033H15V24.0689ZM22.875 12V18.8705H29C29 15.3356 26.3225 12.4245 22.875 12Z" fill="white"/>
</svg>
