<svg width="44" height="44" viewBox="0 0 44 44" fill="none" xmlns="http://www.w3.org/2000/svg">
<rect x="3" y="3" width="38" height="38" rx="8" fill="white"/>
<rect x="6" y="6" width="32" height="32" rx="5" fill="#A65B00"/>
<path opacity="0.6" d="M10 33.2164V10.8761C10 10.438 10.4384 10 10.8767 10H33.1233C33.6712 10 34 10.438 34 10.8761V33.1069C34 33.6544 33.5616 33.983 33.1233 33.983H10.9997C10.918 33.983 10.8367 33.9974 10.755 33.9998C10.3608 34.0112 10 33.6138 10 33.2164Z" fill="#FF8C00"/>
<path d="M24 41H41L32.5 26.55L24 41Z" fill="black"/>
<path d="M33.35 35.9H31.65V30.8H33.35V35.9ZM33.35 39.3H31.65V37.6H33.35V39.3Z" fill="white"/>
<path d="M16.2457 20.6416C16.9664 19.7568 17.9039 19.3145 19.0582 19.3145C21.068 19.3145 22.0816 20.4482 22.0992 22.7158V29H20.4732V22.707C20.4674 22.0215 20.3092 21.5146 19.9986 21.1865C19.6939 20.8584 19.2164 20.6943 18.566 20.6943C18.0387 20.6943 17.5758 20.835 17.1773 21.1162C16.7789 21.3975 16.4684 21.7666 16.2457 22.2236V29H14.6197V15.5H16.2457V20.6416ZM28.8105 29H27.1758V18.1631L23.8975 19.3672V17.8906L28.5557 16.1416H28.8105V29Z" fill="white"/>
</svg>
