<svg width="44" height="44" viewBox="0 0 44 44" fill="none" xmlns="http://www.w3.org/2000/svg">
<rect x="3" y="3" width="38" height="38" rx="8" fill="white"/>
<rect x="6" y="6" width="32" height="32" rx="5" fill="#A65B00"/>
<path opacity="0.6" d="M10 33.2164V10.8761C10 10.438 10.4384 10 10.8767 10H33.1233C33.6712 10 34 10.438 34 10.8761V33.1069C34 33.6544 33.5616 33.983 33.1233 33.983H10.9997C10.918 33.983 10.8367 33.9974 10.755 33.9998C10.3608 34.0112 10 33.6138 10 33.2164Z" fill="#FF8C00"/>
<path d="M24 41H41L32.5 26.55L24 41Z" fill="black"/>
<path d="M33.35 35.9H31.65V30.8H33.35V35.9ZM33.35 39.3H31.65V37.6H33.35V39.3Z" fill="white"/>
<path d="M16.1455 20.6416C16.8662 19.7568 17.8037 19.3145 18.958 19.3145C20.9678 19.3145 21.9814 20.4482 21.999 22.7158V29H20.373V22.707C20.3672 22.0215 20.209 21.5146 19.8984 21.1865C19.5938 20.8584 19.1162 20.6943 18.4658 20.6943C17.9385 20.6943 17.4756 20.835 17.0771 21.1162C16.6787 21.3975 16.3682 21.7666 16.1455 22.2236V29H14.5195V15.5H16.1455V20.6416ZM26.3408 25.3965C26.3525 24.6992 26.4316 24.1484 26.5781 23.7441C26.7246 23.3398 27.0234 22.8916 27.4746 22.3994L28.626 21.2129C29.1182 20.6562 29.3643 20.0586 29.3643 19.4199C29.3643 18.8047 29.2031 18.3242 28.8809 17.9785C28.5586 17.627 28.0898 17.4512 27.4746 17.4512C26.877 17.4512 26.3965 17.6094 26.0332 17.9258C25.6699 18.2422 25.4883 18.667 25.4883 19.2002H23.8623C23.874 18.251 24.2109 17.4863 24.873 16.9062C25.541 16.3203 26.4082 16.0273 27.4746 16.0273C28.582 16.0273 29.4434 16.3262 30.0586 16.9238C30.6797 17.5156 30.9902 18.3301 30.9902 19.3672C30.9902 20.3926 30.5156 21.4033 29.5664 22.3994L28.6084 23.3486C28.1807 23.8232 27.9668 24.5059 27.9668 25.3965H26.3408ZM26.2705 28.1826C26.2705 27.9189 26.3496 27.6992 26.5078 27.5234C26.6719 27.3418 26.9121 27.251 27.2285 27.251C27.5449 27.251 27.7852 27.3418 27.9492 27.5234C28.1133 27.6992 28.1953 27.9189 28.1953 28.1826C28.1953 28.4463 28.1133 28.666 27.9492 28.8418C27.7852 29.0117 27.5449 29.0967 27.2285 29.0967C26.9121 29.0967 26.6719 29.0117 26.5078 28.8418C26.3496 28.666 26.2705 28.4463 26.2705 28.1826Z" fill="white"/>
</svg>
