<svg width="44" height="44" viewBox="0 0 44 44" fill="none" xmlns="http://www.w3.org/2000/svg">
<rect x="3" y="3" width="38" height="38" rx="8" fill="white"/>
<rect x="6" y="6" width="32" height="32" rx="5" fill="#A65B00"/>
<path opacity="0.6" d="M10 33.2164V10.8761C10 10.438 10.4384 10 10.8767 10H33.1233C33.6712 10 34 10.438 34 10.8761V33.1069C34 33.6544 33.5616 33.983 33.1233 33.983H10.9997C10.918 33.983 10.8367 33.9974 10.755 33.9998C10.3608 34.0112 10 33.6138 10 33.2164Z" fill="#FF8C00"/>
<path d="M25.3994 20.6416C26.1201 19.7568 27.0576 19.3145 28.2119 19.3145C30.2217 19.3145 31.2354 20.4482 31.2529 22.7158V29H29.627V22.707C29.6211 22.0215 29.4629 21.5146 29.1523 21.1865C28.8477 20.8584 28.3701 20.6943 27.7197 20.6943C27.1924 20.6943 26.7295 20.835 26.3311 21.1162C25.9326 21.3975 25.6221 21.7666 25.3994 22.2236V29H23.7734V15.5H25.3994V20.6416Z" fill="white"/>
<path d="M11.0717 15.4882C12.469 14.306 15.5479 12.5484 19.0334 16.0339L20.2957 14.7717C20.3421 14.7295 20.399 14.7004 20.4605 14.6875C20.5219 14.6745 20.5857 14.6782 20.6453 14.6981C20.7049 14.718 20.7582 14.7534 20.7996 14.8007C20.841 14.8479 20.8691 14.9054 20.881 14.9671L21.683 20.5606C21.6958 20.6457 21.6884 20.7325 21.6615 20.8141C21.6346 20.8958 21.589 20.97 21.5282 21.0307C21.4675 21.0915 21.3933 21.1371 21.3116 21.164C21.23 21.1909 21.1432 21.1983 21.0581 21.1855L15.4671 20.381C15.4054 20.3691 15.3479 20.341 15.3007 20.2996C15.2534 20.2582 15.218 20.2049 15.1981 20.1453C15.1782 20.0857 15.1745 20.0219 15.1875 19.9605C15.2004 19.899 15.2295 19.8421 15.2717 19.7957L16.5339 18.5334C16.5339 18.5334 14.6731 15.8478 11.3296 16.106C11.256 16.1108 11.1828 16.0925 11.1201 16.0536C11.0574 16.0147 11.0084 15.9571 10.9799 15.889C10.9515 15.821 10.9451 15.7457 10.9615 15.6738C10.978 15.602 11.0165 15.537 11.0717 15.4882V15.4882Z" fill="white"/>
<path d="M24 41H41L32.5 26.55L24 41Z" fill="black"/>
<path d="M33.35 35.9H31.65V30.8H33.35V35.9ZM33.35 39.3H31.65V37.6H33.35V39.3Z" fill="white"/>
</svg>
