<svg width="44" height="44" viewBox="0 0 44 44" fill="none" xmlns="http://www.w3.org/2000/svg">
<path d="M39.5 8.02667V6.70468L38.1885 6.53856L22.1885 4.51189L22 4.48801L21.8115 4.51189L5.81151 6.53856L4.5 6.70468V8.02667V32.9867V34.0886L5.5515 34.4181L21.5515 39.4314L22 39.5719L22.4485 39.4314L38.4485 34.4181L39.5 34.0886V32.9867V8.02667Z" fill="#A65B00" stroke="white" stroke-width="3"/>
<path opacity="0.6" d="M22 9L35 10.6318V30.8661L22 35V9Z" fill="#FF8C00"/>
<path d="M24 41H41L32.5 26.55L24 41Z" fill="black"/>
<path d="M33.35 35.9H31.65V30.8H33.35V35.9ZM33.35 39.3H31.65V37.6H33.35V39.3Z" fill="white"/>
<path d="M30.0167 14.9969C29.4217 14.811 25.7525 14.625 22.0833 14.625C18.4142 14.625 14.745 14.8017 14.15 14.9783C12.603 15.4617 12.1667 18.7157 12.1667 22.0625C12.1667 25.4001 12.603 28.6633 14.15 29.1374C14.745 29.3234 18.4142 29.5 22.0833 29.5C25.7525 29.5 29.4217 29.3234 30.0167 29.1374C31.5637 28.6633 32 25.4001 32 22.0625C32 18.7157 31.5637 15.471 30.0167 14.9969Z" fill="white" fill-opacity="0.3"/>
<path d="M20.1 26.2461V17.8789L26.05 22.0625L20.1 26.2461Z" fill="white"/>
</svg>
