<svg width="44" height="44" viewBox="0 0 44 44" fill="none" xmlns="http://www.w3.org/2000/svg">
<rect x="3" y="3" width="38" height="38" rx="8" fill="white"/>
<rect x="6" y="6" width="32" height="32" rx="5" fill="#A65B00"/>
<path opacity="0.6" d="M10 33.2164V10.8761C10 10.438 10.4384 10 10.8767 10H33.1233C33.6712 10 34 10.438 34 10.8761V33.1069C34 33.6544 33.5616 33.983 33.1233 33.983H10.9997C10.918 33.983 10.8367 33.9974 10.755 33.9998C10.3608 34.0112 10 33.6138 10 33.2164Z" fill="#FF8C00"/>
<rect x="30" y="3" width="11" height="11" fill="white"/>
<path d="M33 5.25V6.75H36.45L31.875 11.325L32.925 12.375L37.5 7.8V11.25H39V5.25H33Z" fill="#CC7000"/>
<path d="M22.707 12H24.0884C24.0884 12.6209 24.0884 13.2395 24.0884 13.8605C26.4163 13.8605 28.7442 13.8651 31.0721 13.8535C31.4651 13.8698 31.8977 13.8419 32.2395 14.0767C32.4791 14.4209 32.4512 14.8581 32.4674 15.2535C32.4558 19.2907 32.4605 23.3256 32.4628 27.3605C32.4512 28.0372 32.5256 28.7279 32.3837 29.3954C32.2907 29.8791 31.7093 29.8907 31.3209 29.907C28.9116 29.914 26.5 29.9023 24.0884 29.907C24.0884 30.6047 24.0884 31.3023 24.0884 32H22.6442C19.1 31.3558 15.5488 30.7605 12 30.1395C12 24.714 12 19.2884 12 13.8628C15.5698 13.2419 19.1395 12.6302 22.707 12Z" fill="white"/>
<path d="M24.0881 14.5582C26.6463 14.5582 29.2044 14.5582 31.7625 14.5582C31.7625 19.4419 31.7625 24.3256 31.7625 29.2093C29.2044 29.2093 26.6463 29.2093 24.0881 29.2093C24.0881 28.7442 24.0881 28.2791 24.0881 27.814C24.7091 27.814 25.3277 27.814 25.9486 27.814C25.9486 27.2721 25.9486 26.7279 25.9486 26.1861C25.3277 26.1861 24.7091 26.1861 24.0881 26.1861C24.0881 25.8768 24.0881 25.5651 24.0881 25.2558C24.7091 25.2558 25.3277 25.2558 25.9486 25.2558C25.9486 24.714 25.9486 24.1698 25.9486 23.6279C25.3277 23.6279 24.7091 23.6279 24.0881 23.6279C24.0881 23.3186 24.0881 23.007 24.0881 22.6977C24.7091 22.6977 25.3277 22.6977 25.9486 22.6977C25.9486 22.1558 25.9486 21.6117 25.9486 21.0698C25.3277 21.0698 24.7091 21.0698 24.0881 21.0698C24.0881 20.7605 24.0881 20.4489 24.0881 20.1396C24.7091 20.1396 25.3277 20.1396 25.9486 20.1396C25.9486 19.5977 25.9486 19.0535 25.9486 18.5117C25.3277 18.5117 24.7091 18.5117 24.0881 18.5117C24.0881 18.2024 24.0881 17.8907 24.0881 17.5814C24.7091 17.5814 25.3277 17.5814 25.9486 17.5814C25.9486 17.0396 25.9486 16.4954 25.9486 15.9535C25.3277 15.9535 24.7091 15.9535 24.0881 15.9535C24.0881 15.4884 24.0881 15.0233 24.0881 14.5582Z" fill="#D97700"/>
<path d="M18.8885 18.1325C19.4141 18.0953 19.942 18.0628 20.4699 18.0372C19.849 19.3093 19.2257 20.5814 18.5932 21.8488C19.2327 23.1511 19.8862 24.4442 20.528 25.7465C19.9676 25.7139 19.4094 25.679 18.849 25.6395C18.4536 24.6697 17.9722 23.7325 17.6885 22.7186C17.3722 23.6628 16.9211 24.5535 16.5583 25.479C16.049 25.4721 15.5397 25.4511 15.0304 25.4302C15.628 24.2604 16.2048 23.0814 16.8211 21.9186C16.2978 20.7209 15.7234 19.5465 15.1839 18.3558C15.6955 18.3256 16.2071 18.2953 16.7187 18.2674C17.0652 19.1767 17.4443 20.0744 17.7304 21.007C18.0373 20.0186 18.4955 19.0884 18.8885 18.1325Z" fill="#D97700"/>
<path d="M26.879 15.9535C27.965 15.9535 29.0488 15.9535 30.1348 15.9535C30.1348 16.4954 30.1348 17.0395 30.1348 17.5814C29.0488 17.5814 27.965 17.5814 26.879 17.5814C26.879 17.0395 26.879 16.4954 26.879 15.9535Z" fill="white"/>
<path d="M26.879 18.5116C27.965 18.5116 29.0488 18.5116 30.1348 18.5116C30.1348 19.0535 30.1348 19.5977 30.1348 20.1396C29.0488 20.1396 27.965 20.1396 26.879 20.1396C26.879 19.5977 26.879 19.0535 26.879 18.5116Z" fill="white"/>
<path d="M26.879 21.0698C27.965 21.0698 29.0488 21.0698 30.1348 21.0698C30.1348 21.6117 30.1348 22.1558 30.1348 22.6977C29.0488 22.6977 27.965 22.6977 26.879 22.6977C26.879 22.1558 26.879 21.6117 26.879 21.0698Z" fill="white"/>
<path d="M26.879 23.6279C27.965 23.6279 29.0488 23.6279 30.1348 23.6279C30.1348 24.1697 30.1348 24.7139 30.1348 25.2558C29.0488 25.2558 27.965 25.2558 26.879 25.2558C26.879 24.7139 26.879 24.1697 26.879 23.6279Z" fill="white"/>
<path d="M26.879 26.186C27.965 26.186 29.0488 26.186 30.1348 26.186C30.1348 26.7279 30.1348 27.272 30.1348 27.8139C29.0488 27.8139 27.965 27.8139 26.879 27.8139C26.879 27.272 26.879 26.7279 26.879 26.186Z" fill="white"/>
<path d="M24 41H41L32.5 26.55L24 41Z" fill="black"/>
<path d="M33.35 35.9H31.65V30.8H33.35V35.9ZM33.35 39.3H31.65V37.6H33.35V39.3Z" fill="white"/>
</svg>
