<svg width="44" height="44" viewBox="0 0 44 44" fill="none" xmlns="http://www.w3.org/2000/svg">
<rect x="3" y="3" width="38" height="38" rx="8" fill="white"/>
<rect x="6" y="6" width="32" height="32" rx="5" fill="#A65B00"/>
<path opacity="0.6" d="M10 33.2164V10.8761C10 10.438 10.4384 10 10.8767 10H33.1233C33.6712 10 34 10.438 34 10.8761V33.1069C34 33.6544 33.5616 33.983 33.1233 33.983H10.9997C10.918 33.983 10.8367 33.9974 10.755 33.9998C10.3608 34.0112 10 33.6138 10 33.2164Z" fill="#FF8C00"/>
<path d="M24 41H41L32.5 26.55L24 41Z" fill="black"/>
<path d="M33.35 35.9H31.65V30.8H33.35V35.9ZM33.35 39.3H31.65V37.6H33.35V39.3Z" fill="white"/>
<path d="M20.2566 21.8298C20.2694 22.3394 19.8616 22.7472 19.352 22.7344C18.855 22.7344 18.4473 22.3267 18.4473 21.8298C18.4473 19.3451 20.4669 17.3256 22.9515 17.3256L27.4621 17.3256C29.9467 17.3256 31.9663 19.3451 31.9663 21.8298C31.9663 24.3144 29.9467 26.334 27.4621 26.334L25.5636 26.334C26.0924 25.8179 26.5319 25.2127 26.8505 24.5374L27.4557 24.531C28.9529 24.5374 30.1633 23.3269 30.157 21.8298C30.1633 20.3326 28.9529 19.1221 27.4557 19.1285L22.9579 19.1285C21.4607 19.1221 20.2503 20.3326 20.2566 21.8298ZM24.7545 20.9251C25.2514 20.9251 25.6591 21.3328 25.6591 21.8298C25.6591 24.3144 23.6396 26.334 21.1549 26.334L16.6444 26.334C14.1597 26.334 12.1402 24.3144 12.1402 21.8298C12.1402 19.3451 14.1597 17.3256 16.6444 17.3256L18.5429 17.3256C18.0141 17.8416 17.5745 18.4468 17.2496 19.1285H16.6507C15.1536 19.1221 13.9431 20.3326 13.9495 21.8298C13.9431 23.3269 15.1536 24.5374 16.6507 24.531L21.1486 24.531C22.6457 24.5374 23.8562 23.3269 23.8498 21.8298C23.8371 21.3201 24.2448 20.9124 24.7545 20.9251Z" fill="white"/>
</svg>
