<svg width="44" height="44" viewBox="0 0 44 44" fill="none" xmlns="http://www.w3.org/2000/svg">
<rect x="6" y="3" width="35" height="35" rx="6" fill="white"/>
<path d="M2 15C2 12.7909 3.79086 11 6 11H29C31.2091 11 33 12.7909 33 15V38C33 40.2091 31.2091 42 29 42H8C4.68629 42 2 39.3137 2 36V15Z" fill="white"/>
<path d="M9 9C9 7.34315 10.3431 6 12 6H35C36.6569 6 38 7.34315 38 9V32C38 33.6569 36.6569 35 35 35H11C9.89543 35 9 34.1046 9 33V9Z" fill="#A65B00"/>
<path opacity="0.6" d="M12 31.249V9.83959C12 9.41979 12.4201 9 12.8402 9H34.1598C34.6849 9 35 9.41979 35 9.83959V31.1441C35 31.6688 34.5799 31.9837 34.1598 31.9837H12.9632C12.8815 31.9837 12.8001 31.9983 12.7185 31.9999C12.3426 32.0073 12 31.6282 12 31.249Z" fill="#FF8C00"/>
<path d="M6.01409 14C6.28304 14 6.54097 14.1068 6.73115 14.297C6.92133 14.4872 7.02817 14.7451 7.02817 15.0141V34.2676C7.02817 36.1335 7.98141 36.9718 9.84733 36.9718H28.9859C29.2549 36.9718 29.5128 37.0787 29.703 37.2688C29.8932 37.459 30 37.717 30 37.9859C30 38.2549 29.8932 38.5128 29.703 38.703C29.5128 38.8932 29.2549 39 28.9859 39H9.17127C6.55493 39 5 37.56 5 34.9437V15.0141C5 14.7451 5.10684 14.4872 5.29702 14.297C5.4872 14.1068 5.74513 14 6.01409 14Z" fill="#A65B00"/>
<path d="M14.8947 11V13.5263H20.7053L13 21.2316L14.7684 23L22.4737 15.2947V21.1053H25V11H14.8947Z" fill="white"/>
<path d="M23.8947 17V19.5263H29.7053L22 27.2316L23.7684 29L31.4737 21.2947V27.1053H34V17H23.8947Z" fill="white" fill-opacity="0.5"/>
<path d="M24 41H41L32.5 26.55L24 41Z" fill="black"/>
<path d="M33.35 35.9H31.65V30.8H33.35V35.9ZM33.35 39.3H31.65V37.6H33.35V39.3Z" fill="white"/>
</svg>
