<svg width="44" height="44" viewBox="0 0 44 44" fill="none" xmlns="http://www.w3.org/2000/svg">
<rect x="3" y="3" width="38" height="38" rx="8" fill="white"/>
<rect x="6" y="6" width="32" height="32" rx="5" fill="#A65B00"/>
<path opacity="0.6" d="M10 33.2164V10.8761C10 10.438 10.4384 10 10.8767 10H33.1233C33.6712 10 34 10.438 34 10.8761V33.1069C34 33.6544 33.5616 33.983 33.1233 33.983H10.9997C10.918 33.983 10.8367 33.9974 10.755 33.9998C10.3608 34.0112 10 33.6138 10 33.2164Z" fill="#FF8C00"/>
<rect x="30" y="3" width="11" height="11" fill="white"/>
<path d="M33 5.25V6.75H36.45L31.875 11.325L32.925 12.375L37.5 7.8V11.25H39V5.25H33Z" fill="#CC7000"/>
<path d="M22.6987 12H24.0894C24.0894 12.6209 24.0894 13.2395 24.0894 13.8605C26.5778 13.8744 29.0638 13.8349 31.5499 13.8744C32.0801 13.8209 32.4964 14.2326 32.4475 14.7628C32.4871 19.3442 32.4382 23.9279 32.4708 28.5093C32.4475 28.9791 32.5173 29.5 32.2452 29.9163C31.9057 30.1581 31.4661 30.1279 31.0708 30.1465C28.7429 30.1349 26.4173 30.1395 24.0894 30.1395C24.0894 30.7605 24.0894 31.3791 24.0894 32H22.6359C19.0964 31.3535 15.5475 30.7605 12.001 30.1395C11.9987 24.714 12.001 19.2884 12.001 13.8651C15.5661 13.2419 19.1336 12.6349 22.6987 12Z" fill="white"/>
<path d="M24.0896 14.5581C26.6478 14.5581 29.2059 14.5581 31.7641 14.5581C31.7641 19.5186 31.7641 24.4814 31.7641 29.4419C29.2059 29.4419 26.6478 29.4419 24.0896 29.4419C24.0896 28.8209 24.0896 28.2023 24.0896 27.5814C26.1059 27.5814 28.1199 27.5814 30.1362 27.5814C30.1362 27.2721 30.1362 26.9605 30.1362 26.6512C28.1199 26.6512 26.1059 26.6512 24.0896 26.6512C24.0896 26.2628 24.0896 25.8767 24.0896 25.4884C26.1059 25.4884 28.1199 25.4884 30.1362 25.4884C30.1362 25.1791 30.1362 24.8674 30.1362 24.5581C28.1199 24.5581 26.1059 24.5581 24.0896 24.5581C24.0896 24.1698 24.0896 23.7837 24.0896 23.3953C26.1059 23.3953 28.1199 23.3953 30.1362 23.3953C30.1362 23.086 30.1362 22.7744 30.1362 22.4651C28.1199 22.4651 26.1059 22.4651 24.0896 22.4651C24.0896 22.0767 24.0896 21.6907 24.0896 21.3023C26.1059 21.3023 28.1199 21.3023 30.1362 21.3023C30.1362 20.993 30.1362 20.6814 30.1362 20.3721C28.1199 20.3721 26.1059 20.3721 24.0896 20.3721C24.0896 19.9837 24.0896 19.5977 24.0896 19.2093C26.1059 19.2093 28.1199 19.2093 30.1362 19.2093C30.1362 18.9 30.1362 18.5884 30.1362 18.2791C28.1199 18.2791 26.1059 18.2791 24.0896 18.2791C24.0896 17.8907 24.0896 17.5046 24.0896 17.1163C26.1059 17.1163 28.1199 17.1163 30.1362 17.1163C30.1362 16.807 30.1362 16.4953 30.1362 16.186C28.1199 16.186 26.1059 16.186 24.0896 16.186C24.0896 15.6442 24.0896 15.1 24.0896 14.5581Z" fill="#D97700"/>
<path d="M16.8057 18.6674C17.2476 18.6419 17.6895 18.6233 18.1313 18.6C18.4406 20.1698 18.7569 21.7372 19.0918 23.3C19.3546 21.6861 19.6453 20.0768 19.9267 18.4651C20.3918 18.4488 20.8569 18.4233 21.3197 18.3954C20.7941 20.6488 20.3337 22.9209 19.7592 25.1605C19.3709 25.3628 18.7895 25.1512 18.329 25.1837C18.0197 23.6442 17.6592 22.114 17.3825 20.5674C17.1104 22.0698 16.7569 23.5581 16.4453 25.0512C15.9988 25.0279 15.5499 25 15.1011 24.9698C14.715 22.9233 14.2616 20.8907 13.9011 18.8395C14.2988 18.8209 14.6988 18.8047 15.0964 18.7907C15.336 20.2721 15.6081 21.7465 15.8174 23.2302C16.1453 21.7093 16.4802 20.1884 16.8057 18.6674Z" fill="#D97700"/>
<path d="M24 41H41L32.5 26.55L24 41Z" fill="black"/>
<path d="M33.35 35.9H31.65V30.8H33.35V35.9ZM33.35 39.3H31.65V37.6H33.35V39.3Z" fill="white"/>
</svg>
