<svg width="44" height="44" viewBox="0 0 44 44" fill="none" xmlns="http://www.w3.org/2000/svg">
<rect x="3" y="3" width="38" height="38" rx="8" fill="white"/>
<rect x="6" y="6" width="32" height="32" rx="5" fill="#A65B00"/>
<path opacity="0.6" d="M10 33.2164V10.8761C10 10.438 10.4384 10 10.8767 10H33.1233C33.6712 10 34 10.438 34 10.8761V33.1069C34 33.6544 33.5616 33.983 33.1233 33.983H10.9997C10.918 33.983 10.8367 33.9974 10.755 33.9998C10.3608 34.0112 10 33.6138 10 33.2164Z" fill="#FF8C00"/>
<rect x="30" y="3" width="11" height="11" fill="white"/>
<path d="M33 5.25V6.75H36.45L31.875 11.325L32.925 12.375L37.5 7.8V11.25H39V5.25H33Z" fill="#CC7000"/>
<path d="M26.7437 11H14.4375C13.6812 11 13.0625 11.6187 13.0625 12.375V31.625C13.0625 32.3813 13.6812 33 14.4375 33H29.5625C30.3188 33 30.9375 32.3813 30.9375 31.625V14.8156L26.7437 11ZM27.1562 13.2344L28.4625 14.4375H27.1562V13.2344ZM14.4375 31.625V12.375H25.7812V15.8125H29.5625V31.625H14.4375Z" fill="white"/>
<path d="M24.4062 14.4375H15.8125V15.8125H24.4062V14.4375Z" fill="white"/>
<path d="M28.1875 20.625H15.8125V22H28.1875V20.625Z" fill="white"/>
<path d="M28.1875 23.375H15.8125V24.75H28.1875V23.375Z" fill="white"/>
<path d="M28.1875 26.125H15.8125V27.5H28.1875V26.125Z" fill="white"/>
<path d="M24 41H41L32.5 26.55L24 41Z" fill="black"/>
<path d="M33.35 35.9H31.65V30.8H33.35V35.9ZM33.35 39.3H31.65V37.6H33.35V39.3Z" fill="white"/>
</svg>
