<svg width="44" height="44" viewBox="0 0 44 44" fill="none" xmlns="http://www.w3.org/2000/svg">
<rect x="3" y="3" width="38" height="38" rx="8" fill="white"/>
<mask id="mask0" mask-type="alpha" maskUnits="userSpaceOnUse" x="6" y="6" width="32" height="32">
<path d="M34.9524 6H24.5905L22.9143 9.80952H24.819L19.4857 18.0381L21.4667 12.0952H19.181L19.7905 6H9.04762C7.37143 6 6 7.37143 6 9.04762V34.9524C6 36.6286 7.37143 38 9.04762 38H34.9524C36.6286 38 38 36.6286 38 34.9524V9.04762C38 7.37143 36.6286 6 34.9524 6Z" fill="#CC7000"/>
</mask>
<g mask="url(#mask0)">
<rect x="6" y="6" width="32" height="32" rx="5" fill="#A65B00"/>
<path opacity="0.5" d="M10 33.2164V10.8761C10 10.438 10.4384 10 10.8767 10H33.1233C33.6712 10 34 10.438 34 10.8761V33.1069C34 33.6544 33.5616 33.983 33.1233 33.983H10.9997C10.918 33.983 10.8367 33.9974 10.755 33.9998C10.3608 34.0112 10 33.6138 10 33.2164Z" fill="#FF8C00"/>
</g>
<path d="M20.5577 22.8032C20.5683 23.2274 20.2289 23.5668 19.8046 23.5562C19.391 23.5562 19.0516 23.2168 19.0516 22.8032C19.0516 20.7349 20.7327 19.0537 22.801 19.0537L26.5557 19.0537C28.624 19.0537 30.3052 20.7349 30.3052 22.8032C30.3052 24.8714 28.624 26.5526 26.5557 26.5526H24.9753C25.4155 26.123 25.7814 25.6192 26.0466 25.0571L26.5504 25.0518C27.7967 25.0571 28.8043 24.0494 28.799 22.8032C28.8043 21.5569 27.7967 20.5492 26.5504 20.5546L22.8063 20.5546C21.56 20.5492 20.5524 21.5569 20.5577 22.8032ZM24.3018 22.0501C24.7155 22.0501 25.0549 22.3895 25.0549 22.8032C25.0549 24.8714 23.3737 26.5526 21.3055 26.5526L17.5507 26.5526C15.4824 26.5526 13.8013 24.8714 13.8013 22.8032C13.8013 20.7349 15.4824 19.0537 17.5507 19.0537L19.1311 19.0537C18.6909 19.4833 18.325 19.9871 18.0545 20.5546H17.556C16.3097 20.5492 15.3021 21.5569 15.3074 22.8032C15.3021 24.0494 16.3097 25.0571 17.556 25.0518L21.3002 25.0518C22.5464 25.0571 23.5541 24.0494 23.5488 22.8032C23.5381 22.3789 23.8776 22.0395 24.3018 22.0501Z" fill="white"/>
<path d="M24 41H41L32.5 26.55L24 41Z" fill="black"/>
<path d="M33.35 35.9H31.65V30.8H33.35V35.9ZM33.35 39.3H31.65V37.6H33.35V39.3Z" fill="white"/>
</svg>
