<svg width="44" height="44" viewBox="0 0 44 44" fill="none" xmlns="http://www.w3.org/2000/svg">
<rect x="3" y="3" width="38" height="38" rx="8" fill="white"/>
<rect x="6" y="6" width="32" height="32" rx="5" fill="#A65B00"/>
<path opacity="0.6" d="M10 33.2164V10.8761C10 10.438 10.4384 10 10.8767 10H33.1233C33.6712 10 34 10.438 34 10.8761V33.1069C34 33.6544 33.5616 33.983 33.1233 33.983H10.9997C10.918 33.983 10.8367 33.9974 10.755 33.9998C10.3608 34.0112 10 33.6138 10 33.2164Z" fill="#FF8C00"/>
<rect x="30" y="3" width="11" height="11" fill="white"/>
<path d="M33 5.25V6.75H36.45L31.875 11.325L32.925 12.375L37.5 7.8V11.25H39V5.25H33Z" fill="#CC7000"/>
<path d="M31.3423 28.6762H23.4364V26.94H29.6014V26.1342H23.4364V24.7722H29.6014V23.9664H23.4364V21.7272C23.9331 22.3398 24.6718 22.7289 25.4975 22.7289C26.9934 22.7289 28.206 21.4534 28.206 19.8801H25.4975V17.0313C24.6718 17.0313 23.9331 17.4203 23.4364 18.0329V14.8632H31.3434L31.3423 28.6762ZM31.3434 14.1726H23.4364V12L12 14.087V29.913L23.4364 32V29.3668H31.3434C31.7055 29.3668 32 29.0571 32 28.6762V14.8632C32 14.4823 31.7055 14.1726 31.3434 14.1726Z" fill="white"/>
<path d="M26.7503 15.795V18.6438H29.4588C29.4588 17.0705 28.2462 15.795 26.7503 15.795Z" fill="white"/>
<path fill-rule="evenodd" clip-rule="evenodd" d="M16.8392 21.878C17.2955 21.9148 17.7411 22.0045 18.0182 21.507C18.2277 21.1316 18.2101 20.4457 17.9671 20.1572C17.6529 19.7843 17.247 19.8375 16.8392 19.9054V21.878ZM16.8071 25.4095H15.6616V18.6847C16.5453 18.6847 17.4245 18.6585 18.3005 18.7023C18.5307 18.7138 18.7981 18.8938 18.968 19.0784C19.6186 19.7849 19.6187 20.6649 19.4243 21.5426C19.2511 22.3243 18.7716 22.8742 18.0159 23.0676C17.6395 23.164 17.2366 23.1462 16.8071 23.1834V25.4095Z" fill="#CC7000"/>
<path d="M24 41H41L32.5 26.55L24 41Z" fill="black"/>
<path d="M33.35 35.9H31.65V30.8H33.35V35.9ZM33.35 39.3H31.65V37.6H33.35V39.3Z" fill="white"/>
</svg>
