<svg width="44" height="44" viewBox="0 0 44 44" fill="none" xmlns="http://www.w3.org/2000/svg">
<rect x="3" y="3" width="38" height="38" rx="8" fill="white"/>
<rect x="6" y="6" width="32" height="32" rx="5" fill="#A65B00"/>
<path opacity="0.6" d="M10 33.2164V10.8761C10 10.438 10.4384 10 10.8767 10H33.1233C33.6712 10 34 10.438 34 10.8761V33.1069C34 33.6544 33.5616 33.983 33.1233 33.983H10.9997C10.918 33.983 10.8367 33.9974 10.755 33.9998C10.3608 34.0112 10 33.6138 10 33.2164Z" fill="#FF8C00"/>
<path d="M24 41H41L32.5 26.55L24 41Z" fill="black"/>
<path d="M33.35 35.9H31.65V30.8H33.35V35.9ZM33.35 39.3H31.65V37.6H33.35V39.3Z" fill="white"/>
<path d="M17.4804 25C17.6729 25 17.9136 24.9483 18.1061 24.845C18.5873 24.6384 19.3573 24.0184 20.7529 21.0738C21.186 20.9188 21.7154 20.8155 22.2447 20.6605C22.9185 20.5055 23.5922 20.4022 24.2178 20.3506C25.5172 21.797 26.0465 22.1587 26.7684 22.3653C27.009 22.417 27.2015 22.4686 27.394 22.4686C28.3084 22.4686 28.7896 21.8487 28.8859 21.4871C29.0784 21.0221 29.1265 20.0406 28.2121 19.4207C27.5865 19.0074 26.4797 18.7491 25.2284 18.7491C25.0841 18.7491 24.9397 18.7491 24.7953 18.7491C24.6509 18.5424 24.4585 18.3358 24.266 18.1292C23.6403 17.4059 23.1591 16.786 22.7741 16.1661C23.3035 14.6162 23.3997 13.8413 23.3516 13.1697C23.3035 11.3616 22.2447 11 21.8116 11C21.2341 11 20.3198 11.5166 20.2716 12.9114C20.2235 14.048 20.3679 15.0295 21.0898 16.3727C20.8973 16.8893 20.6566 17.4576 20.416 18.0775C20.1754 18.6974 19.9348 19.214 19.6942 19.7306C17.8173 20.4022 17.0955 21.2288 16.7105 21.6937C15.7961 22.7269 15.9405 23.6568 16.1811 24.1218C16.4217 24.5351 16.8067 25 17.4804 25ZM27.4903 20.7638C27.5865 20.8155 27.5865 20.8672 27.5865 20.9188C27.5384 20.9705 27.3459 20.9705 27.1534 20.9188C26.9609 20.8672 26.7684 20.8155 26.3353 20.4022C27.009 20.5055 27.3459 20.7122 27.4903 20.7638ZM21.7635 13.0148C21.7635 12.9114 21.7635 12.7565 21.8116 12.7048C21.8597 12.8081 21.9079 13.0148 21.956 13.3247C21.956 13.5314 21.956 13.7897 21.8597 14.203C21.7635 13.7897 21.7635 13.3764 21.7635 13.0148ZM21.6191 19.1624C21.6672 19.059 21.7154 18.9041 21.7635 18.8007C21.8597 18.5424 22.0041 18.2841 22.1004 18.0258V18.0775L22.1485 17.9742C22.3891 18.2841 22.6297 18.5941 22.9185 18.9557H22.8704L22.9185 19.0074C22.5816 19.059 22.2447 19.1107 21.9079 19.214C21.7635 19.214 21.6672 19.2657 21.571 19.3173L21.6191 19.1624ZM17.7692 22.8303C17.9136 22.6753 18.1542 22.417 18.5392 22.107C17.8654 23.2435 17.5767 23.3985 17.5286 23.3985H17.4804L17.3842 23.2435C17.4323 23.2952 17.6248 23.0369 17.7692 22.8303Z" fill="white"/>
<path d="M17.8828 26.0812C17.6391 25.8984 17.3344 25.7766 17.0297 25.7156C16.725 25.6547 16.3594 25.5938 15.9938 25.5938H13.2516V32.9672H14.8359V30.0422H15.9938C16.8469 30.0422 17.5172 29.8594 17.9438 29.4938C18.4313 29.1281 18.675 28.5797 18.675 27.8484C18.675 27.4219 18.6141 27.1172 18.4922 26.8125C18.3703 26.5078 18.1266 26.2641 17.8828 26.0812ZM16.9688 28.275C16.9078 28.3969 16.7859 28.4578 16.725 28.5187C16.6031 28.5797 16.4813 28.6406 16.3594 28.6406C16.2375 28.6406 16.0547 28.7016 15.9328 28.7016H14.8969V26.9344H15.9328C16.3594 26.9344 16.6641 26.9953 16.8469 27.1172C16.9078 27.1781 17.0297 27.3 17.0297 27.3609C17.0906 27.4828 17.0906 27.6047 17.0906 27.7875C17.0906 27.9703 17.0297 28.2141 16.9688 28.275Z" fill="white"/>
<path d="M24.4641 26.6297C24.1594 26.325 23.8547 26.0813 23.4281 25.8984C23.0016 25.6547 22.4531 25.5938 21.9047 25.5938H19.4672V32.9672H21.9047C23.0016 32.9672 23.8547 32.6625 24.4031 31.9922C24.7078 31.6875 24.8906 31.2609 25.0734 30.8344C25.1953 30.4078 25.2563 29.8594 25.2563 29.25C25.2563 28.7016 25.1953 28.1531 25.0734 27.7266C24.9516 27.3 24.7688 26.9344 24.4641 26.6297ZM23.6109 30.1641C23.55 30.4688 23.4891 30.7125 23.3063 30.8953C23.1844 31.1391 23.0016 31.2609 22.7578 31.3828C22.5141 31.5047 22.2094 31.5656 21.8438 31.5656H21.0516V26.8734H21.9047C22.5141 26.8734 23.0016 27.0562 23.2453 27.4828C23.3672 27.6656 23.4891 27.9094 23.55 28.2141C23.6109 28.5187 23.6719 28.8234 23.6719 29.25C23.6719 29.6156 23.6719 29.9203 23.6109 30.1641Z" fill="white"/>
<path d="M30.9234 26.9344V25.5938H26.1094V32.9672H27.6937V29.7984H30.1312L30.0703 28.4578H27.6937V26.9344H30.9234Z" fill="white"/>
<rect x="30" y="3" width="11" height="11" fill="white"/>
<path d="M33 5.25V6.75H36.45L31.875 11.325L32.925 12.375L37.5 7.8V11.25H39V5.25H33Z" fill="#CC7000"/>
</svg>
