<svg width="44" height="44" viewBox="0 0 44 44" fill="none" xmlns="http://www.w3.org/2000/svg">
<rect x="3" y="3" width="38" height="38" rx="8" fill="white"/>
<rect x="6" y="6" width="32" height="32" rx="5" fill="#A65B00"/>
<path opacity="0.6" d="M10 33.2164V10.8761C10 10.438 10.4384 10 10.8767 10H33.1233C33.6712 10 34 10.438 34 10.8761V33.1069C34 33.6544 33.5616 33.983 33.1233 33.983H10.9997C10.918 33.983 10.8367 33.9974 10.755 33.9998C10.3608 34.0112 10 33.6138 10 33.2164Z" fill="#FF8C00"/>
<path d="M24 41H41L32.5 26.55L24 41Z" fill="black"/>
<path d="M33.35 35.9H31.65V30.8H33.35V35.9ZM33.35 39.3H31.65V37.6H33.35V39.3Z" fill="white"/>
<path d="M20.3333 23.6667C20.12 23.6667 19.9067 23.585 19.7442 23.4225C19.4183 23.0967 19.4183 22.57 19.7442 22.2442L21.655 20.3333L22.8333 19.155L24.7442 17.2442C25.07 16.9183 25.5967 16.9183 25.9225 17.2442C26.2483 17.57 26.2483 18.0967 25.9225 18.4225L24.0117 20.3333L22.8333 21.5117L20.9225 23.4225C20.76 23.585 20.5467 23.6667 20.3333 23.6667ZM25.3333 23.6667C25.12 23.6667 24.9067 23.585 24.7442 23.4225L22.8333 21.5117L21.655 20.3333L19.7442 18.4225C19.4183 18.0967 19.4183 17.57 19.7442 17.2442C20.07 16.9183 20.5967 16.9183 20.9225 17.2442L22.8333 19.155L24.0117 20.3333L25.9225 22.2442C26.2483 22.57 26.2483 23.0967 25.9225 23.4225C25.76 23.585 25.5467 23.6667 25.3333 23.6667ZM29.5 28.6667C29.0392 28.6667 28.6667 28.2942 28.6667 27.8333V27V14.5017C28.6667 14.0417 28.2917 13.6667 27.8308 13.6667H16.8572H14.5C14.04 13.6667 13.6667 13.2933 13.6667 12.8333C13.6667 12.3733 14.04 12 14.5 12H27.8308C29.2108 12 30.3333 13.1225 30.3333 14.5017V27.8333C30.3333 28.2942 29.9608 28.6667 29.5 28.6667ZM28.6667 32C27.07 32 18.9725 30.5525 17.7517 30.3317C16.4108 30.2883 15.3333 29.1842 15.3333 27.8333V16.1667C15.3333 15.7067 15.7067 15.3333 16.1667 15.3333C16.6267 15.3333 17 15.7067 17 16.1667V27.8333C17 28.2892 17.3675 28.66 17.8217 28.6667H17.8433C18.2983 28.6608 18.6667 28.2892 18.6667 27.8333C18.6667 27.3725 19.04 27 19.5 27H28.6667H31.1667C31.6275 27 32 27.3725 32 27.8333V28.6942C32 30.61 30.5975 32 28.6667 32ZM20.0217 29.0408C23.1283 29.5817 27.6725 30.3333 28.6667 30.3333C29.8975 30.3333 30.3333 29.45 30.3333 28.6942V28.6667H20.1908C20.1442 28.7967 20.0883 28.9217 20.0217 29.0408ZM16.1667 17H12.8333C12.3733 17 12 16.6267 12 16.1667V14.5C12 13.1217 13.1217 12 14.5 12C15.5863 12 16.5132 12.6967 16.8572 13.6667C16.9496 13.9274 17 14.208 17 14.5V16.1667C17 16.6267 16.6267 17 16.1667 17ZM13.6667 15.3333H15.3333V14.5C15.3333 14.0408 14.9592 13.6667 14.5 13.6667C14.0408 13.6667 13.6667 14.0408 13.6667 14.5V15.3333Z" fill="black"/>
<path fill-rule="evenodd" clip-rule="evenodd" d="M28.6667 14.5017C28.6667 14.0417 28.2917 13.6667 27.8308 13.6667H16.8572C16.9496 13.9274 17 14.208 17 14.5V16.1667V27.8333C17 28.2892 17.3675 28.66 17.8217 28.6667H17.8433C18.2983 28.6608 18.6667 28.2892 18.6667 27.8333C18.6667 27.3725 19.04 27 19.5 27H28.6667V14.5017ZM20.3333 23.6667C20.12 23.6667 19.9067 23.585 19.7442 23.4225C19.4183 23.0967 19.4183 22.57 19.7442 22.2442L21.655 20.3333L19.7442 18.4225C19.4183 18.0967 19.4183 17.57 19.7442 17.2442C20.07 16.9183 20.5967 16.9183 20.9225 17.2442L22.8333 19.155L24.7442 17.2442C25.07 16.9183 25.5967 16.9183 25.9225 17.2442C26.2483 17.57 26.2483 18.0967 25.9225 18.4225L24.0117 20.3333L25.9225 22.2442C26.2483 22.57 26.2483 23.0967 25.9225 23.4225C25.76 23.585 25.5467 23.6667 25.3333 23.6667C25.12 23.6667 24.9067 23.585 24.7442 23.4225L22.8333 21.5117L20.9225 23.4225C20.76 23.585 20.5467 23.6667 20.3333 23.6667Z" fill="white"/>
<path d="M13.6667 15.3333H15.3333V14.5C15.3333 14.0408 14.9592 13.6667 14.5 13.6667C14.0408 13.6667 13.6667 14.0408 13.6667 14.5V15.3333Z" fill="white"/>
<path d="M20.0217 29.0408C23.1283 29.5817 27.6725 30.3333 28.6667 30.3333C29.8975 30.3333 30.3333 29.45 30.3333 28.6942V28.6667H29.5H20.1908C20.1442 28.7967 20.0883 28.9217 20.0217 29.0408Z" fill="white"/>
</svg>
