<svg width="44" height="44" viewBox="0 0 44 44" fill="none" xmlns="http://www.w3.org/2000/svg">
<rect x="3" y="3" width="38" height="38" rx="8" fill="white"/>
<rect x="6" y="6" width="32" height="32" rx="5" fill="#A65B00"/>
<path opacity="0.6" d="M10 33.2164V10.8761C10 10.438 10.4384 10 10.8767 10H33.1233C33.6712 10 34 10.438 34 10.8761V33.1069C34 33.6544 33.5616 33.983 33.1233 33.983H10.9997C10.918 33.983 10.8367 33.9974 10.755 33.9998C10.3608 34.0112 10 33.6138 10 33.2164Z" fill="#FF8C00"/>
<path d="M24 41H41L32.5 26.55L24 41Z" fill="black"/>
<path d="M33.35 35.9H31.65V30.8H33.35V35.9ZM33.35 39.3H31.65V37.6H33.35V39.3Z" fill="white"/>
<path d="M29.4642 24.0506L29.4642 23.6032L29.4642 21.5447L27.4057 21.5447L15.2645 21.5447L15.2645 16.5331L12.7587 16.5331L12.7587 24.0506L15.2645 24.0506L27.4057 24.0506L29.4642 24.0506Z" fill="white"/>
<path d="M23.9336 18.0726L25.7055 16.3007L32.2024 22.7976L30.4305 24.5695L29.4642 23.6032L29.4642 21.5447L27.4057 21.5447L23.9336 18.0726Z" fill="white"/>
<path d="M23.9336 27.5227L27.4057 24.0506L29.4642 24.0506L29.4642 23.6032L30.4305 24.5695L25.7055 29.2945L23.9336 27.5227Z" fill="white"/>
</svg>
