<svg width="44" height="44" viewBox="0 0 44 44" fill="none" xmlns="http://www.w3.org/2000/svg">
<rect x="6" y="3" width="35" height="35" rx="6" fill="white"/>
<path d="M2 15C2 12.7909 3.79086 11 6 11H29C31.2091 11 33 12.7909 33 15V38C33 40.2091 31.2091 42 29 42H8C4.68629 42 2 39.3137 2 36V15Z" fill="white"/>
<path d="M9 9C9 7.34315 10.3431 6 12 6H35C36.6569 6 38 7.34315 38 9V32C38 33.6569 36.6569 35 35 35H11C9.89543 35 9 34.1046 9 33V9Z" fill="#A65B00"/>
<path opacity="0.6" d="M12 31.249V9.83959C12 9.41979 12.4201 9 12.8402 9H34.1598C34.6849 9 35 9.41979 35 9.83959V31.1441C35 31.6688 34.5799 31.9837 34.1598 31.9837H12.9632C12.8815 31.9837 12.8001 31.9983 12.7185 31.9999C12.3426 32.0073 12 31.6282 12 31.249Z" fill="#FF8C00"/>
<path d="M6.01409 14C6.28304 14 6.54097 14.1068 6.73115 14.297C6.92133 14.4872 7.02817 14.7451 7.02817 15.0141V34.2676C7.02817 36.1335 7.98141 36.9718 9.84733 36.9718H28.9859C29.2549 36.9718 29.5128 37.0787 29.703 37.2688C29.8932 37.459 30 37.717 30 37.9859C30 38.2549 29.8932 38.5128 29.703 38.703C29.5128 38.8932 29.2549 39 28.9859 39H9.17127C6.55493 39 5 37.56 5 34.9437V15.0141C5 14.7451 5.10684 14.4872 5.29702 14.297C5.4872 14.1068 5.74513 14 6.01409 14Z" fill="#A65B00"/>
<path d="M24 41H41L32.5 26.55L24 41Z" fill="black"/>
<path d="M33.35 35.9H31.65V30.8H33.35V35.9ZM33.35 39.3H31.65V37.6H33.35V39.3Z" fill="white"/>
<rect x="15" y="12" width="18" height="5" fill="#C4C4C4"/>
<path d="M26.5855 32H21.046C20.305 32 19.6105 31.637 19.189 31.0272L15.577 25.886C15.3618 25.5732 15.25 25.214 15.25 24.8412C15.25 24.143 15.6377 23.516 16.2625 23.2032C16.7762 22.9452 17.395 23.0173 17.836 23.39L19.7043 24.8052C19.7268 24.86 19.75 24.791 19.75 24.734L19.762 18.1115C19.762 17.0855 20.5975 16.25 21.625 16.25C22.6525 16.25 23.488 17.0855 23.488 18.113L23.4977 21.6762L23.4992 21.677L27.3093 22.7232C28.1223 22.8845 28.75 23.6503 28.75 24.5323L28.7395 24.8008L28.0825 30.635C28.0285 31.3873 27.37 32 26.5855 32ZM16.8992 24.5615C16.8205 24.602 16.75 24.7152 16.75 24.8412C16.75 24.9087 16.7703 24.9732 16.8085 25.0287L20.4197 30.1693C20.5637 30.3778 20.797 30.5 21.0468 30.5H26.5862L27.247 24.6635L27.25 24.5323C27.25 24.3628 27.13 24.2157 26.9635 24.1827L23.1025 23.1245C22.4545 22.9468 22.0008 22.3535 21.9985 21.6815L21.9887 18.1152C21.988 17.9127 21.8252 17.75 21.625 17.75C21.4248 17.75 21.262 17.9128 21.262 18.113L21.25 24.7355C21.25 25.2515 20.9987 25.9003 20.4362 26.1815C19.8842 26.4575 19.2257 26.375 18.7592 25.9692L16.8992 24.5615Z" fill="white"/>
<rect x="16" y="14" width="3" height="1" fill="black"/>
<rect x="20" y="14" width="5" height="1" fill="black"/>
<rect x="26" y="14" width="1" height="1" fill="black"/>
<rect x="28" y="14" width="4" height="1" fill="black"/>
</svg>
