<svg width="44" height="44" viewBox="0 0 44 44" fill="none" xmlns="http://www.w3.org/2000/svg">
<rect x="3" y="3" width="38" height="38" rx="8" fill="white"/>
<rect x="6" y="6" width="32" height="32" rx="5" fill="#A65B00"/>
<path opacity="0.6" d="M10 33.2164V10.8761C10 10.438 10.4384 10 10.8767 10H33.1233C33.6712 10 34 10.438 34 10.8761V33.1069C34 33.6544 33.5616 33.983 33.1233 33.983H10.9997C10.918 33.983 10.8367 33.9974 10.755 33.9998C10.3608 34.0112 10 33.6138 10 33.2164Z" fill="#FF8C00"/>
<path d="M24 41H41L32.5 26.55L24 41Z" fill="black"/>
<path d="M33.35 35.9H31.65V30.8H33.35V35.9ZM33.35 39.3H31.65V37.6H33.35V39.3Z" fill="white"/>
<path d="M27.3223 12.7812V22.2832C27.3223 23.7936 26.8372 24.9915 25.8672 25.877C24.9036 26.7559 23.6178 27.1953 22.0098 27.1953C20.3822 27.1953 19.0898 26.7624 18.1328 25.8965C17.1758 25.0241 16.6973 23.8164 16.6973 22.2734V12.7812H19.1582V22.293C19.1582 23.2435 19.3991 23.9694 19.8809 24.4707C20.3626 24.972 21.0723 25.2227 22.0098 25.2227C23.9108 25.2227 24.8613 24.2201 24.8613 22.2148V12.7812H27.3223Z" fill="white"/>
<rect x="16" y="29" width="12" height="2" fill="white"/>
</svg>
