<?xml version="1.0" encoding="UTF-8" standalone="no"?>
<!-- Created with Inkscape (http://www.inkscape.org/) -->

<svg
   xmlns:dc="http://purl.org/dc/elements/1.1/"
   xmlns:cc="http://creativecommons.org/ns#"
   xmlns:rdf="http://www.w3.org/1999/02/22-rdf-syntax-ns#"
   xmlns:svg="http://www.w3.org/2000/svg"
   xmlns="http://www.w3.org/2000/svg"
   xmlns:sodipodi="http://sodipodi.sourceforge.net/DTD/sodipodi-0.dtd"
   xmlns:inkscape="http://www.inkscape.org/namespaces/inkscape"
   width="34"
   height="48"
   viewBox="0 0 8.9958331 12.7"
   version="1.1"
   id="svg3169"
   inkscape:version="0.92.4 (5da689c313, 2019-01-14)"
   sodipodi:docname="logo_lepszyweb_znak.svg">
  <defs
     id="defs3163" />
  <sodipodi:namedview
     id="base"
     pagecolor="#ffffff"
     bordercolor="#666666"
     borderopacity="1.0"
     inkscape:pageopacity="0.0"
     inkscape:pageshadow="2"
     inkscape:zoom="3.1775281"
     inkscape:cx="74.285714"
     inkscape:cy="38.571429"
     inkscape:document-units="mm"
     inkscape:current-layer="layer1"
     showgrid="false"
     units="px"
     inkscape:window-width="1920"
     inkscape:window-height="1001"
     inkscape:window-x="-9"
     inkscape:window-y="-9"
     inkscape:window-maximized="1" />
  <metadata
     id="metadata3166">
    <rdf:RDF>
      <cc:Work
         rdf:about="">
        <dc:format>image/svg+xml</dc:format>
        <dc:type
           rdf:resource="http://purl.org/dc/dcmitype/StillImage" />
        <dc:title></dc:title>
      </cc:Work>
    </rdf:RDF>
  </metadata>
  <g
     inkscape:label="Layer 1"
     inkscape:groupmode="layer"
     id="layer1"
     transform="translate(0,-284.29998)">
    <path
       id="path3151"
       d="m 5.7748243,288.98403 c 0.2728118,0.0573 0.5448527,0.11858 0.8052649,0.22243 1.0594795,0.42085 1.8151419,1.15636 2.2638905,2.20267 0.256536,0.59756 -0.1325319,1.23619 -0.7804658,1.29896 -0.382866,0.0372 -0.7603138,-0.19298 -0.9246219,-0.5743 -0.1627577,-0.37822 -0.4037932,-0.69212 -0.7386115,-0.93237 -1.2780373,-0.9161 -3.0730314,-0.21314 -3.3954458,1.32919 -0.2526642,1.20984 0.5944552,2.41192 1.8166923,2.57778 1.0013493,0.13563 1.9073698,-0.37977 2.3158144,-1.31835 0.2611918,-0.60065 1.002129,-0.76806 1.483429,-0.33481 0.2968401,0.26739 0.3890679,0.69134 0.2177826,1.07266 -0.5998776,1.33538 -1.6167317,2.15616 -3.0629535,2.40262 -2.1553824,0.36814 -4.2162156,-1.09901 -4.603733,-3.25284 -0.060451,-0.33637 -0.07053,-0.67351 -0.057355,-1.01375 0.003,-0.0132 0.0093,-0.0255 0.010067,-0.0387 0.019359,-0.28753 0.079053,-0.56732 0.1612072,-0.84324 0.1154809,-0.38519 0.2952895,-0.73861 0.5107507,-1.07652 0.012421,-0.007 0.017047,-0.0171 0.013192,-0.031 l -0.00171,8.7e-4 c 0.019359,-8.7e-4 0.027112,-0.0171 0.035635,-0.0294 0.3898473,-0.55106 0.8889694,-0.975 1.4873008,-1.28347 0.029467,-0.0132 0.058901,-0.0264 0.088356,-0.0403 0.6022038,-0.28211 1.2354119,-0.40767 1.9003968,-0.37745 0.1542301,0.006 0.3038128,0.0294 0.4549462,0.0396 z"
       class="st0"
       inkscape:connector-curvature="0"
       style="fill:#7e4795;stroke-width:0.07750393" />
    <path
       id="path3153"
       d="m 5.7748243,288.98403 c -0.1511333,-0.0106 -0.3014915,-0.0333 -0.4526248,-0.0403 -0.6649807,-0.0302 -1.2981891,0.0954 -1.9003925,0.37745 -0.029467,0.0139 -0.058905,0.0271 -0.088356,0.0403 0.015505,-0.0287 0.028697,-0.0581 0.045726,-0.0853 0.2301866,-0.35885 0.460373,-0.71769 0.6905595,-1.07653 0.420073,-0.65104 0.8409171,-1.3013 1.2602151,-1.95234 0.3216392,-0.49834 0.6409569,-0.99825 0.9641507,-1.49659 0.2635132,-0.4069 0.7587634,-0.55493 1.1827085,-0.35419 0.5215997,0.24723 0.6897841,0.87734 0.385967,1.34857 -0.3348139,0.51927 -0.6696322,1.03855 -1.0036751,1.55782 -0.361943,0.56113 -0.7231109,1.12148 -1.0842787,1.68106 z"
       class="st1"
       inkscape:connector-curvature="0"
       style="fill:#f08319;stroke-width:0.07750393" />
    <path
       id="path3155"
       d="m 4.0697367,288.20047 c -0.2301864,0.35884 -0.4611481,0.71768 -0.6905594,1.07653 -0.017046,0.0271 -0.031009,0.0566 -0.045726,0.0853 -0.5983314,0.30924 -1.098233,0.73242 -1.4873009,1.28346 -0.0093,0.0125 -0.016276,0.0287 -0.035635,0.0294 -0.00699,-0.0954 0.020173,-0.18757 0.034864,-0.28056 0.062002,-0.40303 0.1263299,-0.80605 0.1883363,-1.20907 0.031009,-0.20306 0.058901,-0.40612 0.088352,-0.60918 0.037991,-0.22941 0.076731,-0.45959 0.1131552,-0.68901 0.089906,-0.57275 0.1782624,-1.1455 0.2681646,-1.71826 0.057355,-0.36969 0.1178066,-0.73861 0.1728358,-1.1083 0.067429,-0.45263 0.4526204,-0.79365 0.9098967,-0.79985 0.4502948,-0.006 0.8494406,0.32629 0.926168,0.77116 0.03178,0.1806 -0.00776,0.35653 -0.034865,0.53323 -0.089906,0.58051 -0.1805839,1.16179 -0.2712655,1.74229 -0.046502,0.29839 -0.090677,0.59601 -0.1364081,0.89285 z"
       class="st2"
       inkscape:connector-curvature="0"
       style="fill:#df1465;stroke-width:0.07750393" />
    <path
       id="path3157"
       d="m 2.1212877,288.57713 c -0.029467,0.20306 -0.057351,0.40612 -0.088352,0.60919 -0.062007,0.40302 -0.1271094,0.80603 -0.1883363,1.20906 -0.013963,0.093 -0.041075,0.18445 -0.034864,0.28056 0,0 0.00171,-8.5e-4 0.00171,-8.5e-4 -0.023257,0.002 -0.012421,0.0193 -0.013192,0.031 -0.2146859,0.33792 -0.3952699,0.69134 -0.5107506,1.07653 -0.082154,0.27592 -0.1418349,0.55571 -0.1612073,0.84325 -8.566e-4,0.0132 -0.00622,0.0255 -0.010067,0.0387 -0.12788043,-0.58438 -0.25576084,-1.16799 -0.38441648,-1.75237 -0.20926352,-0.95097 -0.42007324,-1.90271 -0.62933249,-2.85369 -0.05657969,-0.25654 -0.122458,-0.51153 -0.16275765,-0.7704 -0.07673167,-0.48672 0.24723744,-0.93933 0.72698707,-1.03855 0.48207105,-0.0999 0.96182075,0.19066 1.08117765,0.67352 0.1131551,0.45649 0.2061626,0.91842 0.3084644,1.37802 0.020131,0.0922 0.042617,0.18368 0.065103,0.27591 z"
       class="st3"
       inkscape:connector-curvature="0"
       style="fill:#177784;stroke-width:0.07750393" />
    <path
       id="path3159"
       d="m 4.2061447,292.98866 c 0,-0.52548 0.4309222,-0.95796 0.9571734,-0.96028 0.5278016,-0.002 0.9641506,0.43402 0.9626002,0.96338 -0.00171,0.52548 -0.4355738,0.95717 -0.9610497,0.95639 -0.5262512,-0.002 -0.9587239,-0.43479 -0.9587239,-0.95949 z"
       class="st4"
       inkscape:connector-curvature="0"
       style="fill:#7e4796;stroke-width:0.07750393" />
    <path
       id="path3161"
       d="m 1.7973229,290.70616 c 0.00171,-0.0116 -0.0093,-0.0287 0.013191,-0.031 0.00466,0.0139 -8.566e-4,0.0241 -0.013191,0.031 z"
       class="st2"
       inkscape:connector-curvature="0"
       style="fill:#df1465;stroke-width:0.07750393" />
  </g>
</svg>
