<?xml version="1.0" encoding="UTF-8" standalone="no"?>
<!-- Generator: Adobe Illustrator 23.0.6, SVG Export Plug-In . SVG Version: 6.00 Build 0)  -->

<svg
   xmlns:dc="http://purl.org/dc/elements/1.1/"
   xmlns:cc="http://creativecommons.org/ns#"
   xmlns:rdf="http://www.w3.org/1999/02/22-rdf-syntax-ns#"
   xmlns:svg="http://www.w3.org/2000/svg"
   xmlns="http://www.w3.org/2000/svg"
   xmlns:sodipodi="http://sodipodi.sourceforge.net/DTD/sodipodi-0.dtd"
   xmlns:inkscape="http://www.inkscape.org/namespaces/inkscape"
   version="1.1"
   id="Warstwa_1"
   x="0px"
   y="0px"
   viewBox="0 0 659.99999 179.99999"
   xml:space="preserve"
   sodipodi:docname="lepszyweb.svg"
   width="660"
   height="180"
   inkscape:version="0.92.4 (5da689c313, 2019-01-14)"><metadata
   id="metadata119"><rdf:RDF><cc:Work
       rdf:about=""><dc:format>image/svg+xml</dc:format><dc:type
         rdf:resource="http://purl.org/dc/dcmitype/StillImage" /><dc:title /></cc:Work></rdf:RDF></metadata><defs
   id="defs117" /><sodipodi:namedview
   pagecolor="#ffffff"
   bordercolor="#666666"
   borderopacity="1"
   objecttolerance="10"
   gridtolerance="10"
   guidetolerance="10"
   inkscape:pageopacity="0"
   inkscape:pageshadow="2"
   inkscape:window-width="1920"
   inkscape:window-height="1001"
   id="namedview115"
   showgrid="false"
   inkscape:zoom="1.4176537"
   inkscape:cx="298.9012"
   inkscape:cy="73.148817"
   inkscape:window-x="-9"
   inkscape:window-y="-9"
   inkscape:window-maximized="1"
   inkscape:current-layer="Warstwa_1" />
<style
   type="text/css"
   id="style2">
	.st0{fill:#7E4795;}
	.st1{fill:#F08319;}
	.st2{fill:#DF1465;}
	.st3{fill:#177784;}
	.st4{fill:#7E4796;}
	.st5{display:none;}
	.st6{display:inline;fill:#5C5C5C;}
	.st7{display:inline;fill:#7A7A7A;}
	.st8{display:inline;fill:#999999;}
	.st9{display:inline;fill:#BAB9B9;}
	.st10{display:inline;fill:#DF1465;}
</style>


<g
   class="st5"
   id="g112"
   style="display:none"
   transform="translate(0,-415.28003)">
	<path
   class="st6"
   d="m 171.46,274.6 c 3.53,0.74 7.05,1.54 10.42,2.88 13.72,5.45 23.49,14.97 29.3,28.51 3.32,7.74 -1.71,16 -10.1,16.81 -4.96,0.48 -9.84,-2.5 -11.97,-7.43 -2.11,-4.89 -5.23,-8.96 -9.56,-12.07 -16.55,-11.86 -39.78,-2.76 -43.95,17.21 -3.27,15.66 7.7,31.22 23.52,33.37 12.97,1.76 24.69,-4.92 29.98,-17.07 3.38,-7.77 12.98,-9.94 19.2,-4.34 3.84,3.46 5.04,8.95 2.82,13.89 -7.77,17.29 -20.93,27.91 -39.65,31.11 -27.9,4.76 -54.58,-14.23 -59.59,-42.11 -0.78,-4.35 -0.91,-8.72 -0.74,-13.12 0.04,-0.17 0.12,-0.33 0.13,-0.5 0.26,-3.72 1.02,-7.34 2.09,-10.92 1.49,-4.98 3.83,-9.56 6.61,-13.93 0.16,-0.09 0.22,-0.22 0.17,-0.41 l -0.02,0.01 c 0.25,-0.01 0.35,-0.22 0.46,-0.38 5.04,-7.13 11.51,-12.62 19.26,-16.62 0.38,-0.17 0.77,-0.34 1.15,-0.52 7.8,-3.65 15.99,-5.28 24.6,-4.89 1.97,0.09 3.91,0.39 5.87,0.52 z"
   id="path100"
   inkscape:connector-curvature="0"
   style="display:inline;fill:#5c5c5c" />
	<path
   class="st7"
   d="m 171.46,274.6 c -1.96,-0.13 -3.9,-0.43 -5.86,-0.52 -8.61,-0.39 -16.8,1.24 -24.6,4.89 -0.38,0.18 -0.76,0.35 -1.15,0.52 0.2,-0.37 0.37,-0.75 0.59,-1.1 2.98,-4.65 5.96,-9.29 8.94,-13.94 5.44,-8.43 10.88,-16.85 16.32,-25.28 4.16,-6.45 8.3,-12.92 12.48,-19.37 3.41,-5.27 9.82,-7.18 15.31,-4.58 6.76,3.2 8.93,11.36 4.99,17.46 -4.34,6.72 -8.67,13.44 -13,20.16 -4.68,7.26 -9.35,14.51 -14.02,21.76 z"
   id="path102"
   inkscape:connector-curvature="0"
   style="display:inline;fill:#7a7a7a" />
	<path
   class="st8"
   d="m 149.38,264.45 c -2.98,4.64 -5.97,9.29 -8.94,13.94 -0.22,0.35 -0.4,0.73 -0.59,1.1 -7.75,4 -14.21,9.48 -19.26,16.62 -0.12,0.16 -0.21,0.37 -0.46,0.38 -0.09,-1.24 0.26,-2.42 0.45,-3.63 0.8,-5.22 1.64,-10.43 2.44,-15.65 0.4,-2.63 0.76,-5.26 1.14,-7.89 0.49,-2.97 1,-5.94 1.46,-8.92 1.16,-7.41 2.31,-14.83 3.47,-22.24 0.75,-4.78 1.53,-9.56 2.24,-14.34 0.87,-5.86 5.86,-10.27 11.78,-10.35 5.83,-0.08 10.99,4.22 11.99,9.99 0.41,2.34 -0.1,4.61 -0.45,6.9 -1.16,7.52 -2.34,15.03 -3.51,22.55 -0.59,3.85 -1.17,7.7 -1.76,11.54 z"
   id="path104"
   inkscape:connector-curvature="0"
   style="display:inline;fill:#999999" />
	<path
   class="st9"
   d="m 124.16,269.33 c -0.38,2.63 -0.74,5.26 -1.14,7.89 -0.8,5.22 -1.64,10.43 -2.44,15.65 -0.18,1.2 -0.53,2.39 -0.45,3.63 0,0 0.02,-0.01 0.02,-0.01 -0.3,0.03 -0.16,0.25 -0.17,0.41 -2.78,4.37 -5.12,8.95 -6.61,13.93 -1.07,3.57 -1.84,7.19 -2.09,10.92 -0.01,0.17 -0.09,0.33 -0.13,0.5 -1.66,-7.56 -3.31,-15.12 -4.98,-22.68 -2.71,-12.31 -5.44,-24.63 -8.15,-36.94 -0.73,-3.32 -1.58,-6.62 -2.11,-9.97 -0.99,-6.3 3.2,-12.16 9.41,-13.45 6.24,-1.29 12.45,2.47 14,8.72 1.46,5.91 2.67,11.89 4,17.84 0.26,1.18 0.55,2.37 0.84,3.56 z"
   id="path106"
   inkscape:connector-curvature="0"
   style="display:inline;fill:#bab9b9" />
	<path
   class="st6"
   d="m 151.15,326.43 c 0,-6.81 5.58,-12.4 12.39,-12.43 6.83,-0.03 12.48,5.62 12.46,12.47 -0.02,6.8 -5.64,12.39 -12.44,12.38 -6.81,-0.02 -12.41,-5.62 -12.41,-12.42 z"
   id="path108"
   inkscape:connector-curvature="0"
   style="display:inline;fill:#5c5c5c" />
	<path
   class="st10"
   d="m 119.97,296.89 c 0.02,-0.15 -0.12,-0.37 0.17,-0.41 0.06,0.18 -0.01,0.32 -0.17,0.41 z"
   id="path110"
   inkscape:connector-curvature="0"
   style="display:inline;fill:#df1465" />
</g>
<rect
   style="opacity:1;fill:none;fill-opacity:1;fill-rule:nonzero;stroke:none;stroke-width:1.01945186;stroke-linecap:round;stroke-linejoin:round;stroke-miterlimit:4;stroke-dasharray:none;stroke-dashoffset:0;stroke-opacity:1"
   id="rect976"
   width="660"
   height="180"
   x="0"
   y="0" /><g
   id="g84"
   transform="matrix(0.90549046,0,0,0.90549046,-57.497815,-178.46851)"
   style="fill:#ffffff">
	<polygon
   points="244.06,323.64 244.06,261.41 252.44,261.41 252.44,316.56 279.36,316.56 279.36,323.64 "
   id="polygon4"
   style="fill:#ffffff" />
	<path
   inkscape:connector-curvature="0"
   d="m 319.79,317.48 c -0.96,1.16 -2.1,2.16 -3.43,3.02 -1.34,0.85 -2.76,1.56 -4.28,2.11 -1.52,0.55 -3.09,0.96 -4.71,1.24 -1.62,0.28 -3.23,0.41 -4.82,0.41 -3.04,0 -5.84,-0.52 -8.4,-1.54 -2.56,-1.03 -4.78,-2.53 -6.64,-4.52 -1.87,-1.98 -3.32,-4.44 -4.36,-7.36 -1.04,-2.92 -1.56,-6.28 -1.56,-10.07 0,-3.07 0.47,-5.94 1.41,-8.6 0.94,-2.66 2.29,-4.97 4.06,-6.93 1.76,-1.95 3.92,-3.49 6.47,-4.6 2.55,-1.11 5.41,-1.67 8.6,-1.67 2.64,0 5.08,0.44 7.32,1.32 2.24,0.89 4.18,2.16 5.82,3.82 1.63,1.67 2.91,3.72 3.84,6.17 0.93,2.45 1.39,5.23 1.39,8.36 0,1.21 -0.13,2.03 -0.39,2.43 -0.26,0.41 -0.75,0.61 -1.47,0.61 h -29.4 c 0.09,2.78 0.47,5.2 1.15,7.25 0.68,2.05 1.63,3.77 2.84,5.15 1.21,1.37 2.67,2.4 4.34,3.08 1.68,0.68 3.56,1.02 5.64,1.02 1.94,0 3.61,-0.22 5.01,-0.67 1.41,-0.45 2.61,-0.94 3.63,-1.45 1.01,-0.52 1.86,-1.01 2.54,-1.45 0.68,-0.45 1.27,-0.68 1.76,-0.68 0.64,0 1.13,0.25 1.48,0.74 z m -6.26,-20.63 c 0,-1.79 -0.25,-3.44 -0.76,-4.93 -0.51,-1.49 -1.25,-2.78 -2.21,-3.86 -0.97,-1.09 -2.15,-1.93 -3.54,-2.52 -1.39,-0.6 -2.96,-0.89 -4.73,-0.89 -3.71,0 -6.64,1.08 -8.79,3.23 -2.16,2.16 -3.49,5.15 -4.01,8.97 z"
   id="path6"
   style="fill:#ffffff" />
	<path
   inkscape:connector-curvature="0"
   d="m 337.77,286.47 c 1.85,-2.29 3.99,-4.13 6.42,-5.52 2.43,-1.39 5.21,-2.08 8.34,-2.08 2.54,0 4.85,0.48 6.9,1.45 2.06,0.97 3.81,2.41 5.26,4.3 1.44,1.89 2.56,4.25 3.34,7.05 0.78,2.81 1.17,6.04 1.17,9.69 0,3.24 -0.43,6.26 -1.31,9.06 -0.87,2.79 -2.12,5.21 -3.75,7.25 -1.64,2.04 -3.63,3.65 -6,4.82 -2.36,1.17 -5.01,1.76 -7.97,1.76 -2.69,0 -5,-0.46 -6.93,-1.37 -1.93,-0.92 -3.63,-2.18 -5.1,-3.8 v 19.45 h -7.77 v -58.88 h 4.64 c 1.1,0 1.78,0.54 2.04,1.61 z m 0.39,26.58 c 1.42,1.91 2.97,3.26 4.65,4.04 1.68,0.78 3.56,1.17 5.64,1.17 4.11,0 7.27,-1.46 9.47,-4.39 2.2,-2.92 3.3,-7.09 3.3,-12.51 0,-2.86 -0.26,-5.33 -0.76,-7.38 -0.5,-2.06 -1.24,-3.74 -2.19,-5.06 -0.96,-1.32 -2.13,-2.28 -3.52,-2.88 -1.39,-0.61 -2.97,-0.92 -4.74,-0.92 -2.52,0 -4.73,0.58 -6.62,1.74 -1.9,1.15 -3.64,2.79 -5.23,4.91 z"
   id="path8"
   style="fill:#ffffff" />
	<path
   inkscape:connector-curvature="0"
   d="m 405.12,286.9 c -0.35,0.64 -0.89,0.96 -1.61,0.96 -0.43,0 -0.93,-0.16 -1.47,-0.48 -0.55,-0.32 -1.22,-0.67 -2.02,-1.06 -0.8,-0.39 -1.74,-0.75 -2.84,-1.09 -1.1,-0.33 -2.4,-0.5 -3.91,-0.5 -1.3,0 -2.48,0.17 -3.52,0.5 -1.04,0.34 -1.94,0.79 -2.67,1.37 -0.74,0.58 -1.3,1.25 -1.69,2.02 -0.39,0.76 -0.59,1.6 -0.59,2.5 0,1.13 0.33,2.07 0.98,2.82 0.65,0.75 1.51,1.4 2.58,1.95 1.07,0.55 2.29,1.04 3.65,1.46 1.36,0.42 2.76,0.86 4.19,1.34 1.43,0.48 2.83,1.01 4.19,1.59 1.36,0.58 2.57,1.3 3.65,2.17 1.07,0.87 1.93,1.93 2.58,3.19 0.65,1.26 0.98,2.78 0.98,4.54 0,2.03 -0.36,3.9 -1.08,5.62 -0.72,1.72 -1.79,3.21 -3.21,4.47 -1.42,1.26 -3.15,2.25 -5.21,2.98 -2.06,0.72 -4.43,1.08 -7.12,1.08 -3.07,0 -5.85,-0.5 -8.34,-1.49 -2.49,-1 -4.6,-2.28 -6.34,-3.85 l 1.82,-2.95 c 0.23,-0.38 0.5,-0.67 0.82,-0.87 0.32,-0.2 0.72,-0.3 1.21,-0.3 0.52,0 1.07,0.2 1.65,0.61 0.58,0.4 1.28,0.85 2.11,1.35 0.82,0.49 1.83,0.94 3.02,1.34 1.18,0.41 2.66,0.61 4.43,0.61 1.5,0 2.82,-0.2 3.95,-0.59 1.13,-0.39 2.07,-0.92 2.82,-1.59 0.75,-0.67 1.31,-1.43 1.67,-2.3 0.36,-0.87 0.54,-1.8 0.54,-2.78 0,-1.21 -0.33,-2.22 -0.98,-3.02 -0.65,-0.79 -1.51,-1.48 -2.59,-2.04 -1.07,-0.56 -2.29,-1.05 -3.66,-1.47 -1.38,-0.42 -2.78,-0.86 -4.21,-1.33 -1.43,-0.46 -2.84,-0.99 -4.21,-1.58 -1.38,-0.6 -2.6,-1.34 -3.67,-2.24 -1.07,-0.9 -1.93,-2 -2.58,-3.32 -0.65,-1.32 -0.98,-2.92 -0.98,-4.8 0,-1.68 0.35,-3.29 1.04,-4.85 0.69,-1.55 1.71,-2.91 3.04,-4.08 1.33,-1.17 2.97,-2.11 4.91,-2.8 1.94,-0.69 4.16,-1.04 6.64,-1.04 2.89,0 5.5,0.45 7.79,1.37 2.3,0.91 4.29,2.16 5.97,3.76 z"
   id="path10"
   style="fill:#ffffff" />
	<path
   inkscape:connector-curvature="0"
   d="m 447.89,282.95 c 0,0.55 -0.09,1.08 -0.28,1.61 -0.19,0.52 -0.44,0.97 -0.76,1.34 l -23.84,31.7 h 24.06 v 6.04 h -33.13 v -3.21 c 0,-0.38 0.09,-0.82 0.26,-1.33 0.17,-0.5 0.43,-0.99 0.78,-1.45 l 23.97,-31.92 h -23.67 v -6.07 h 32.61 z"
   id="path12"
   style="fill:#ffffff" />
	<path
   inkscape:connector-curvature="0"
   d="m 495.18,279.65 -24.53,56.97 c -0.26,0.58 -0.59,1.04 -0.98,1.39 -0.39,0.35 -0.99,0.52 -1.8,0.52 h -5.73 l 8.03,-17.46 -18.15,-41.43 h 6.68 c 0.67,0 1.2,0.16 1.59,0.5 0.39,0.33 0.66,0.7 0.8,1.11 l 11.77,27.7 c 0.46,1.21 0.85,2.49 1.17,3.82 0.4,-1.36 0.84,-2.65 1.3,-3.87 l 11.42,-27.66 c 0.17,-0.46 0.47,-0.84 0.89,-1.15 0.42,-0.3 0.89,-0.45 1.41,-0.45 h 6.13 z"
   id="path14"
   style="fill:#ffffff" />
	<path
   inkscape:connector-curvature="0"
   d="m 583.72,261.41 -19.41,62.23 h -7.56 l -15.76,-47.46 c -0.14,-0.46 -0.28,-0.96 -0.41,-1.48 -0.13,-0.52 -0.27,-1.07 -0.41,-1.65 -0.14,0.58 -0.29,1.13 -0.43,1.65 -0.14,0.52 -0.29,1.02 -0.43,1.48 l -15.85,47.46 h -7.56 l -19.41,-62.23 h 6.99 c 0.75,0 1.38,0.19 1.89,0.57 0.5,0.38 0.83,0.85 0.98,1.43 l 12.85,43.25 c 0.2,0.78 0.4,1.62 0.59,2.52 0.19,0.9 0.37,1.85 0.54,2.87 0.21,-1.01 0.41,-1.98 0.63,-2.88 0.22,-0.92 0.45,-1.75 0.72,-2.5 l 14.63,-43.25 c 0.17,-0.49 0.51,-0.95 1.02,-1.37 0.5,-0.42 1.12,-0.63 1.84,-0.63 h 2.43 c 0.75,0 1.36,0.19 1.82,0.57 0.46,0.38 0.81,0.85 1.04,1.43 l 14.59,43.25 c 0.26,0.75 0.5,1.56 0.72,2.43 0.22,0.87 0.43,1.78 0.63,2.73 0.14,-0.96 0.31,-1.86 0.48,-2.73 0.17,-0.87 0.36,-1.68 0.56,-2.43 l 12.9,-43.25 c 0.14,-0.52 0.47,-0.98 0.98,-1.39 0.5,-0.4 1.12,-0.61 1.84,-0.61 h 6.56 z"
   id="path16"
   style="fill:#ffffff" />
	<path
   inkscape:connector-curvature="0"
   d="m 622.41,317.48 c -0.96,1.16 -2.1,2.16 -3.43,3.02 -1.34,0.85 -2.76,1.56 -4.28,2.11 -1.52,0.55 -3.09,0.96 -4.71,1.24 -1.62,0.28 -3.23,0.41 -4.82,0.41 -3.04,0 -5.84,-0.52 -8.4,-1.54 -2.56,-1.03 -4.78,-2.53 -6.64,-4.52 -1.87,-1.98 -3.33,-4.44 -4.36,-7.36 -1.04,-2.92 -1.56,-6.28 -1.56,-10.07 0,-3.07 0.47,-5.94 1.41,-8.6 0.94,-2.66 2.29,-4.97 4.06,-6.93 1.76,-1.95 3.92,-3.49 6.47,-4.6 2.55,-1.11 5.41,-1.67 8.6,-1.67 2.64,0 5.08,0.44 7.32,1.32 2.24,0.89 4.18,2.16 5.82,3.82 1.63,1.67 2.91,3.72 3.84,6.17 0.93,2.45 1.39,5.23 1.39,8.36 0,1.21 -0.13,2.03 -0.39,2.43 -0.26,0.41 -0.75,0.61 -1.47,0.61 h -29.4 c 0.09,2.78 0.47,5.2 1.15,7.25 0.68,2.05 1.63,3.77 2.84,5.15 1.21,1.37 2.67,2.4 4.34,3.08 1.68,0.68 3.56,1.02 5.64,1.02 1.94,0 3.61,-0.22 5.01,-0.67 1.41,-0.45 2.61,-0.94 3.63,-1.45 1.01,-0.52 1.86,-1.01 2.54,-1.45 0.68,-0.45 1.27,-0.68 1.76,-0.68 0.64,0 1.13,0.25 1.48,0.74 z m -6.25,-20.63 c 0,-1.79 -0.25,-3.44 -0.76,-4.93 -0.51,-1.49 -1.25,-2.78 -2.21,-3.86 -0.97,-1.09 -2.15,-1.93 -3.54,-2.52 -1.39,-0.6 -2.96,-0.89 -4.73,-0.89 -3.71,0 -6.64,1.08 -8.79,3.23 -2.16,2.16 -3.49,5.15 -4.01,8.97 z"
   id="path18"
   style="fill:#ffffff" />
	<path
   inkscape:connector-curvature="0"
   d="m 640.78,285.99 c 1.85,-2.14 3.94,-3.85 6.28,-5.13 2.33,-1.27 5.01,-1.91 8.05,-1.91 2.57,0 4.9,0.49 6.97,1.48 2.07,0.99 3.83,2.41 5.27,4.28 1.45,1.87 2.56,4.13 3.32,6.8 0.76,2.66 1.15,5.66 1.15,8.99 0,3.56 -0.43,6.8 -1.3,9.73 -0.87,2.92 -2.12,5.42 -3.76,7.49 -1.64,2.07 -3.62,3.68 -5.97,4.82 -2.34,1.14 -4.98,1.72 -7.9,1.72 -2.9,0 -5.33,-0.54 -7.32,-1.63 -1.98,-1.09 -3.71,-2.63 -5.19,-4.63 l -0.39,3.99 c -0.23,1.1 -0.9,1.65 -2,1.65 h -5 v -63.96 h 7.77 v 26.31 z m 0,27.06 c 1.42,1.91 2.97,3.26 4.67,4.04 1.69,0.78 3.55,1.17 5.58,1.17 4.14,0 7.31,-1.46 9.51,-4.39 2.2,-2.92 3.3,-7.28 3.3,-13.07 0,-5.38 -0.98,-9.34 -2.93,-11.88 -1.95,-2.53 -4.74,-3.8 -8.36,-3.8 -2.52,0 -4.71,0.58 -6.58,1.74 -1.87,1.15 -3.59,2.79 -5.19,4.91 z"
   id="path20"
   style="fill:#ffffff" />
	<path
   inkscape:connector-curvature="0"
   d="m 680.77,318.87 c 0,-0.75 0.14,-1.46 0.41,-2.13 0.28,-0.66 0.65,-1.24 1.13,-1.73 0.48,-0.49 1.05,-0.89 1.72,-1.17 0.66,-0.29 1.37,-0.43 2.13,-0.43 0.75,0 1.46,0.14 2.13,0.43 0.67,0.29 1.25,0.68 1.74,1.17 0.49,0.49 0.89,1.07 1.17,1.73 0.29,0.67 0.43,1.38 0.43,2.13 0,0.78 -0.14,1.49 -0.43,2.15 -0.29,0.65 -0.68,1.22 -1.17,1.71 -0.49,0.49 -1.07,0.88 -1.74,1.15 -0.67,0.27 -1.38,0.41 -2.13,0.41 -0.75,0 -1.46,-0.14 -2.13,-0.41 -0.67,-0.28 -1.24,-0.66 -1.72,-1.15 -0.48,-0.49 -0.85,-1.06 -1.13,-1.71 -0.27,-0.66 -0.41,-1.38 -0.41,-2.15"
   id="path22"
   style="fill:#ffffff" />
	<path
   inkscape:connector-curvature="0"
   d="m 710.39,286.47 c 1.85,-2.29 3.99,-4.13 6.42,-5.52 2.43,-1.39 5.21,-2.08 8.34,-2.08 2.54,0 4.85,0.48 6.9,1.45 2.06,0.97 3.81,2.41 5.26,4.3 1.44,1.89 2.56,4.25 3.34,7.05 0.78,2.81 1.17,6.04 1.17,9.69 0,3.24 -0.43,6.26 -1.31,9.06 -0.87,2.79 -2.12,5.21 -3.75,7.25 -1.64,2.04 -3.63,3.65 -6,4.82 -2.36,1.17 -5.01,1.76 -7.97,1.76 -2.69,0 -5,-0.46 -6.93,-1.37 -1.93,-0.92 -3.63,-2.18 -5.1,-3.8 v 19.45 H 703 v -58.88 h 4.64 c 1.1,0 1.78,0.54 2.04,1.61 z m 0.39,26.58 c 1.42,1.91 2.97,3.26 4.65,4.04 1.68,0.78 3.56,1.17 5.64,1.17 4.11,0 7.27,-1.46 9.47,-4.39 2.2,-2.92 3.3,-7.09 3.3,-12.51 0,-2.86 -0.26,-5.33 -0.76,-7.38 -0.5,-2.06 -1.24,-3.74 -2.19,-5.06 -0.96,-1.32 -2.13,-2.28 -3.52,-2.88 -1.39,-0.61 -2.97,-0.92 -4.74,-0.92 -2.52,0 -4.73,0.58 -6.62,1.74 -1.9,1.15 -3.64,2.79 -5.23,4.91 z"
   id="path24"
   style="fill:#ffffff" />
	<rect
   x="752.38"
   y="259.67999"
   width="7.73"
   height="63.959999"
   id="rect26"
   style="fill:#ffffff" />
	<path
   inkscape:connector-curvature="0"
   d="m 252.08,343.29 c 3.15,0 5.52,0.69 7.11,2.06 1.6,1.38 2.4,3.35 2.4,5.9 0,1.18 -0.22,2.26 -0.66,3.24 -0.44,0.99 -1.07,1.84 -1.9,2.55 -0.82,0.71 -1.82,1.27 -2.99,1.67 -1.17,0.4 -2.49,0.6 -3.96,0.6 h -4.98 v 10.81 h -1.96 V 343.3 h 6.94 z m 0,14.46 c 1.17,0 2.23,-0.16 3.16,-0.49 0.94,-0.33 1.73,-0.78 2.38,-1.37 0.65,-0.58 1.15,-1.27 1.5,-2.06 0.35,-0.79 0.52,-1.65 0.52,-2.59 0,-2.06 -0.63,-3.64 -1.89,-4.76 -1.26,-1.11 -3.15,-1.67 -5.67,-1.67 h -4.98 v 12.93 h 4.98 z"
   id="path28"
   style="fill:#ffffff" />
	<path
   inkscape:connector-curvature="0"
   d="m 266.86,355.8 c 0.29,-0.77 0.62,-1.46 0.99,-2.05 0.37,-0.6 0.8,-1.11 1.29,-1.53 0.48,-0.42 1.03,-0.74 1.63,-0.96 0.6,-0.22 1.27,-0.33 2,-0.33 0.39,0 0.77,0.03 1.16,0.1 0.38,0.07 0.71,0.2 1,0.37 l -0.15,1.25 c -0.06,0.21 -0.18,0.3 -0.36,0.3 -0.15,0 -0.38,-0.04 -0.69,-0.13 -0.31,-0.09 -0.72,-0.13 -1.22,-0.13 -0.73,0 -1.38,0.11 -1.94,0.33 -0.56,0.22 -1.07,0.56 -1.52,1 -0.45,0.44 -0.84,0.99 -1.17,1.64 -0.34,0.65 -0.64,1.4 -0.92,2.25 v 12.21 h -1.82 v -18.86 h 0.97 c 0.22,0 0.37,0.05 0.45,0.13 0.09,0.09 0.14,0.24 0.17,0.45 z"
   id="path30"
   style="fill:#ffffff" />
	<path
   inkscape:connector-curvature="0"
   d="m 276.96,353.92 c 0.99,-0.99 2.02,-1.73 3.11,-2.23 1.08,-0.5 2.32,-0.76 3.7,-0.76 1.01,0 1.89,0.16 2.66,0.48 0.75,0.32 1.39,0.79 1.88,1.38 0.5,0.6 0.88,1.33 1.13,2.18 0.25,0.85 0.38,1.8 0.38,2.85 v 12.28 h -0.72 c -0.38,0 -0.62,-0.18 -0.7,-0.53 l -0.27,-2.43 c -0.52,0.5 -1.03,0.96 -1.54,1.37 -0.51,0.4 -1.04,0.74 -1.6,1.02 -0.56,0.28 -1.15,0.49 -1.8,0.64 -0.65,0.15 -1.35,0.23 -2.12,0.23 -0.65,0 -1.27,-0.09 -1.88,-0.28 -0.6,-0.19 -1.14,-0.48 -1.62,-0.88 -0.47,-0.39 -0.85,-0.9 -1.14,-1.5 -0.28,-0.62 -0.42,-1.35 -0.42,-2.21 0,-0.8 0.23,-1.53 0.68,-2.22 0.46,-0.68 1.17,-1.28 2.14,-1.78 0.97,-0.5 2.22,-0.91 3.74,-1.21 1.52,-0.3 3.35,-0.48 5.49,-0.53 v -1.97 c 0,-1.75 -0.38,-3.09 -1.13,-4.03 -0.75,-0.94 -1.87,-1.41 -3.35,-1.41 -0.91,0 -1.69,0.13 -2.33,0.38 -0.64,0.25 -1.18,0.53 -1.62,0.83 -0.44,0.31 -0.8,0.58 -1.08,0.83 -0.28,0.25 -0.51,0.38 -0.7,0.38 -0.14,0 -0.25,-0.03 -0.34,-0.09 -0.09,-0.07 -0.16,-0.14 -0.23,-0.25 z m 11.09,7.08 c -1.79,0.06 -3.34,0.21 -4.63,0.43 -1.3,0.22 -2.37,0.52 -3.2,0.9 -0.84,0.38 -1.46,0.83 -1.87,1.36 -0.4,0.52 -0.61,1.12 -0.61,1.79 0,0.63 0.1,1.18 0.31,1.64 0.21,0.46 0.49,0.84 0.83,1.14 0.35,0.3 0.75,0.52 1.2,0.66 0.46,0.14 0.93,0.21 1.42,0.21 0.73,0 1.41,-0.08 2.02,-0.24 0.62,-0.16 1.18,-0.38 1.71,-0.66 0.53,-0.28 1.02,-0.62 1.47,-1.01 0.45,-0.39 0.9,-0.81 1.35,-1.27 z"
   id="path32"
   style="fill:#ffffff" />
	<path
   inkscape:connector-curvature="0"
   d="m 307.88,353.77 c -0.06,0.07 -0.12,0.12 -0.18,0.16 -0.05,0.05 -0.13,0.06 -0.24,0.06 -0.12,0 -0.3,-0.08 -0.51,-0.25 -0.22,-0.17 -0.51,-0.36 -0.88,-0.56 -0.37,-0.2 -0.82,-0.39 -1.37,-0.56 -0.55,-0.17 -1.22,-0.26 -2,-0.26 -1.09,0 -2.05,0.2 -2.89,0.58 -0.84,0.39 -1.55,0.94 -2.13,1.66 -0.58,0.72 -1.02,1.6 -1.32,2.61 -0.3,1.02 -0.44,2.17 -0.44,3.45 0,1.32 0.15,2.5 0.46,3.52 0.31,1.02 0.75,1.88 1.32,2.59 0.57,0.7 1.26,1.24 2.07,1.6 0.81,0.37 1.71,0.55 2.69,0.55 0.91,0 1.67,-0.1 2.28,-0.32 0.61,-0.21 1.12,-0.45 1.52,-0.7 0.4,-0.25 0.71,-0.48 0.94,-0.7 0.23,-0.22 0.41,-0.33 0.57,-0.33 0.15,0 0.28,0.07 0.38,0.19 l 0.47,0.61 c -0.29,0.38 -0.66,0.73 -1.1,1.06 -0.44,0.33 -0.95,0.61 -1.5,0.85 -0.56,0.24 -1.16,0.43 -1.81,0.56 -0.65,0.13 -1.33,0.2 -2.04,0.2 -1.2,0 -2.3,-0.22 -3.29,-0.66 -0.99,-0.44 -1.84,-1.07 -2.56,-1.89 -0.71,-0.83 -1.27,-1.84 -1.67,-3.04 -0.4,-1.2 -0.59,-2.57 -0.59,-4.1 0,-1.44 0.19,-2.76 0.57,-3.94 0.38,-1.19 0.94,-2.21 1.67,-3.07 0.73,-0.86 1.63,-1.53 2.68,-2 1.06,-0.47 2.27,-0.71 3.63,-0.71 1.22,0 2.31,0.2 3.26,0.59 0.95,0.39 1.78,0.92 2.48,1.59 z"
   id="path34"
   style="fill:#ffffff" />
	<path
   inkscape:connector-curvature="0"
   d="m 319.54,350.95 c 1.35,0 2.56,0.23 3.63,0.69 1.07,0.46 1.97,1.12 2.7,1.96 0.73,0.85 1.29,1.87 1.68,3.07 0.39,1.19 0.58,2.53 0.58,4.01 0,1.48 -0.19,2.81 -0.58,4 -0.38,1.19 -0.94,2.21 -1.68,3.05 -0.73,0.85 -1.63,1.5 -2.7,1.95 -1.07,0.45 -2.28,0.68 -3.63,0.68 -1.35,0 -2.56,-0.23 -3.63,-0.68 -1.07,-0.45 -1.97,-1.1 -2.71,-1.95 -0.74,-0.84 -1.3,-1.86 -1.69,-3.05 -0.38,-1.19 -0.58,-2.52 -0.58,-4 0,-1.48 0.2,-2.82 0.58,-4.01 0.39,-1.2 0.95,-2.22 1.69,-3.07 0.74,-0.84 1.65,-1.5 2.71,-1.96 1.06,-0.46 2.28,-0.69 3.63,-0.69 m 0,17.99 c 1.12,0 2.11,-0.19 2.94,-0.58 0.84,-0.38 1.54,-0.94 2.11,-1.66 0.56,-0.72 0.98,-1.59 1.26,-2.6 0.28,-1.02 0.42,-2.16 0.42,-3.42 0,-1.25 -0.14,-2.39 -0.42,-3.41 -0.28,-1.02 -0.7,-1.9 -1.26,-2.63 -0.56,-0.73 -1.27,-1.29 -2.11,-1.68 -0.84,-0.39 -1.82,-0.59 -2.94,-0.59 -1.13,0 -2.11,0.2 -2.95,0.59 -0.84,0.39 -1.54,0.95 -2.1,1.68 -0.57,0.73 -0.99,1.6 -1.27,2.63 -0.28,1.02 -0.43,2.16 -0.43,3.41 0,1.26 0.14,2.4 0.43,3.42 0.29,1.01 0.71,1.88 1.27,2.6 0.56,0.72 1.26,1.27 2.1,1.66 0.84,0.39 1.82,0.58 2.95,0.58"
   id="path36"
   style="fill:#ffffff" />
	<path
   inkscape:connector-curvature="0"
   d="m 357.28,351.25 -6.29,18.86 h -1.35 c -0.22,0 -0.36,-0.13 -0.43,-0.4 l -5.16,-15.31 c -0.06,-0.19 -0.12,-0.38 -0.17,-0.57 -0.05,-0.19 -0.09,-0.38 -0.13,-0.57 -0.06,0.38 -0.16,0.75 -0.29,1.14 l -5.23,15.31 c -0.08,0.27 -0.23,0.4 -0.46,0.4 h -1.29 l -6.29,-18.86 h 1.36 c 0.18,0 0.32,0.05 0.44,0.14 0.12,0.09 0.19,0.2 0.23,0.32 l 4.76,14.88 c 0.07,0.29 0.14,0.57 0.21,0.84 0.07,0.27 0.11,0.54 0.15,0.8 0.08,-0.27 0.15,-0.53 0.23,-0.8 0.07,-0.27 0.16,-0.55 0.27,-0.84 l 5.04,-15.01 c 0.09,-0.28 0.26,-0.42 0.53,-0.42 h 0.74 c 0.28,0 0.46,0.14 0.55,0.42 l 5,15.01 c 0.09,0.29 0.17,0.57 0.25,0.83 0.08,0.27 0.14,0.53 0.21,0.79 0.05,-0.27 0.1,-0.53 0.16,-0.79 0.05,-0.27 0.13,-0.54 0.22,-0.83 l 4.8,-14.88 c 0.05,-0.14 0.13,-0.25 0.25,-0.33 0.11,-0.08 0.25,-0.12 0.4,-0.12 h 1.29 z"
   id="path38"
   style="fill:#ffffff" />
	<path
   inkscape:connector-curvature="0"
   d="m 362.42,354.55 c 0.87,-1.09 1.88,-1.96 3.02,-2.61 1.14,-0.66 2.42,-0.99 3.82,-0.99 1.04,0 1.95,0.16 2.74,0.49 0.79,0.33 1.44,0.8 1.96,1.42 0.51,0.62 0.91,1.37 1.17,2.24 0.27,0.87 0.4,1.86 0.4,2.96 v 12.06 h -1.82 v -12.06 c 0,-1.77 -0.41,-3.16 -1.22,-4.16 -0.81,-1.01 -2.04,-1.51 -3.7,-1.51 -1.22,0 -2.37,0.31 -3.44,0.94 -1.07,0.62 -2.02,1.49 -2.85,2.6 v 14.18 h -1.82 v -18.86 h 1.01 c 0.32,0 0.5,0.15 0.55,0.47 z"
   id="path40"
   style="fill:#ffffff" />
	<path
   inkscape:connector-curvature="0"
   d="m 383.68,344.75 c 0,0.23 -0.04,0.44 -0.14,0.63 -0.09,0.2 -0.22,0.37 -0.37,0.52 -0.15,0.15 -0.33,0.27 -0.53,0.36 -0.21,0.09 -0.42,0.13 -0.65,0.13 -0.23,0 -0.44,-0.05 -0.64,-0.13 -0.21,-0.09 -0.38,-0.21 -0.53,-0.36 -0.15,-0.15 -0.27,-0.32 -0.36,-0.52 -0.08,-0.19 -0.13,-0.41 -0.13,-0.63 0,-0.23 0.05,-0.45 0.13,-0.66 0.09,-0.21 0.21,-0.39 0.36,-0.54 0.15,-0.15 0.33,-0.27 0.53,-0.36 0.2,-0.09 0.41,-0.13 0.64,-0.13 0.23,0 0.44,0.04 0.65,0.13 0.2,0.09 0.38,0.21 0.53,0.36 0.15,0.15 0.28,0.33 0.37,0.54 0.1,0.21 0.14,0.43 0.14,0.66 m -0.77,25.36 h -1.8 v -18.86 h 1.8 z"
   id="path42"
   style="fill:#ffffff" />
	<path
   inkscape:connector-curvature="0"
   d="m 388.16,353.92 c 0.99,-0.99 2.02,-1.73 3.11,-2.23 1.09,-0.5 2.32,-0.76 3.7,-0.76 1.01,0 1.89,0.16 2.65,0.48 0.76,0.32 1.39,0.79 1.88,1.38 0.5,0.6 0.88,1.33 1.13,2.18 0.25,0.85 0.38,1.8 0.38,2.85 v 12.28 h -0.72 c -0.38,0 -0.61,-0.18 -0.7,-0.53 l -0.27,-2.43 c -0.51,0.5 -1.03,0.96 -1.54,1.37 -0.51,0.4 -1.04,0.74 -1.6,1.02 -0.56,0.28 -1.16,0.49 -1.8,0.64 -0.65,0.15 -1.36,0.23 -2.12,0.23 -0.65,0 -1.27,-0.09 -1.88,-0.28 -0.61,-0.19 -1.15,-0.48 -1.62,-0.88 -0.47,-0.39 -0.85,-0.9 -1.14,-1.5 -0.29,-0.62 -0.43,-1.35 -0.43,-2.21 0,-0.8 0.23,-1.53 0.68,-2.22 0.45,-0.68 1.17,-1.28 2.14,-1.78 0.97,-0.5 2.22,-0.91 3.74,-1.21 1.52,-0.3 3.35,-0.48 5.49,-0.53 v -1.97 c 0,-1.75 -0.37,-3.09 -1.13,-4.03 -0.75,-0.94 -1.87,-1.41 -3.35,-1.41 -0.91,0 -1.68,0.13 -2.32,0.38 -0.64,0.25 -1.18,0.53 -1.62,0.83 -0.44,0.31 -0.8,0.58 -1.08,0.83 -0.28,0.25 -0.51,0.38 -0.7,0.38 -0.14,0 -0.25,-0.03 -0.34,-0.09 -0.09,-0.07 -0.16,-0.14 -0.23,-0.25 z m 11.09,7.08 c -1.79,0.06 -3.34,0.21 -4.63,0.43 -1.3,0.22 -2.36,0.52 -3.2,0.9 -0.84,0.38 -1.46,0.83 -1.87,1.36 -0.4,0.52 -0.6,1.12 -0.6,1.79 0,0.63 0.1,1.18 0.31,1.64 0.21,0.46 0.49,0.84 0.83,1.14 0.35,0.3 0.75,0.52 1.2,0.66 0.45,0.14 0.93,0.21 1.42,0.21 0.73,0 1.41,-0.08 2.02,-0.24 0.61,-0.16 1.18,-0.38 1.71,-0.66 0.52,-0.28 1.01,-0.62 1.47,-1.01 0.45,-0.39 0.9,-0.81 1.34,-1.27 z"
   id="path44"
   style="fill:#ffffff" />
	<path
   inkscape:connector-curvature="0"
   d="m 439.49,356.69 c 0,2.07 -0.31,3.94 -0.93,5.59 -0.62,1.66 -1.49,3.06 -2.62,4.23 -1.12,1.16 -2.47,2.05 -4.05,2.67 -1.58,0.62 -3.31,0.93 -5.2,0.93 h -9.8 v -26.82 h 9.8 c 1.89,0 3.63,0.31 5.2,0.93 1.58,0.62 2.92,1.51 4.05,2.68 1.12,1.16 2,2.57 2.62,4.23 0.62,1.65 0.93,3.51 0.93,5.56 m -2.01,0 c 0,-1.87 -0.26,-3.54 -0.77,-5 -0.52,-1.47 -1.26,-2.71 -2.2,-3.72 -0.95,-1.01 -2.09,-1.78 -3.41,-2.31 -1.33,-0.54 -2.8,-0.8 -4.4,-0.8 h -7.85 v 23.68 h 7.85 c 1.6,0 3.07,-0.27 4.4,-0.8 1.32,-0.53 2.46,-1.3 3.41,-2.31 0.95,-1.01 1.68,-2.25 2.2,-3.72 0.51,-1.46 0.77,-3.13 0.77,-5.02"
   id="path46"
   style="fill:#ffffff" />
	<path
   inkscape:connector-curvature="0"
   d="m 451.39,350.95 c 1.35,0 2.56,0.23 3.63,0.69 1.07,0.46 1.97,1.12 2.7,1.96 0.73,0.85 1.29,1.87 1.68,3.07 0.38,1.19 0.58,2.53 0.58,4.01 0,1.48 -0.2,2.81 -0.58,4 -0.38,1.19 -0.95,2.21 -1.68,3.05 -0.74,0.85 -1.64,1.5 -2.7,1.95 -1.07,0.45 -2.28,0.68 -3.63,0.68 -1.35,0 -2.56,-0.23 -3.63,-0.68 -1.07,-0.45 -1.97,-1.1 -2.71,-1.95 -0.74,-0.84 -1.3,-1.86 -1.69,-3.05 -0.39,-1.19 -0.58,-2.52 -0.58,-4 0,-1.48 0.19,-2.82 0.58,-4.01 0.38,-1.2 0.95,-2.22 1.69,-3.07 0.74,-0.84 1.64,-1.5 2.71,-1.96 1.07,-0.46 2.28,-0.69 3.63,-0.69 m 0,17.99 c 1.12,0 2.11,-0.19 2.95,-0.58 0.84,-0.38 1.54,-0.94 2.1,-1.66 0.56,-0.72 0.98,-1.59 1.26,-2.6 0.28,-1.02 0.42,-2.16 0.42,-3.42 0,-1.25 -0.14,-2.39 -0.42,-3.41 -0.28,-1.02 -0.7,-1.9 -1.26,-2.63 -0.56,-0.73 -1.26,-1.29 -2.1,-1.68 -0.84,-0.39 -1.82,-0.59 -2.95,-0.59 -1.12,0 -2.11,0.2 -2.95,0.59 -0.84,0.39 -1.54,0.95 -2.1,1.68 -0.56,0.73 -0.99,1.6 -1.27,2.63 -0.29,1.02 -0.43,2.16 -0.43,3.41 0,1.26 0.14,2.4 0.43,3.42 0.28,1.01 0.71,1.88 1.27,2.6 0.56,0.72 1.26,1.27 2.1,1.66 0.85,0.39 1.83,0.58 2.95,0.58"
   id="path48"
   style="fill:#ffffff" />
	<path
   inkscape:connector-curvature="0"
   d="m 474.8,353.59 c -0.1,0.18 -0.25,0.26 -0.44,0.26 -0.14,0 -0.32,-0.08 -0.53,-0.24 -0.22,-0.16 -0.5,-0.34 -0.86,-0.53 -0.36,-0.2 -0.8,-0.38 -1.33,-0.54 -0.54,-0.15 -1.18,-0.24 -1.94,-0.24 -0.68,0 -1.31,0.1 -1.87,0.3 -0.56,0.2 -1.04,0.46 -1.44,0.78 -0.4,0.33 -0.7,0.71 -0.92,1.15 -0.22,0.44 -0.32,0.9 -0.32,1.37 0,0.6 0.15,1.09 0.46,1.48 0.3,0.39 0.7,0.73 1.18,1.01 0.49,0.28 1.05,0.51 1.68,0.72 0.63,0.2 1.27,0.4 1.92,0.6 0.65,0.21 1.29,0.43 1.93,0.67 0.63,0.25 1.19,0.55 1.68,0.92 0.48,0.36 0.88,0.81 1.18,1.34 0.31,0.53 0.46,1.18 0.46,1.94 0,0.82 -0.14,1.59 -0.44,2.29 -0.29,0.71 -0.72,1.32 -1.28,1.84 -0.56,0.52 -1.26,0.93 -2.08,1.23 -0.82,0.3 -1.76,0.45 -2.82,0.45 -1.33,0 -2.47,-0.21 -3.43,-0.64 -0.96,-0.42 -1.82,-0.98 -2.58,-1.66 l 0.41,-0.64 c 0.07,-0.1 0.14,-0.18 0.22,-0.23 0.08,-0.05 0.19,-0.08 0.33,-0.08 0.16,0 0.36,0.1 0.6,0.3 0.24,0.2 0.55,0.42 0.94,0.65 0.39,0.24 0.88,0.45 1.45,0.66 0.58,0.2 1.29,0.3 2.13,0.3 0.79,0 1.5,-0.11 2.1,-0.33 0.61,-0.23 1.11,-0.52 1.52,-0.9 0.4,-0.38 0.71,-0.82 0.92,-1.34 0.21,-0.51 0.32,-1.05 0.32,-1.62 0,-0.63 -0.15,-1.15 -0.46,-1.57 -0.3,-0.42 -0.7,-0.77 -1.19,-1.06 -0.49,-0.29 -1.05,-0.54 -1.68,-0.74 -0.63,-0.2 -1.27,-0.4 -1.92,-0.6 -0.66,-0.21 -1.3,-0.42 -1.93,-0.67 -0.62,-0.24 -1.18,-0.54 -1.68,-0.91 -0.49,-0.37 -0.89,-0.81 -1.19,-1.34 -0.31,-0.52 -0.46,-1.17 -0.46,-1.96 0,-0.67 0.14,-1.31 0.44,-1.93 0.29,-0.62 0.7,-1.16 1.24,-1.63 0.54,-0.47 1.19,-0.84 1.96,-1.12 0.77,-0.28 1.64,-0.42 2.59,-0.42 1.15,0 2.17,0.16 3.06,0.49 0.89,0.33 1.7,0.83 2.43,1.51 z"
   id="path50"
   style="fill:#ffffff" />
	<path
   inkscape:connector-curvature="0"
   d="m 485.06,370.42 c -1.28,0 -2.27,-0.35 -2.99,-1.06 -0.71,-0.71 -1.07,-1.8 -1.07,-3.28 v -12.89 h -2.71 c -0.14,0 -0.25,-0.04 -0.34,-0.11 -0.09,-0.08 -0.13,-0.19 -0.13,-0.32 v -0.7 l 3.22,-0.23 0.45,-6.75 c 0.03,-0.11 0.08,-0.22 0.15,-0.3 0.08,-0.09 0.19,-0.13 0.32,-0.13 h 0.85 v 7.2 h 5.95 v 1.35 h -5.95 V 366 c 0,0.51 0.06,0.96 0.2,1.33 0.13,0.37 0.31,0.68 0.55,0.92 0.23,0.24 0.5,0.42 0.82,0.53 0.31,0.11 0.65,0.17 1.02,0.17 0.45,0 0.85,-0.07 1.18,-0.2 0.33,-0.13 0.61,-0.28 0.85,-0.44 0.24,-0.16 0.44,-0.3 0.59,-0.43 0.15,-0.13 0.27,-0.2 0.36,-0.2 0.1,0 0.2,0.06 0.3,0.19 l 0.49,0.8 c -0.48,0.53 -1.09,0.96 -1.83,1.28 -0.72,0.3 -1.48,0.47 -2.28,0.47"
   id="path52"
   style="fill:#ffffff" />
	<path
   inkscape:connector-curvature="0"
   d="m 492.83,359.94 v 0.36 c 0,1.42 0.16,2.66 0.49,3.74 0.33,1.07 0.8,1.97 1.4,2.7 0.61,0.73 1.34,1.28 2.2,1.64 0.85,0.37 1.82,0.55 2.88,0.55 0.95,0 1.77,-0.11 2.46,-0.32 0.69,-0.21 1.28,-0.44 1.75,-0.7 0.47,-0.26 0.85,-0.49 1.13,-0.7 0.28,-0.21 0.48,-0.32 0.61,-0.32 0.16,0 0.29,0.07 0.38,0.19 l 0.49,0.61 c -0.24,0.29 -0.54,0.57 -0.9,0.84 -0.36,0.26 -0.76,0.5 -1.19,0.72 -0.44,0.22 -0.91,0.4 -1.41,0.57 -0.5,0.16 -1.03,0.29 -1.57,0.38 -0.26,0.15 -0.52,0.33 -0.8,0.55 -0.28,0.22 -0.53,0.46 -0.76,0.73 -0.24,0.27 -0.43,0.57 -0.58,0.91 -0.15,0.34 -0.23,0.69 -0.23,1.07 0,0.61 0.21,1.08 0.61,1.41 0.4,0.34 0.93,0.5 1.55,0.5 0.36,0 0.65,-0.04 0.89,-0.11 0.24,-0.07 0.44,-0.14 0.6,-0.22 0.16,-0.07 0.29,-0.15 0.39,-0.22 0.1,-0.07 0.18,-0.1 0.25,-0.1 0.1,0 0.19,0.05 0.25,0.15 l 0.3,0.65 c -0.35,0.3 -0.8,0.55 -1.33,0.73 -0.54,0.19 -1.1,0.27 -1.68,0.27 -0.98,0 -1.75,-0.24 -2.34,-0.71 -0.59,-0.47 -0.88,-1.13 -0.88,-1.96 0,-0.35 0.06,-0.7 0.18,-1.02 0.12,-0.33 0.29,-0.64 0.49,-0.93 0.21,-0.29 0.45,-0.57 0.71,-0.82 0.26,-0.26 0.55,-0.49 0.85,-0.71 h -0.34 c -1.29,0 -2.46,-0.22 -3.52,-0.67 -1.06,-0.45 -1.97,-1.1 -2.73,-1.96 -0.76,-0.86 -1.35,-1.91 -1.75,-3.15 -0.41,-1.25 -0.62,-2.67 -0.62,-4.28 0,-1.35 0.2,-2.6 0.58,-3.74 0.39,-1.14 0.94,-2.13 1.67,-2.96 0.73,-0.82 1.62,-1.47 2.67,-1.94 1.06,-0.47 2.25,-0.7 3.59,-0.7 1.06,0 2.05,0.19 2.96,0.55 0.91,0.37 1.7,0.9 2.37,1.6 0.67,0.7 1.2,1.56 1.58,2.59 0.39,1.02 0.58,2.2 0.58,3.53 0,0.28 -0.04,0.47 -0.11,0.57 -0.07,0.1 -0.2,0.15 -0.38,0.15 h -13.74 z m 12.59,-1.16 c 0,-1.01 -0.14,-1.91 -0.43,-2.72 -0.28,-0.8 -0.68,-1.48 -1.2,-2.04 -0.52,-0.56 -1.13,-0.98 -1.85,-1.28 -0.72,-0.3 -1.5,-0.45 -2.36,-0.45 -0.98,0 -1.85,0.15 -2.62,0.46 -0.77,0.3 -1.44,0.74 -2,1.31 -0.56,0.57 -1.01,1.25 -1.36,2.05 -0.34,0.79 -0.57,1.69 -0.68,2.67 z"
   id="path54"
   style="fill:#ffffff" />
	<path
   inkscape:connector-curvature="0"
   d="m 513.06,354.65 c 0.83,-1.14 1.81,-2.04 2.93,-2.71 1.12,-0.67 2.37,-1.01 3.76,-1.01 2.31,0 4.12,0.8 5.41,2.41 1.3,1.61 1.94,4.01 1.94,7.22 0,1.38 -0.18,2.66 -0.54,3.86 -0.36,1.19 -0.89,2.23 -1.59,3.11 -0.7,0.88 -1.56,1.57 -2.58,2.07 -1.02,0.51 -2.19,0.76 -3.52,0.76 -1.28,0 -2.38,-0.23 -3.31,-0.7 -0.94,-0.47 -1.75,-1.16 -2.43,-2.07 v 9.19 h -1.82 v -25.53 h 1 c 0.32,0 0.5,0.16 0.55,0.47 z m 0.07,11.35 c 0.37,0.55 0.75,1 1.15,1.38 0.4,0.37 0.82,0.67 1.26,0.91 0.44,0.24 0.91,0.4 1.41,0.5 0.49,0.1 1.02,0.15 1.58,0.15 1.11,0 2.09,-0.2 2.92,-0.61 0.83,-0.4 1.53,-0.98 2.1,-1.71 0.56,-0.74 0.99,-1.63 1.27,-2.66 0.29,-1.03 0.43,-2.16 0.43,-3.4 0,-2.81 -0.52,-4.87 -1.55,-6.19 -1.04,-1.32 -2.52,-1.98 -4.46,-1.98 -1.25,0 -2.38,0.32 -3.39,0.97 -1.01,0.65 -1.91,1.54 -2.71,2.69 V 366 Z"
   id="path56"
   style="fill:#ffffff" />
	<path
   inkscape:connector-curvature="0"
   d="m 533.3,354.55 c 0.87,-1.09 1.88,-1.96 3.02,-2.61 1.14,-0.66 2.42,-0.99 3.82,-0.99 1.04,0 1.95,0.16 2.74,0.49 0.79,0.33 1.44,0.8 1.96,1.42 0.51,0.62 0.91,1.37 1.17,2.24 0.27,0.87 0.4,1.86 0.4,2.96 v 12.06 h -1.82 v -12.06 c 0,-1.77 -0.41,-3.16 -1.21,-4.16 -0.81,-1.01 -2.04,-1.51 -3.7,-1.51 -1.22,0 -2.37,0.31 -3.44,0.94 -1.07,0.62 -2.02,1.49 -2.85,2.6 v 14.18 h -1.82 v -18.86 h 1.01 c 0.32,0 0.5,0.15 0.55,0.47 z"
   id="path58"
   style="fill:#ffffff" />
	<path
   inkscape:connector-curvature="0"
   d="m 559.25,350.95 c 1.35,0 2.56,0.23 3.63,0.69 1.07,0.46 1.97,1.12 2.7,1.96 0.73,0.85 1.29,1.87 1.68,3.07 0.39,1.19 0.58,2.53 0.58,4.01 0,1.48 -0.19,2.81 -0.58,4 -0.38,1.19 -0.94,2.21 -1.68,3.05 -0.73,0.85 -1.63,1.5 -2.7,1.95 -1.07,0.45 -2.28,0.68 -3.63,0.68 -1.35,0 -2.56,-0.23 -3.63,-0.68 -1.07,-0.45 -1.97,-1.1 -2.71,-1.95 -0.74,-0.84 -1.3,-1.86 -1.69,-3.05 -0.38,-1.19 -0.58,-2.52 -0.58,-4 0,-1.48 0.2,-2.82 0.58,-4.01 0.39,-1.2 0.95,-2.22 1.69,-3.07 0.74,-0.84 1.65,-1.5 2.71,-1.96 1.07,-0.46 2.28,-0.69 3.63,-0.69 m 0,17.99 c 1.12,0 2.11,-0.19 2.94,-0.58 0.84,-0.38 1.54,-0.94 2.11,-1.66 0.57,-0.72 0.98,-1.59 1.26,-2.6 0.28,-1.02 0.42,-2.16 0.42,-3.42 0,-1.25 -0.14,-2.39 -0.42,-3.41 -0.28,-1.02 -0.7,-1.9 -1.26,-2.63 -0.56,-0.73 -1.27,-1.29 -2.11,-1.68 -0.84,-0.39 -1.82,-0.59 -2.94,-0.59 -1.13,0 -2.11,0.2 -2.95,0.59 -0.84,0.39 -1.54,0.95 -2.1,1.68 -0.57,0.73 -0.99,1.6 -1.27,2.63 -0.28,1.02 -0.43,2.16 -0.43,3.41 0,1.26 0.14,2.4 0.43,3.42 0.29,1.01 0.71,1.88 1.27,2.6 0.56,0.72 1.26,1.27 2.1,1.66 0.84,0.39 1.82,0.58 2.95,0.58"
   id="path60"
   style="fill:#ffffff" />
	<path
   inkscape:connector-curvature="0"
   d="m 582.66,353.58 c -0.1,0.18 -0.25,0.27 -0.44,0.27 -0.14,0 -0.32,-0.08 -0.53,-0.24 -0.22,-0.16 -0.5,-0.33 -0.86,-0.53 -0.36,-0.2 -0.81,-0.37 -1.34,-0.53 -0.53,-0.16 -1.17,-0.24 -1.93,-0.24 -0.68,0 -1.31,0.1 -1.87,0.3 -0.56,0.2 -1.04,0.46 -1.44,0.79 -0.4,0.33 -0.71,0.71 -0.92,1.15 -0.22,0.43 -0.32,0.89 -0.32,1.37 0,0.6 0.15,1.09 0.45,1.48 0.31,0.39 0.7,0.73 1.19,1.01 0.48,0.28 1.04,0.51 1.68,0.72 0.63,0.2 1.27,0.4 1.93,0.61 0.65,0.2 1.29,0.43 1.92,0.67 0.63,0.25 1.19,0.55 1.68,0.92 0.49,0.37 0.89,0.81 1.19,1.35 0.3,0.53 0.45,1.17 0.45,1.94 0,0.82 -0.14,1.59 -0.43,2.29 -0.29,0.71 -0.72,1.32 -1.28,1.84 -0.56,0.52 -1.25,0.93 -2.07,1.24 -0.82,0.3 -1.77,0.45 -2.83,0.45 -1.33,0 -2.47,-0.21 -3.43,-0.63 -0.96,-0.42 -1.82,-0.98 -2.57,-1.66 l 0.42,-0.65 c 0.06,-0.1 0.13,-0.17 0.22,-0.23 0.08,-0.05 0.2,-0.08 0.33,-0.08 0.16,0 0.36,0.1 0.6,0.3 0.23,0.21 0.55,0.42 0.94,0.66 0.39,0.23 0.88,0.45 1.45,0.65 0.57,0.21 1.28,0.31 2.13,0.31 0.8,0 1.5,-0.11 2.11,-0.33 0.61,-0.22 1.11,-0.52 1.52,-0.9 0.4,-0.38 0.71,-0.82 0.92,-1.34 0.21,-0.51 0.31,-1.05 0.31,-1.62 0,-0.63 -0.15,-1.16 -0.45,-1.58 -0.31,-0.42 -0.7,-0.77 -1.2,-1.06 -0.49,-0.29 -1.05,-0.54 -1.68,-0.74 -0.63,-0.2 -1.27,-0.4 -1.92,-0.61 -0.66,-0.2 -1.3,-0.42 -1.92,-0.66 -0.63,-0.24 -1.19,-0.54 -1.68,-0.91 -0.49,-0.37 -0.9,-0.81 -1.2,-1.34 -0.3,-0.52 -0.45,-1.18 -0.45,-1.96 0,-0.67 0.14,-1.31 0.43,-1.93 0.29,-0.62 0.7,-1.16 1.24,-1.63 0.54,-0.46 1.19,-0.84 1.96,-1.12 0.77,-0.28 1.64,-0.42 2.59,-0.42 1.15,0 2.17,0.16 3.06,0.49 0.89,0.33 1.7,0.83 2.44,1.51 z m -0.89,-10.59 -4.11,4.8 c -0.1,0.12 -0.21,0.21 -0.31,0.26 -0.11,0.04 -0.24,0.06 -0.39,0.06 h -1.08 l 2.98,-4.51 c 0.14,-0.23 0.29,-0.39 0.44,-0.47 0.15,-0.09 0.38,-0.13 0.68,-0.13 h 1.79 z"
   id="path62"
   style="fill:#ffffff" />
	<path
   inkscape:connector-curvature="0"
   d="m 600.44,353.77 c -0.07,0.07 -0.12,0.12 -0.18,0.16 -0.05,0.05 -0.13,0.06 -0.24,0.06 -0.13,0 -0.3,-0.08 -0.51,-0.25 -0.22,-0.17 -0.51,-0.36 -0.87,-0.56 -0.37,-0.2 -0.82,-0.39 -1.37,-0.56 -0.55,-0.17 -1.22,-0.26 -2,-0.26 -1.09,0 -2.05,0.2 -2.89,0.58 -0.84,0.39 -1.55,0.94 -2.13,1.66 -0.58,0.72 -1.02,1.6 -1.32,2.61 -0.3,1.02 -0.45,2.17 -0.45,3.45 0,1.32 0.15,2.5 0.47,3.52 0.31,1.02 0.75,1.88 1.32,2.59 0.57,0.7 1.26,1.24 2.07,1.6 0.81,0.37 1.71,0.55 2.69,0.55 0.91,0 1.67,-0.1 2.28,-0.32 0.62,-0.21 1.12,-0.45 1.52,-0.7 0.4,-0.25 0.71,-0.48 0.94,-0.7 0.23,-0.22 0.42,-0.33 0.57,-0.33 0.15,0 0.28,0.07 0.38,0.19 l 0.48,0.61 c -0.29,0.38 -0.66,0.73 -1.1,1.06 -0.44,0.33 -0.94,0.61 -1.5,0.85 -0.56,0.24 -1.15,0.43 -1.81,0.56 -0.65,0.13 -1.33,0.2 -2.04,0.2 -1.2,0 -2.3,-0.22 -3.29,-0.66 -0.99,-0.44 -1.84,-1.07 -2.56,-1.89 -0.71,-0.83 -1.27,-1.84 -1.67,-3.04 -0.4,-1.2 -0.6,-2.57 -0.6,-4.1 0,-1.44 0.19,-2.76 0.57,-3.94 0.38,-1.19 0.94,-2.21 1.67,-3.07 0.73,-0.86 1.63,-1.53 2.68,-2 1.06,-0.47 2.26,-0.71 3.63,-0.71 1.23,0 2.31,0.2 3.26,0.59 0.95,0.39 1.78,0.92 2.49,1.59 z"
   id="path64"
   style="fill:#ffffff" />
	<path
   inkscape:connector-curvature="0"
   d="m 607.78,344.75 c 0,0.23 -0.05,0.44 -0.14,0.63 -0.09,0.2 -0.22,0.37 -0.37,0.52 -0.15,0.15 -0.33,0.27 -0.53,0.36 -0.21,0.09 -0.42,0.13 -0.65,0.13 -0.23,0 -0.44,-0.05 -0.64,-0.13 -0.21,-0.09 -0.38,-0.21 -0.53,-0.36 -0.15,-0.15 -0.28,-0.32 -0.36,-0.52 -0.08,-0.19 -0.13,-0.41 -0.13,-0.63 0,-0.23 0.05,-0.45 0.13,-0.66 0.09,-0.21 0.21,-0.39 0.36,-0.54 0.15,-0.15 0.33,-0.27 0.53,-0.36 0.2,-0.09 0.41,-0.13 0.64,-0.13 0.23,0 0.44,0.04 0.65,0.13 0.2,0.09 0.38,0.21 0.53,0.36 0.15,0.15 0.28,0.33 0.37,0.54 0.09,0.21 0.14,0.43 0.14,0.66 M 607,370.11 h -1.8 v -18.86 h 1.8 z"
   id="path66"
   style="fill:#ffffff" />
	<path
   inkscape:connector-curvature="0"
   d="m 642.64,365.6 c 0.13,0 0.24,0.05 0.33,0.13 l 0.75,0.81 c -0.56,0.59 -1.16,1.13 -1.81,1.6 -0.65,0.47 -1.36,0.88 -2.14,1.21 -0.78,0.34 -1.63,0.6 -2.56,0.78 -0.93,0.18 -1.95,0.27 -3.06,0.27 -1.86,0 -3.56,-0.33 -5.11,-0.98 -1.55,-0.65 -2.88,-1.57 -3.99,-2.77 -1.11,-1.19 -1.97,-2.64 -2.58,-4.33 -0.62,-1.69 -0.92,-3.57 -0.92,-5.65 0,-2.04 0.32,-3.89 0.95,-5.57 0.63,-1.68 1.52,-3.12 2.66,-4.33 1.14,-1.2 2.5,-2.14 4.1,-2.81 1.59,-0.66 3.35,-1 5.27,-1 1.83,0 3.46,0.29 4.87,0.85 1.42,0.57 2.71,1.37 3.87,2.41 l -0.59,0.85 c -0.1,0.15 -0.26,0.23 -0.47,0.23 -0.15,0 -0.4,-0.14 -0.74,-0.42 -0.34,-0.28 -0.82,-0.58 -1.42,-0.92 -0.61,-0.34 -1.37,-0.64 -2.27,-0.92 -0.91,-0.28 -1.99,-0.42 -3.25,-0.42 -1.62,0 -3.1,0.28 -4.44,0.83 -1.35,0.56 -2.5,1.35 -3.47,2.39 -0.97,1.04 -1.72,2.3 -2.26,3.79 -0.55,1.49 -0.82,3.17 -0.82,5.02 0,1.89 0.28,3.59 0.83,5.08 0.55,1.49 1.3,2.76 2.26,3.78 0.96,1.03 2.09,1.82 3.4,2.37 1.31,0.55 2.72,0.83 4.24,0.83 0.96,0 1.82,-0.06 2.57,-0.19 0.75,-0.12 1.44,-0.32 2.07,-0.57 0.63,-0.25 1.22,-0.56 1.76,-0.93 0.54,-0.37 1.08,-0.8 1.61,-1.29 0.06,-0.05 0.13,-0.09 0.19,-0.12 0.04,0.01 0.1,-0.01 0.17,-0.01"
   id="path68"
   style="fill:#ffffff" />
	<path
   inkscape:connector-curvature="0"
   d="m 661.97,351.25 -10.84,24.93 c -0.07,0.18 -0.17,0.32 -0.29,0.43 -0.12,0.11 -0.29,0.17 -0.52,0.17 h -1.29 l 3.32,-7.37 -7.98,-18.16 h 1.5 c 0.19,0 0.34,0.05 0.45,0.14 0.11,0.09 0.19,0.2 0.23,0.32 l 6.35,14.67 c 0.07,0.19 0.14,0.38 0.2,0.58 0.06,0.2 0.11,0.39 0.16,0.6 0.06,-0.2 0.13,-0.4 0.2,-0.6 0.07,-0.2 0.14,-0.39 0.22,-0.58 l 6.27,-14.67 c 0.06,-0.14 0.15,-0.25 0.27,-0.33 0.11,-0.08 0.24,-0.12 0.38,-0.12 h 1.37 z"
   id="path70"
   style="fill:#ffffff" />
	<path
   inkscape:connector-curvature="0"
   d="m 666.22,370.11 v -16.89 l -2.65,-0.17 c -0.36,-0.04 -0.53,-0.2 -0.53,-0.47 v -0.74 h 3.18 v -2.39 c 0,-1.07 0.14,-2.02 0.42,-2.83 0.28,-0.82 0.67,-1.5 1.18,-2.04 0.5,-0.54 1.11,-0.95 1.82,-1.22 0.71,-0.27 1.49,-0.41 2.35,-0.41 0.39,0 0.78,0.03 1.18,0.1 0.4,0.07 0.76,0.17 1.07,0.29 l -0.06,0.87 c -0.03,0.11 -0.08,0.19 -0.16,0.22 -0.08,0.03 -0.2,0.04 -0.35,0.04 -0.15,-0.01 -0.35,-0.02 -0.59,-0.06 -0.24,-0.03 -0.51,-0.04 -0.83,-0.04 -0.62,0 -1.19,0.09 -1.72,0.27 -0.53,0.18 -0.98,0.47 -1.36,0.88 -0.38,0.4 -0.67,0.94 -0.88,1.59 -0.21,0.65 -0.31,1.45 -0.31,2.4 v 2.33 h 6.13 v 1.35 h -6.07 v 16.93 h -1.82 z"
   id="path72"
   style="fill:#ffffff" />
	<path
   inkscape:connector-curvature="0"
   d="m 679.09,355.8 c 0.29,-0.77 0.62,-1.46 0.99,-2.05 0.37,-0.6 0.8,-1.11 1.29,-1.53 0.48,-0.42 1.03,-0.74 1.63,-0.96 0.6,-0.22 1.27,-0.33 2,-0.33 0.39,0 0.77,0.03 1.16,0.1 0.38,0.07 0.71,0.2 1,0.37 l -0.15,1.25 c -0.06,0.21 -0.18,0.3 -0.36,0.3 -0.15,0 -0.38,-0.04 -0.69,-0.13 -0.31,-0.09 -0.72,-0.13 -1.22,-0.13 -0.73,0 -1.38,0.11 -1.94,0.33 -0.56,0.22 -1.07,0.56 -1.52,1 -0.45,0.44 -0.84,0.99 -1.17,1.64 -0.34,0.65 -0.64,1.4 -0.92,2.25 v 12.21 h -1.82 v -18.86 h 0.97 c 0.22,0 0.37,0.05 0.45,0.13 0.09,0.09 0.14,0.24 0.17,0.45 z"
   id="path74"
   style="fill:#ffffff" />
	<path
   inkscape:connector-curvature="0"
   d="m 696.53,350.95 c 1.35,0 2.56,0.23 3.63,0.69 1.07,0.46 1.97,1.12 2.7,1.96 0.73,0.85 1.29,1.87 1.68,3.07 0.39,1.19 0.58,2.53 0.58,4.01 0,1.48 -0.19,2.81 -0.58,4 -0.38,1.19 -0.94,2.21 -1.68,3.05 -0.73,0.85 -1.63,1.5 -2.7,1.95 -1.07,0.45 -2.28,0.68 -3.63,0.68 -1.35,0 -2.56,-0.23 -3.63,-0.68 -1.07,-0.45 -1.97,-1.1 -2.71,-1.95 -0.74,-0.84 -1.3,-1.86 -1.69,-3.05 -0.38,-1.19 -0.58,-2.52 -0.58,-4 0,-1.48 0.2,-2.82 0.58,-4.01 0.39,-1.2 0.95,-2.22 1.69,-3.07 0.74,-0.84 1.65,-1.5 2.71,-1.96 1.06,-0.46 2.28,-0.69 3.63,-0.69 m 0,17.99 c 1.12,0 2.11,-0.19 2.94,-0.58 0.84,-0.38 1.54,-0.94 2.11,-1.66 0.57,-0.72 0.98,-1.59 1.26,-2.6 0.28,-1.02 0.42,-2.16 0.42,-3.42 0,-1.25 -0.14,-2.39 -0.42,-3.41 -0.28,-1.02 -0.7,-1.9 -1.26,-2.63 -0.56,-0.73 -1.27,-1.29 -2.11,-1.68 -0.84,-0.39 -1.82,-0.59 -2.94,-0.59 -1.13,0 -2.11,0.2 -2.95,0.59 -0.84,0.39 -1.54,0.95 -2.1,1.68 -0.57,0.73 -0.99,1.6 -1.27,2.63 -0.28,1.02 -0.43,2.16 -0.43,3.41 0,1.26 0.14,2.4 0.43,3.42 0.29,1.01 0.71,1.88 1.27,2.6 0.56,0.72 1.26,1.27 2.1,1.66 0.84,0.39 1.82,0.58 2.95,0.58"
   id="path76"
   style="fill:#ffffff" />
	<path
   inkscape:connector-curvature="0"
   d="m 734.27,351.25 -6.29,18.86 h -1.35 c -0.22,0 -0.36,-0.13 -0.43,-0.4 l -5.16,-15.31 c -0.06,-0.19 -0.12,-0.38 -0.17,-0.57 -0.05,-0.19 -0.09,-0.38 -0.13,-0.57 -0.06,0.38 -0.16,0.75 -0.29,1.14 l -5.23,15.31 c -0.08,0.27 -0.23,0.4 -0.46,0.4 h -1.29 l -6.29,-18.86 h 1.36 c 0.18,0 0.32,0.05 0.44,0.14 0.12,0.09 0.19,0.2 0.23,0.32 l 4.76,14.88 c 0.07,0.29 0.14,0.57 0.21,0.84 0.07,0.27 0.11,0.54 0.15,0.8 0.08,-0.27 0.15,-0.53 0.23,-0.8 0.07,-0.27 0.16,-0.55 0.27,-0.84 l 5.04,-15.01 c 0.09,-0.28 0.26,-0.42 0.53,-0.42 h 0.74 c 0.28,0 0.46,0.14 0.55,0.42 l 5,15.01 c 0.09,0.29 0.17,0.57 0.25,0.83 0.08,0.27 0.14,0.53 0.21,0.79 0.05,-0.27 0.1,-0.53 0.16,-0.79 0.05,-0.27 0.13,-0.54 0.22,-0.83 l 4.8,-14.88 c 0.05,-0.14 0.13,-0.25 0.25,-0.33 0.11,-0.08 0.25,-0.12 0.4,-0.12 h 1.29 z"
   id="path78"
   style="fill:#ffffff" />
	<path
   inkscape:connector-curvature="0"
   d="m 738.1,359.94 v 0.36 c 0,1.42 0.16,2.66 0.49,3.74 0.33,1.07 0.8,1.97 1.4,2.7 0.61,0.73 1.34,1.28 2.2,1.64 0.85,0.37 1.82,0.55 2.88,0.55 0.95,0 1.77,-0.11 2.46,-0.32 0.69,-0.21 1.28,-0.44 1.75,-0.7 0.47,-0.26 0.85,-0.49 1.13,-0.7 0.28,-0.21 0.48,-0.32 0.61,-0.32 0.16,0 0.29,0.07 0.38,0.19 l 0.49,0.61 c -0.3,0.38 -0.7,0.73 -1.2,1.06 -0.5,0.33 -1.06,0.61 -1.67,0.84 -0.61,0.24 -1.27,0.42 -1.97,0.56 -0.7,0.14 -1.4,0.21 -2.11,0.21 -1.29,0 -2.46,-0.22 -3.52,-0.67 -1.06,-0.45 -1.97,-1.1 -2.73,-1.96 -0.76,-0.86 -1.35,-1.91 -1.75,-3.15 -0.41,-1.25 -0.62,-2.67 -0.62,-4.28 0,-1.35 0.2,-2.6 0.58,-3.74 0.39,-1.14 0.94,-2.13 1.67,-2.96 0.73,-0.82 1.62,-1.47 2.67,-1.94 1.06,-0.47 2.25,-0.7 3.59,-0.7 1.06,0 2.05,0.19 2.96,0.55 0.91,0.37 1.7,0.9 2.37,1.6 0.67,0.7 1.2,1.56 1.58,2.59 0.39,1.02 0.58,2.2 0.58,3.53 0,0.28 -0.04,0.47 -0.11,0.57 -0.07,0.1 -0.2,0.15 -0.38,0.15 H 738.1 Z m 12.58,-1.16 c 0,-1.01 -0.14,-1.91 -0.43,-2.72 -0.28,-0.8 -0.68,-1.48 -1.2,-2.04 -0.52,-0.56 -1.13,-0.98 -1.85,-1.28 -0.72,-0.3 -1.5,-0.45 -2.36,-0.45 -0.98,0 -1.85,0.15 -2.62,0.46 -0.77,0.3 -1.44,0.74 -2,1.31 -0.56,0.57 -1.01,1.25 -1.36,2.05 -0.34,0.79 -0.57,1.69 -0.68,2.67 z"
   id="path80"
   style="fill:#ffffff" />
	<path
   inkscape:connector-curvature="0"
   d="m 758.59,351.25 v 21.27 c 0,0.66 -0.1,1.27 -0.28,1.82 -0.19,0.56 -0.47,1.04 -0.84,1.45 -0.38,0.41 -0.84,0.73 -1.4,0.97 -0.56,0.23 -1.22,0.35 -1.98,0.35 -0.37,0 -0.69,-0.03 -0.99,-0.09 -0.29,-0.06 -0.58,-0.16 -0.85,-0.3 l 0.09,-0.91 c 0.04,-0.11 0.09,-0.18 0.15,-0.2 0.06,-0.02 0.15,-0.02 0.26,0 0.1,0.02 0.24,0.04 0.41,0.07 0.16,0.03 0.37,0.05 0.63,0.05 1.02,0 1.78,-0.28 2.27,-0.83 0.49,-0.56 0.74,-1.34 0.74,-2.37 v -21.27 h 1.79 z m 0.77,-6.5 c 0,0.23 -0.05,0.44 -0.14,0.63 -0.09,0.2 -0.22,0.37 -0.38,0.53 -0.16,0.15 -0.34,0.27 -0.54,0.36 -0.21,0.09 -0.42,0.13 -0.65,0.13 -0.23,0 -0.44,-0.04 -0.64,-0.13 -0.2,-0.09 -0.38,-0.21 -0.53,-0.36 -0.15,-0.15 -0.28,-0.33 -0.36,-0.53 -0.09,-0.19 -0.13,-0.41 -0.13,-0.63 0,-0.23 0.04,-0.45 0.13,-0.65 0.09,-0.21 0.21,-0.39 0.36,-0.54 0.15,-0.15 0.33,-0.28 0.53,-0.36 0.2,-0.09 0.42,-0.13 0.64,-0.13 0.23,0 0.44,0.04 0.65,0.13 0.2,0.09 0.38,0.21 0.54,0.36 0.16,0.15 0.28,0.33 0.38,0.54 0.1,0.2 0.14,0.43 0.14,0.65"
   id="path82"
   style="fill:#ffffff" />
</g><g
   id="g98"
   transform="matrix(0.90549046,0,0,0.90549046,-57.497815,-178.46851)">
	<path
   style="fill:#7e4795"
   inkscape:connector-curvature="0"
   class="st0"
   d="m 171.21,275.33 c 3.52,0.74 7.03,1.53 10.39,2.87 13.67,5.43 23.42,14.92 29.21,28.42 3.31,7.71 -1.71,15.95 -10.07,16.76 -4.94,0.48 -9.81,-2.49 -11.93,-7.41 -2.1,-4.88 -5.21,-8.93 -9.53,-12.03 -16.49,-11.82 -39.65,-2.75 -43.81,17.15 -3.26,15.61 7.67,31.12 23.44,33.26 12.92,1.75 24.61,-4.9 29.88,-17.01 3.37,-7.75 12.93,-9.91 19.14,-4.32 3.83,3.45 5.02,8.92 2.81,13.84 -7.74,17.23 -20.86,27.82 -39.52,31 -27.81,4.75 -54.4,-14.18 -59.4,-41.97 -0.78,-4.34 -0.91,-8.69 -0.74,-13.08 0.04,-0.17 0.12,-0.33 0.13,-0.5 0.25,-3.71 1.02,-7.32 2.08,-10.88 1.49,-4.97 3.81,-9.53 6.59,-13.89 0.16,-0.09 0.22,-0.22 0.17,-0.4 l -0.02,0.01 c 0.25,-0.01 0.35,-0.22 0.46,-0.38 5.03,-7.11 11.47,-12.58 19.19,-16.56 0.38,-0.17 0.76,-0.34 1.14,-0.52 7.77,-3.64 15.94,-5.26 24.52,-4.87 1.99,0.08 3.92,0.38 5.87,0.51 z"
   id="path86" />
	<path
   style="fill:#f08319"
   inkscape:connector-curvature="0"
   class="st1"
   d="m 171.21,275.33 c -1.95,-0.13 -3.89,-0.43 -5.84,-0.52 -8.58,-0.39 -16.75,1.23 -24.52,4.87 -0.38,0.18 -0.76,0.35 -1.14,0.52 0.2,-0.37 0.37,-0.75 0.59,-1.1 2.97,-4.63 5.94,-9.26 8.91,-13.89 5.42,-8.4 10.85,-16.79 16.26,-25.19 4.15,-6.43 8.27,-12.88 12.44,-19.31 3.4,-5.25 9.79,-7.16 15.26,-4.57 6.73,3.19 8.9,11.32 4.98,17.4 -4.32,6.7 -8.64,13.4 -12.95,20.1 -4.67,7.24 -9.33,14.47 -13.99,21.69 z"
   id="path88" />
	<path
   style="fill:#df1465"
   inkscape:connector-curvature="0"
   class="st2"
   d="m 149.21,265.22 c -2.97,4.63 -5.95,9.26 -8.91,13.89 -0.22,0.35 -0.4,0.73 -0.59,1.1 -7.72,3.99 -14.17,9.45 -19.19,16.56 -0.12,0.16 -0.21,0.37 -0.46,0.38 -0.09,-1.23 0.26,-2.42 0.45,-3.62 0.8,-5.2 1.63,-10.4 2.43,-15.6 0.4,-2.62 0.76,-5.24 1.14,-7.86 0.49,-2.96 0.99,-5.93 1.46,-8.89 1.16,-7.39 2.3,-14.78 3.46,-22.17 0.74,-4.77 1.52,-9.53 2.23,-14.3 0.87,-5.84 5.84,-10.24 11.74,-10.32 5.81,-0.08 10.96,4.21 11.95,9.95 0.41,2.33 -0.1,4.6 -0.45,6.88 -1.16,7.49 -2.33,14.99 -3.5,22.48 -0.6,3.85 -1.17,7.69 -1.76,11.52 z"
   id="path90" />
	<path
   style="fill:#177784"
   inkscape:connector-curvature="0"
   class="st3"
   d="m 124.07,270.08 c -0.38,2.62 -0.74,5.24 -1.14,7.86 -0.8,5.2 -1.64,10.4 -2.43,15.6 -0.18,1.2 -0.53,2.38 -0.45,3.62 0,0 0.02,-0.01 0.02,-0.01 -0.3,0.03 -0.16,0.25 -0.17,0.4 -2.77,4.36 -5.1,8.92 -6.59,13.89 -1.06,3.56 -1.83,7.17 -2.08,10.88 -0.01,0.17 -0.08,0.33 -0.13,0.5 -1.65,-7.54 -3.3,-15.07 -4.96,-22.61 -2.7,-12.27 -5.42,-24.55 -8.12,-36.82 -0.73,-3.31 -1.58,-6.6 -2.1,-9.94 -0.99,-6.28 3.19,-12.12 9.38,-13.4 6.22,-1.29 12.41,2.46 13.95,8.69 1.46,5.89 2.66,11.85 3.98,17.78 0.26,1.19 0.55,2.37 0.84,3.56 z"
   id="path92" />
	<path
   style="fill:#7e4796"
   inkscape:connector-curvature="0"
   class="st4"
   d="m 150.97,327 c 0,-6.78 5.56,-12.36 12.35,-12.39 6.81,-0.03 12.44,5.6 12.42,12.43 -0.02,6.78 -5.62,12.35 -12.4,12.34 -6.79,-0.02 -12.37,-5.61 -12.37,-12.38 z"
   id="path94" />
	<path
   style="fill:#df1465"
   inkscape:connector-curvature="0"
   class="st2"
   d="m 119.89,297.55 c 0.02,-0.15 -0.12,-0.37 0.17,-0.4 0.06,0.18 -0.01,0.31 -0.17,0.4 z"
   id="path96" />
</g></svg>